Bodoni-96-Bold-Italic.ufo
<glyph name="exclam" format="2">
  <advance width="1552"/>
  <unicode hex="0021"/>
  <outline>
    <contour>
      <point x="1590" y="2760" type="curve" smooth="yes"/>
      <point x="1549" y="2281"/>
      <point x="1034" y="1691"/>
      <point x="860" y="1057" type="curve"/>
      <point x="852" y="1057" type="line"/>
      <point x="974" y="1671"/>
      <point x="840" y="2061"/>
      <point x="840" y="2577" type="curve" smooth="yes"/>
      <point x="840" y="2868"/>
      <point x="1018" y="3104"/>
      <point x="1260" y="3104" type="curve" smooth="yes"/>
      <point x="1465" y="3104"/>
      <point x="1606" y="2948"/>
    </contour>
    <contour>
      <point x="315" y="326" type="curve" smooth="yes"/>
      <point x="315" y="529"/>
      <point x="479" y="692"/>
      <point x="682" y="692" type="curve" smooth="yes"/>
      <point x="885" y="692"/>
      <point x="1048" y="529"/>
      <point x="1048" y="326" type="curve" smooth="yes"/>
      <point x="1048" y="123"/>
      <point x="885" y="-40"/>
      <point x="682" y="-40" type="curve" smooth="yes"/>
      <point x="479" y="-40"/>
      <point x="315" y="123"/>
    </contour>
  </outline>
</glyph>
<glyph name="dollar" format="2">
  <advance width="1199"/>
  <unicode hex="0024"/>
  <outline>
    <contour>
      <point x="762" y="1660" type="line"/>
      <point x="766" y="1660" type="line"/>
      <point x="346" y="-160" type="line"/>
      <point x="342" y="-160" type="line"/>
    </contour>
    <contour>
      <point x="924" y="1660" type="line"/>
      <point x="928" y="1660" type="line"/>
      <point x="508" y="-160" type="line"/>
      <point x="504" y="-160" type="line"/>
    </contour>
    <contour>
      <point x="500" y="1250" type="curve" smooth="yes"/>
      <point x="500" y="900"/>
      <point x="1130" y="1020"/>
      <point x="1130" y="490" type="curve" smooth="yes"/>
      <point x="1130" y="160"/>
      <point x="812" y="-30"/>
      <point x="530" y="-30" type="curve" smooth="yes"/>
      <point x="258" y="-30"/>
      <point x="60" y="145"/>
      <point x="60" y="325" type="curve" smooth="yes"/>
      <point x="60" y="427"/>
      <point x="122" y="514"/>
      <point x="230" y="514" type="curve" smooth="yes"/>
      <point x="310" y="514"/>
      <point x="388" y="455"/>
      <point x="388" y="357" type="curve" smooth="yes"/>
      <point x="388" y="247"/>
      <point x="307" y="192"/>
      <point x="219" y="192" type="curve" smooth="yes"/>
      <point x="137" y="192"/>
      <point x="84" y="247"/>
      <point x="68" y="290" type="curve"/>
      <point x="89" y="124"/>
      <point x="282" y="-26"/>
      <point x="530" y="-26" type="curve" smooth="yes"/>
      <point x="742" y="-26"/>
      <point x="870" y="142"/>
      <point x="870" y="300" type="curve" smooth="yes"/>
      <point x="870" y="690"/>
      <point x="250" y="520"/>
      <point x="250" y="1030" type="curve" smooth="yes"/>
      <point x="250" y="1320"/>
      <point x="552" y="1520"/>
      <point x="804" y="1520" type="curve" smooth="yes"/>
      <point x="1020" y="1520"/>
      <point x="1220" y="1377"/>
      <point x="1220" y="1205" type="curve" smooth="yes"/>
      <point x="1220" y="1113"/>
      <point x="1161" y="1025"/>
      <point x="1053" y="1025" type="curve" smooth="yes"/>
      <point x="973" y="1025"/>
      <point x="892" y="1079"/>
      <point x="892" y="1184" type="curve" smooth="yes"/>
      <point x="892" y="1284"/>
      <point x="983" y="1338"/>
      <point x="1061" y="1338" type="curve" smooth="yes"/>
      <point x="1146" y="1338"/>
      <point x="1192" y="1286"/>
      <point x="1209" y="1246" type="curve"/>
      <point x="1187" y="1384"/>
      <point x="1018" y="1513"/>
      <point x="814" y="1513" type="curve" smooth="yes"/>
      <point x="602" y="1513"/>
      <point x="500" y="1378"/>
    </contour>
  </outline>
</glyph>
<glyph name="ampersand" format="2">
  <advance width="1677"/>
  <unicode hex="0026"/>
  <outline>
    <contour>
      <point x="837" y="915" type="line"/>
      <point x="980" y="984"/>
      <point x="1032" y="1144"/>
      <point x="1032" y="1279" type="curve" smooth="yes"/>
      <point x="1032" y="1387"/>
      <point x="1008" y="1516"/>
      <point x="922" y="1516" type="curve" smooth="yes"/>
      <point x="802" y="1516"/>
      <point x="756" y="1366"/>
      <point x="756" y="1240" type="curve" smooth="yes"/>
      <point x="756" y="1170"/>
      <point x="780" y="1067"/>
      <point x="844" y="940" type="curve" smooth="yes"/>
      <point x="1222" y="190" type="line" smooth="yes"/>
      <point x="1263" y="106"/>
      <point x="1305" y="14"/>
      <point x="1385" y="14" type="curve" smooth="yes"/>
      <point x="1457" y="14"/>
      <point x="1526" y="58"/>
      <point x="1564" y="142" type="curve"/>
      <point x="1568" y="140" type="line"/>
      <point x="1530" y="52"/>
      <point x="1438" y="-20"/>
      <point x="1260" y="-20" type="curve" smooth="yes"/>
      <point x="1114" y="-20"/>
      <point x="988" y="26"/>
      <point x="882" y="212" type="curve" smooth="yes"/>
      <point x="508" y="940" type="line" smooth="yes"/>
      <point x="463" y="1023"/>
      <point x="446" y="1096"/>
      <point x="446" y="1166" type="curve" smooth="yes"/>
      <point x="446" y="1366"/>
      <point x="666" y="1520"/>
      <point x="938" y="1520" type="curve" smooth="yes"/>
      <point x="1112" y="1520"/>
      <point x="1320" y="1458"/>
      <point x="1320" y="1283" type="curve" smooth="yes"/>
      <point x="1320" y="1080"/>
      <point x="1060" y="986"/>
      <point x="840" y="913" type="curve"/>
    </contour>
    <contour>
      <point x="586" y="807" type="curve"/>
      <point x="588" y="804" type="line"/>
      <point x="481" y="732"/>
      <point x="350" y="628"/>
      <point x="350" y="400" type="curve" smooth="yes"/>
      <point x="350" y="199"/>
      <point x="494" y="7"/>
      <point x="682" y="7" type="curve" smooth="yes"/>
      <point x="1132" y="7"/>
      <point x="1622" y="417"/>
      <point x="1622" y="696" type="curve" smooth="yes"/>
      <point x="1622" y="724" type="line"/>
      <point x="1604" y="632"/>
      <point x="1519" y="570"/>
      <point x="1431" y="570" type="curve" smooth="yes"/>
      <point x="1331" y="570"/>
      <point x="1266" y="654"/>
      <point x="1266" y="734" type="curve" smooth="yes"/>
      <point x="1266" y="824"/>
      <point x="1346" y="898"/>
      <point x="1440" y="898" type="curve" smooth="yes"/>
      <point x="1546" y="898"/>
      <point x="1628" y="814"/>
      <point x="1628" y="702" type="curve" smooth="yes"/>
      <point x="1628" y="422"/>
      <point x="1148" y="-20"/>
      <point x="548" y="-20" type="curve" smooth="yes"/>
      <point x="272" y="-20"/>
      <point x="40" y="64"/>
      <point x="40" y="303" type="curve" smooth="yes"/>
      <point x="40" y="577"/>
      <point x="289" y="686"/>
    </contour>
  </outline>
</glyph>
<glyph name="parenleft" format="2">
  <advance width="1529"/>
  <unicode hex="0028"/>
  <outline>
    <contour>
      <point x="1149" y="-690" type="curve"/>
      <point x="1144" y="-696" type="line"/>
      <point x="682" y="-492"/>
      <point x="342" y="50"/>
      <point x="342" y="758" type="curve" smooth="yes"/>
      <point x="342" y="1958"/>
      <point x="1236" y="2948"/>
      <point x="2026" y="3276" type="curve"/>
      <point x="2030" y="3270" type="line"/>
      <point x="1400" y="2860"/>
      <point x="896" y="1278"/>
      <point x="896" y="328" type="curve" smooth="yes"/>
      <point x="896" y="-192"/>
      <point x="964" y="-486"/>
    </contour>
  </outline>
</glyph>
<glyph name="asterisk" format="2">
  <advance width="1269"/>
  <unicode hex="002A"/>
  <outline>
    <contour>
      <point x="540" y="1319" type="curve" smooth="yes"/>
      <point x="665" y="1224"/>
      <point x="581" y="1070"/>
      <point x="761" y="970" type="curve"/>
      <point x="758" y="967" type="line"/>
      <point x="568" y="1077"/>
      <point x="482" y="977"/>
      <point x="344" y="1038" type="curve" smooth="yes"/>
      <point x="246" y="1082"/>
      <point x="221" y="1191"/>
      <point x="270" y="1274" type="curve" smooth="yes"/>
      <point x="323" y="1363"/>
      <point x="448" y="1383"/>
    </contour>
    <contour>
      <point x="286" y="890" type="curve" smooth="yes"/>
      <point x="430" y="933"/>
      <point x="568" y="860"/>
      <point x="758" y="970" type="curve"/>
      <point x="760" y="967" type="line"/>
      <point x="570" y="857"/>
      <point x="536" y="726"/>
      <point x="414" y="627" type="curve" smooth="yes"/>
      <point x="324" y="557"/>
      <point x="216" y="561"/>
      <point x="165" y="646" type="curve" smooth="yes"/>
      <point x="112" y="732"/>
      <point x="170" y="858"/>
    </contour>
    <contour>
      <point x="523" y="554" type="curve" smooth="yes"/>
      <point x="568" y="706"/>
      <point x="728" y="770"/>
      <point x="758" y="970" type="curve"/>
      <point x="762" y="970" type="line"/>
      <point x="722" y="730"/>
      <point x="839" y="694"/>
      <point x="839" y="544" type="curve" smooth="yes"/>
      <point x="839" y="440"/>
      <point x="757" y="356"/>
      <point x="657" y="356" type="curve" smooth="yes"/>
      <point x="567" y="356"/>
      <point x="484" y="427"/>
    </contour>
    <contour>
      <point x="981" y="624" type="curve" smooth="yes"/>
      <point x="856" y="719"/>
      <point x="938" y="867"/>
      <point x="758" y="967" type="curve"/>
      <point x="761" y="970" type="line"/>
      <point x="951" y="860"/>
      <point x="1036" y="961"/>
      <point x="1175" y="902" type="curve" smooth="yes"/>
      <point x="1273" y="858"/>
      <point x="1298" y="749"/>
      <point x="1249" y="666" type="curve" smooth="yes"/>
      <point x="1196" y="578"/>
      <point x="1071" y="561"/>
    </contour>
    <contour>
      <point x="1233" y="1050" type="curve" smooth="yes"/>
      <point x="1089" y="1007"/>
      <point x="950" y="1077"/>
      <point x="760" y="967" type="curve"/>
      <point x="758" y="970" type="line"/>
      <point x="948" y="1080"/>
      <point x="982" y="1214"/>
      <point x="1104" y="1313" type="curve" smooth="yes"/>
      <point x="1194" y="1383"/>
      <point x="1303" y="1379"/>
      <point x="1354" y="1294" type="curve" smooth="yes"/>
      <point x="1407" y="1208"/>
      <point x="1349" y="1082"/>
    </contour>
    <contour>
      <point x="996" y="1386" type="curve" smooth="yes"/>
      <point x="961" y="1234"/>
      <point x="792" y="1170"/>
      <point x="762" y="970" type="curve"/>
      <point x="758" y="970" type="line"/>
      <point x="798" y="1210"/>
      <point x="680" y="1246"/>
      <point x="680" y="1396" type="curve" smooth="yes"/>
      <point x="680" y="1500"/>
      <point x="762" y="1584"/>
      <point x="862" y="1584" type="curve" smooth="yes"/>
      <point x="952" y="1584"/>
      <point x="1025" y="1516"/>
    </contour>
  </outline>
</glyph>
<glyph name="comma" format="2">
  <advance width="549"/>
  <unicode hex="002C"/>
  <outline>
    <contour>
      <point x="50" y="155" type="curve" smooth="yes"/>
      <point x="50" y="251"/>
      <point x="138" y="336"/>
      <point x="244" y="336" type="curve" smooth="yes"/>
      <point x="352" y="336"/>
      <point x="441" y="261"/>
      <point x="441" y="115" type="curve" smooth="yes"/>
      <point x="441" y="-133"/>
      <point x="171" y="-312"/>
      <point x="-69" y="-312" type="curve"/>
      <point x="-69" y="-308" type="line"/>
      <point x="157" y="-308"/>
      <point x="445" y="-134"/>
      <point x="435" y="132" type="curve"/>
      <point x="422" y="49"/>
      <point x="338" y="-20"/>
      <point x="229" y="-20" type="curve" smooth="yes"/>
      <point x="113" y="-20"/>
      <point x="50" y="62"/>
    </contour>
  </outline>
</glyph>
<glyph name="period" format="2">
  <advance width="519"/>
  <unicode hex="002E"/>
  <outline>
    <contour>
      <point x="50" y="160" type="curve" smooth="yes"/>
      <point x="50" y="259"/>
      <point x="130" y="340"/>
      <point x="229" y="340" type="curve" smooth="yes"/>
      <point x="328" y="340"/>
      <point x="410" y="259"/>
      <point x="410" y="160" type="curve" smooth="yes"/>
      <point x="410" y="61"/>
      <point x="328" y="-20"/>
      <point x="229" y="-20" type="curve" smooth="yes"/>
      <point x="130" y="-20"/>
      <point x="50" y="61"/>
    </contour>
  </outline>
</glyph>
<glyph name="zero" format="2">
  <advance width="2702"/>
  <unicode hex="0030"/>
  <outline>
    <contour>
      <point x="1892" y="3112" type="curve" smooth="yes"/>
      <point x="2457" y="3112"/>
      <point x="2798" y="2663"/>
      <point x="2798" y="2155" type="curve" smooth="yes"/>
      <point x="2798" y="971"/>
      <point x="2019" y="-40"/>
      <point x="1196" y="-40" type="curve" smooth="yes"/>
      <point x="631" y="-40"/>
      <point x="290" y="409"/>
      <point x="290" y="917" type="curve" smooth="yes"/>
      <point x="290" y="2101"/>
      <point x="1069" y="3112"/>
    </contour>
    <contour>
      <point x="1892" y="3104" type="curve" smooth="yes"/>
      <point x="1334" y="3104"/>
      <point x="897" y="1290"/>
      <point x="897" y="570" type="curve" smooth="yes"/>
      <point x="897" y="259"/>
      <point x="942" y="-32"/>
      <point x="1196" y="-32" type="curve" smooth="yes"/>
      <point x="1754" y="-32"/>
      <point x="2191" y="1822"/>
      <point x="2191" y="2502" type="curve" smooth="yes"/>
      <point x="2191" y="2813"/>
      <point x="2146" y="3104"/>
    </contour>
  </outline>
</glyph>
<glyph name="two" format="2">
  <advance width="1209"/>
  <unicode hex="0032"/>
  <outline>
    <contour>
      <point x="193" y="1070" type="curve"/>
      <point x="208" y="1146"/>
      <point x="279" y="1214"/>
      <point x="385" y="1214" type="curve" smooth="yes"/>
      <point x="476" y="1214"/>
      <point x="550" y="1150"/>
      <point x="550" y="1057" type="curve" smooth="yes"/>
      <point x="550" y="947"/>
      <point x="457" y="874"/>
      <point x="367" y="874" type="curve" smooth="yes"/>
      <point x="277" y="874"/>
      <point x="186" y="934"/>
      <point x="186" y="1058" type="curve" smooth="yes"/>
      <point x="186" y="1292"/>
      <point x="436" y="1520"/>
      <point x="750" y="1520" type="curve" smooth="yes"/>
      <point x="972" y="1520"/>
      <point x="1184" y="1430"/>
      <point x="1184" y="1210" type="curve" smooth="yes"/>
      <point x="1184" y="970"/>
      <point x="791" y="778"/>
      <point x="632" y="670" type="curve" smooth="yes"/>
      <point x="127" y="300" type="line"/>
      <point x="1012" y="300" type="line"/>
      <point x="1046" y="450" type="line"/>
      <point x="1050" y="450" type="line"/>
      <point x="948" y="0" type="line"/>
      <point x="-82" y="0" type="line"/>
      <point x="-34" y="200" type="line"/>
      <point x="504" y="582" type="line" smooth="yes"/>
      <point x="719" y="731"/>
      <point x="862" y="970"/>
      <point x="862" y="1168" type="curve" smooth="yes"/>
      <point x="862" y="1356"/>
      <point x="792" y="1481"/>
      <point x="626" y="1481" type="curve" smooth="yes"/>
      <point x="413" y="1481"/>
      <point x="197" y="1275"/>
    </contour>
  </outline>
</glyph>
<glyph name="three" format="2">
  <advance width="1151"/>
  <unicode hex="0033"/>
  <outline>
    <contour>
      <point x="285" y="1210" type="curve" smooth="yes"/>
      <point x="285" y="1374"/>
      <point x="478" y="1518"/>
      <point x="722" y="1518" type="curve" smooth="yes"/>
      <point x="944" y="1518"/>
      <point x="1172" y="1453"/>
      <point x="1172" y="1223" type="curve" smooth="yes"/>
      <point x="1172" y="993"/>
      <point x="928" y="811"/>
      <point x="466" y="811" type="curve"/>
      <point x="466" y="815" type="line"/>
      <point x="784" y="815"/>
      <point x="860" y="1124"/>
      <point x="860" y="1272" type="curve" smooth="yes"/>
      <point x="860" y="1430"/>
      <point x="810" y="1507"/>
      <point x="672" y="1507" type="curve" smooth="yes"/>
      <point x="514" y="1507"/>
      <point x="342" y="1407"/>
      <point x="305" y="1281" type="curve"/>
      <point x="324" y="1313"/>
      <point x="383" y="1358"/>
      <point x="459" y="1358" type="curve" smooth="yes"/>
      <point x="552" y="1358"/>
      <point x="613" y="1288"/>
      <point x="613" y="1198" type="curve" smooth="yes"/>
      <point x="613" y="1098"/>
      <point x="529" y="1036"/>
      <point x="449" y="1036" type="curve" smooth="yes"/>
      <point x="359" y="1036"/>
      <point x="285" y="1108"/>
    </contour>
    <contour>
      <point x="10" y="317" type="curve" smooth="yes"/>
      <point x="10" y="429"/>
      <point x="80" y="502"/>
      <point x="180" y="502" type="curve" smooth="yes"/>
      <point x="270" y="502"/>
      <point x="338" y="432"/>
      <point x="338" y="340" type="curve" smooth="yes"/>
      <point x="338" y="246"/>
      <point x="262" y="180"/>
      <point x="174" y="180" type="curve" smooth="yes"/>
      <point x="92" y="180"/>
      <point x="35" y="232"/>
      <point x="19" y="276" type="curve"/>
      <point x="34" y="134"/>
      <point x="182" y="-14"/>
      <point x="422" y="-14" type="curve" smooth="yes"/>
      <point x="660" y="-14"/>
      <point x="750" y="302"/>
      <point x="750" y="510" type="curve" smooth="yes"/>
      <point x="750" y="668"/>
      <point x="695" y="810"/>
      <point x="466" y="810" type="curve"/>
      <point x="466" y="814" type="line"/>
      <point x="888" y="814"/>
      <point x="1062" y="690"/>
      <point x="1062" y="460" type="curve" smooth="yes"/>
      <point x="1062" y="170"/>
      <point x="744" y="-20"/>
      <point x="442" y="-20" type="curve" smooth="yes"/>
      <point x="148" y="-20"/>
      <point x="10" y="163"/>
    </contour>
  </outline>
</glyph>
<glyph name="four" format="2">
  <advance width="1320"/>
  <unicode hex="0034"/>
  <outline>
    <contour>
      <point x="1110" y="4" type="line"/>
      <point x="1110" y="0" type="line"/>
      <point x="460" y="0" type="line"/>
      <point x="460" y="4" type="line"/>
    </contour>
    <contour>
      <point x="1301" y="1500" type="line"/>
      <point x="939" y="0" type="line"/>
      <point x="630" y="0" type="line"/>
      <point x="949" y="1393" type="line"/>
      <point x="99" y="432" type="line"/>
      <point x="1260" y="432" type="line"/>
      <point x="1260" y="428" type="line"/>
      <point x="90" y="428" type="line"/>
      <point x="1041" y="1500" type="line"/>
    </contour>
  </outline>
</glyph>
<glyph name="five" format="2">
  <advance width="2308"/>
  <unicode hex="0035"/>
  <outline>
    <contour>
      <point x="2163" y="1126" type="curve" smooth="yes"/>
      <point x="2163" y="430"/>
      <point x="1420" y="-40"/>
      <point x="802" y="-40" type="curve" smooth="yes"/>
      <point x="302" y="-40"/>
      <point x="0" y="254"/>
      <point x="0" y="590" type="curve" smooth="yes"/>
      <point x="0" y="799"/>
      <point x="152" y="946"/>
      <point x="336" y="946" type="curve" smooth="yes"/>
      <point x="500" y="946"/>
      <point x="672" y="819"/>
      <point x="672" y="614" type="curve" smooth="yes"/>
      <point x="672" y="409"/>
      <point x="516" y="287"/>
      <point x="336" y="287" type="curve" smooth="yes"/>
      <point x="168" y="287"/>
      <point x="40" y="408"/>
      <point x="16" y="496" type="curve"/>
      <point x="65" y="208"/>
      <point x="356" y="-26"/>
      <point x="762" y="-26" type="curve" smooth="yes"/>
      <point x="1290" y="-26"/>
      <point x="1508" y="762"/>
      <point x="1508" y="1228" type="curve" smooth="yes"/>
      <point x="1508" y="1572"/>
      <point x="1380" y="1838"/>
      <point x="1118" y="1838" type="curve" smooth="yes"/>
      <point x="813" y="1838"/>
      <point x="500" y="1692"/>
      <point x="360" y="1482" type="curve"/>
      <point x="352" y="1482" type="line"/>
      <point x="500" y="1716"/>
      <point x="856" y="1864"/>
      <point x="1228" y="1864" type="curve" smooth="yes"/>
      <point x="1765" y="1864"/>
      <point x="2163" y="1658"/>
    </contour>
    <contour>
      <point x="2347" y="2458" type="line"/>
      <point x="692" y="2458" type="line"/>
      <point x="356" y="1482" type="line"/>
      <point x="348" y="1482" type="line"/>
      <point x="888" y="3072" type="line"/>
      <point x="2474" y="3072" type="line"/>
      <point x="2526" y="3298" type="line"/>
      <point x="2534" y="3298" type="line"/>
    </contour>
  </outline>
</glyph>
<glyph name="six" format="2">
  <advance width="2497"/>
  <unicode hex="0036"/>
  <outline>
    <contour>
      <point x="1761" y="1412" type="curve" smooth="yes"/>
      <point x="1761" y="1736"/>
      <point x="1700" y="1936"/>
      <point x="1530" y="1936" type="curve" smooth="yes"/>
      <point x="989" y="1936"/>
      <point x="825" y="938"/>
      <point x="825" y="512" type="curve"/>
      <point x="817" y="512" type="line"/>
      <point x="817" y="930"/>
      <point x="970" y="2018"/>
      <point x="1652" y="2018" type="curve" smooth="yes"/>
      <point x="2025" y="2018"/>
      <point x="2416" y="1802"/>
      <point x="2416" y="1228" type="curve" smooth="yes"/>
      <point x="2416" y="532"/>
      <point x="1741" y="-40"/>
      <point x="1082" y="-40" type="curve" smooth="yes"/>
      <point x="586" y="-40"/>
      <point x="204" y="246"/>
      <point x="204" y="902" type="curve" smooth="yes"/>
      <point x="204" y="1856"/>
      <point x="1237" y="3112"/>
      <point x="2519" y="3112" type="curve"/>
      <point x="2519" y="3104" type="line"/>
      <point x="1417" y="3104"/>
      <point x="827" y="1688"/>
      <point x="827" y="594" type="curve"/>
      <point x="825" y="512" type="line"/>
      <point x="825" y="229"/>
      <point x="908" y="-32"/>
      <point x="1102" y="-32" type="curve" smooth="yes"/>
      <point x="1468" y="-32"/>
      <point x="1761" y="945"/>
    </contour>
  </outline>
</glyph>
<glyph name="seven" format="1">
  <advance width="2279"/>
  <unicode hex="0037"/>
  <outline>
    <contour>
      <point x="582" y="352" type="curve" smooth="yes"/>
      <point x="582" y="717"/>
      <point x="1114" y="1134"/>
      <point x="1470" y="1560" type="curve" smooth="yes"/>
      <point x="1699" y="1830"/>
      <point x="1914" y="2118"/>
      <point x="2170" y="2436" type="curve"/>
      <point x="546" y="2436" type="line"/>
      <point x="478" y="2130" type="line"/>
      <point x="468" y="2130" type="line"/>
      <point x="678" y="3072" type="line"/>
      <point x="2689" y="3072" type="line"/>
      <point x="2689" y="3072"/>
      <point x="1973" y="2146"/>
      <point x="1555" y="1636" type="curve" smooth="yes"/>
      <point x="1263" y="1276"/>
      <point x="1042" y="1052"/>
      <point x="1042" y="868" type="curve" smooth="yes"/>
      <point x="1042" y="671"/>
      <point x="1339" y="625"/>
      <point x="1339" y="340" type="curve" smooth="yes"/>
      <point x="1339" y="127"/>
      <point x="1186" y="-40"/>
      <point x="944" y="-40" type="curve" smooth="yes"/>
      <point x="743" y="-40"/>
      <point x="582" y="90"/>
    </contour>
  </outline>
</glyph>
<glyph name="eight" format="2">
  <advance width="1219"/>
  <unicode hex="0038"/>
  <outline>
    <contour>
      <point x="550" y="979" type="curve" smooth="yes"/>
      <point x="550" y="881"/>
      <point x="567" y="767"/>
      <point x="657" y="767" type="curve" smooth="yes"/>
      <point x="805" y="767"/>
      <point x="910" y="1072"/>
      <point x="910" y="1280" type="curve" smooth="yes"/>
      <point x="910" y="1368"/>
      <point x="893" y="1516"/>
      <point x="798" y="1516" type="curve" smooth="yes"/>
      <point x="670" y="1516"/>
      <point x="550" y="1187"/>
    </contour>
    <contour>
      <point x="240" y="1050" type="curve" smooth="yes"/>
      <point x="240" y="1290"/>
      <point x="488" y="1520"/>
      <point x="800" y="1520" type="curve" smooth="yes"/>
      <point x="1072" y="1520"/>
      <point x="1220" y="1350"/>
      <point x="1220" y="1190" type="curve" smooth="yes"/>
      <point x="1220" y="940"/>
      <point x="942" y="763"/>
      <point x="660" y="763" type="curve" smooth="yes"/>
      <point x="418" y="763"/>
      <point x="240" y="890"/>
    </contour>
    <contour>
      <point x="360" y="240" type="curve" smooth="yes"/>
      <point x="360" y="102"/>
      <point x="402" y="-16"/>
      <point x="510" y="-16" type="curve" smooth="yes"/>
      <point x="678" y="-16"/>
      <point x="790" y="313"/>
      <point x="790" y="521" type="curve" smooth="yes"/>
      <point x="790" y="659"/>
      <point x="748" y="763"/>
      <point x="640" y="763" type="curve" smooth="yes"/>
      <point x="472" y="763"/>
      <point x="360" y="448"/>
    </contour>
    <contour>
      <point x="60" y="300" type="curve" smooth="yes"/>
      <point x="60" y="540"/>
      <point x="248" y="767"/>
      <point x="620" y="767" type="curve" smooth="yes"/>
      <point x="932" y="767"/>
      <point x="1100" y="660"/>
      <point x="1100" y="460" type="curve" smooth="yes"/>
      <point x="1100" y="220"/>
      <point x="912" y="-20"/>
      <point x="540" y="-20" type="curve" smooth="yes"/>
      <point x="228" y="-20"/>
      <point x="60" y="100"/>
    </contour>
  </outline>
</glyph>
<glyph name="at" format="2">
  <advance width="2019"/>
  <unicode hex="0040"/>
  <outline>
    <contour>
      <point x="1157" y="715" type="curve" smooth="yes"/>
      <point x="1157" y="411"/>
      <point x="1018" y="140"/>
      <point x="788" y="140" type="curve" smooth="yes"/>
      <point x="620" y="140"/>
      <point x="488" y="252"/>
      <point x="488" y="460" type="curve" smooth="yes"/>
      <point x="488" y="760"/>
      <point x="707" y="1058"/>
      <point x="945" y="1058" type="curve" smooth="yes"/>
      <point x="1127" y="1058"/>
      <point x="1157" y="879"/>
    </contour>
    <contour>
      <point x="1151" y="692" type="curve" smooth="yes"/>
      <point x="1151" y="776"/>
      <point x="1149" y="987"/>
      <point x="1041" y="987" type="curve" smooth="yes"/>
      <point x="934" y="987"/>
      <point x="810" y="708"/>
      <point x="810" y="460" type="curve" smooth="yes"/>
      <point x="810" y="326"/>
      <point x="840" y="212"/>
      <point x="908" y="212" type="curve" smooth="yes"/>
      <point x="1028" y="212"/>
      <point x="1151" y="446"/>
    </contour>
    <contour>
      <point x="1110" y="420" type="curve" smooth="yes"/>
      <point x="1254" y="1040" type="line"/>
      <point x="1554" y="1040" type="line"/>
      <point x="1406" y="405" type="line" smooth="yes"/>
      <point x="1392" y="343"/>
      <point x="1331" y="166"/>
      <point x="1455" y="166" type="curve" smooth="yes"/>
      <point x="1696" y="166"/>
      <point x="1906" y="456"/>
      <point x="1906" y="802" type="curve" smooth="yes"/>
      <point x="1906" y="1164"/>
      <point x="1674" y="1576"/>
      <point x="1170" y="1576" type="curve" smooth="yes"/>
      <point x="590" y="1576"/>
      <point x="114" y="1046"/>
      <point x="114" y="422" type="curve" smooth="yes"/>
      <point x="114" y="-204"/>
      <point x="476" y="-424"/>
      <point x="838" y="-424" type="curve" smooth="yes"/>
      <point x="1162" y="-424"/>
      <point x="1400" y="-320"/>
      <point x="1566" y="-126" type="curve"/>
      <point x="1570" y="-128" type="line"/>
      <point x="1402" y="-324"/>
      <point x="1164" y="-428"/>
      <point x="838" y="-428" type="curve" smooth="yes"/>
      <point x="472" y="-428"/>
      <point x="110" y="-208"/>
      <point x="110" y="422" type="curve" smooth="yes"/>
      <point x="110" y="1048"/>
      <point x="584" y="1580"/>
      <point x="1170" y="1580" type="curve" smooth="yes"/>
      <point x="1676" y="1580"/>
      <point x="1910" y="1168"/>
      <point x="1910" y="802" type="curve" smooth="yes"/>
      <point x="1910" y="472"/>
      <point x="1724" y="136"/>
      <point x="1352" y="136" type="curve" smooth="yes"/>
      <point x="1114" y="136"/>
      <point x="1082" y="296"/>
    </contour>
  </outline>
</glyph>
<glyph name="A" format="1">
  <advance width="3163"/>
  <unicode hex="0041"/>
  <outline>
    <contour>
      <point x="-194" y="8" type="line"/>
      <point x="706" y="8" type="line"/>
      <point x="706" y="0" type="line"/>
      <point x="-194" y="0" type="line"/>
    </contour>
    <contour>
      <point x="1444" y="8" type="line"/>
      <point x="2877" y="8" type="line"/>
      <point x="2877" y="0" type="line"/>
      <point x="1444" y="0" type="line"/>
    </contour>
    <contour>
      <point x="770" y="1008" type="line"/>
      <point x="2100" y="1008" type="line"/>
      <point x="2100" y="1000" type="line"/>
      <point x="770" y="1000" type="line"/>
    </contour>
    <contour>
      <point x="1655" y="2527" type="line"/>
      <point x="194" y="0" type="line"/>
      <point x="186" y="0" type="line"/>
      <point x="1992" y="3134" type="line"/>
      <point x="2202" y="3134" type="line"/>
      <point x="2590" y="0" type="line"/>
      <point x="1915" y="0" type="line"/>
    </contour>
  </outline>
</glyph>
<glyph name="B" format="1">
  <advance width="2795"/>
  <unicode hex="0042"/>
  <outline>
    <contour>
      <point x="1198" y="0" type="curve" smooth="yes"/>
      <point x="-194" y="0" type="line"/>
      <point x="-194" y="8" type="line"/>
      <point x="1198" y="8" type="line" smooth="yes"/>
      <point x="1592" y="8"/>
      <point x="1894" y="495"/>
      <point x="1894" y="1064" type="curve" smooth="yes"/>
      <point x="1894" y="1428"/>
      <point x="1738" y="1572"/>
      <point x="1468" y="1572" type="curve" smooth="yes"/>
      <point x="993" y="1572" type="line"/>
      <point x="993" y="1582" type="line"/>
      <point x="1550" y="1582" type="line" smooth="yes"/>
      <point x="2128" y="1582"/>
      <point x="2591" y="1413"/>
      <point x="2591" y="942" type="curve" smooth="yes"/>
      <point x="2591" y="328"/>
      <point x="1918" y="0"/>
    </contour>
    <contour>
      <point x="892" y="3072" type="line"/>
      <point x="1526" y="3072" type="line"/>
      <point x="809" y="0" type="line"/>
      <point x="174" y="0" type="line"/>
    </contour>
    <contour>
      <point x="1484" y="1572" type="curve" smooth="yes"/>
      <point x="993" y="1572" type="line"/>
      <point x="993" y="1582" type="line"/>
      <point x="1484" y="1582" type="line" smooth="yes"/>
      <point x="1796" y="1582"/>
      <point x="2160" y="1991"/>
      <point x="2160" y="2560" type="curve" smooth="yes"/>
      <point x="2160" y="2822"/>
      <point x="2052" y="3064"/>
      <point x="1782" y="3064" type="curve" smooth="yes"/>
      <point x="522" y="3064" type="line"/>
      <point x="522" y="3072" type="line"/>
      <point x="1792" y="3072" type="line" smooth="yes"/>
      <point x="2492" y="3072"/>
      <point x="2816" y="2888"/>
      <point x="2816" y="2437" type="curve" smooth="yes"/>
      <point x="2816" y="1905"/>
      <point x="2144" y="1572"/>
    </contour>
  </outline>
</glyph>
<glyph name="C" format="2">
  <advance width="1390"/>
  <unicode hex="0043"/>
  <outline>
    <contour>
      <point x="665" y="-20" type="curve" smooth="yes"/>
      <point x="329" y="-20"/>
      <point x="105" y="184"/>
      <point x="105" y="510" type="curve" smooth="yes"/>
      <point x="105" y="1056"/>
      <point x="509" y="1520"/>
      <point x="995" y="1520" type="curve" smooth="yes"/>
      <point x="1251" y="1520"/>
      <point x="1410" y="1346"/>
      <point x="1420" y="1060" type="curve"/>
      <point x="1416" y="1060" type="line"/>
      <point x="1401" y="1373"/>
      <point x="1221" y="1506"/>
      <point x="1045" y="1506" type="curve" smooth="yes"/>
      <point x="647" y="1506"/>
      <point x="435" y="784"/>
      <point x="435" y="370" type="curve" smooth="yes"/>
      <point x="435" y="176"/>
      <point x="495" y="-8"/>
      <point x="703" y="-8" type="curve" smooth="yes"/>
      <point x="941" y="-8"/>
      <point x="1161" y="184"/>
      <point x="1291" y="440" type="curve"/>
      <point x="1295" y="440" type="line"/>
      <point x="1175" y="194"/>
      <point x="951" y="-20"/>
    </contour>
    <contour>
      <point x="1416" y="1060" type="line"/>
      <point x="1412" y="1118" type="line"/>
      <point x="1396" y="1222"/>
      <point x="1374" y="1298"/>
      <point x="1324" y="1362" type="curve"/>
      <point x="1517" y="1500" type="line"/>
      <point x="1521" y="1500" type="line"/>
      <point x="1420" y="1060" type="line"/>
    </contour>
    <contour>
      <point x="1291" y="440" type="line"/>
      <point x="1295" y="440" type="line"/>
      <point x="1185" y="0" type="line"/>
      <point x="1181" y="0" type="line"/>
      <point x="1057" y="133" type="line"/>
      <point x="1123" y="192"/>
      <point x="1189" y="260"/>
      <point x="1256" y="372" type="curve"/>
    </contour>
  </outline>
</glyph>
<glyph name="E" format="2">
  <advance width="1232"/>
  <unicode hex="0045"/>
  <outline>
    <contour>
      <point x="243" y="1500" type="line"/>
      <point x="1383" y="1500" type="line"/>
      <point x="1287" y="1090" type="line"/>
      <point x="1283" y="1090" type="line"/>
      <point x="1303" y="1304"/>
      <point x="1197" y="1496"/>
      <point x="963" y="1496" type="curve" smooth="yes"/>
      <point x="243" y="1496" type="line"/>
    </contour>
    <contour>
      <point x="423" y="1500" type="line"/>
      <point x="733" y="1500" type="line"/>
      <point x="385" y="0" type="line"/>
      <point x="75" y="0" type="line"/>
    </contour>
    <contour>
      <point x="641" y="774" type="curve" smooth="yes"/>
      <point x="509" y="774" type="line"/>
      <point x="509" y="778" type="line"/>
      <point x="641" y="778" type="line" smooth="yes"/>
      <point x="755" y="778"/>
      <point x="896" y="882"/>
      <point x="956" y="1016" type="curve"/>
      <point x="960" y="1016" type="line"/>
      <point x="847" y="526" type="line"/>
      <point x="843" y="526" type="line"/>
      <point x="843" y="660"/>
      <point x="755" y="774"/>
    </contour>
    <contour>
      <point x="1055" y="0" type="line"/>
      <point x="-95" y="0" type="line"/>
      <point x="-95" y="4" type="line"/>
      <point x="615" y="4" type="line" smooth="yes"/>
      <point x="889" y="4"/>
      <point x="1067" y="196"/>
      <point x="1155" y="450" type="curve"/>
      <point x="1159" y="450" type="line"/>
    </contour>
  </outline>
</glyph>
<glyph name="F" format="2">
  <advance width="1182"/>
  <unicode hex="0046"/>
  <outline>
    <contour>
      <point x="604" y="744" type="curve" smooth="yes"/>
      <point x="513" y="744" type="line"/>
      <point x="513" y="748" type="line"/>
      <point x="604" y="748" type="line" smooth="yes"/>
      <point x="756" y="748"/>
      <point x="893" y="852"/>
      <point x="949" y="986" type="curve"/>
      <point x="953" y="986" type="line"/>
      <point x="840" y="496" type="line"/>
      <point x="836" y="496" type="line"/>
      <point x="836" y="630"/>
      <point x="758" y="744"/>
    </contour>
    <contour>
      <point x="-95" y="4" type="line"/>
      <point x="585" y="4" type="line"/>
      <point x="585" y="0" type="line"/>
      <point x="-95" y="0" type="line"/>
    </contour>
    <contour>
      <point x="423" y="1500" type="line"/>
      <point x="733" y="1500" type="line"/>
      <point x="385" y="0" type="line"/>
      <point x="75" y="0" type="line"/>
    </contour>
    <contour>
      <point x="243" y="1500" type="line"/>
      <point x="1354" y="1500" type="line"/>
      <point x="1257" y="1090" type="line"/>
      <point x="1253" y="1090" type="line"/>
      <point x="1273" y="1304"/>
      <point x="1177" y="1496"/>
      <point x="943" y="1496" type="curve" smooth="yes"/>
      <point x="243" y="1496" type="line"/>
    </contour>
  </outline>
</glyph>
<glyph name="G" format="2">
  <advance width="1560"/>
  <unicode hex="0047"/>
  <outline>
    <contour>
      <point x="1073" y="569" type="line"/>
      <point x="1401" y="569" type="line"/>
      <point x="1339" y="330" type="line"/>
      <point x="1249" y="204"/>
      <point x="991" y="-20"/>
      <point x="665" y="-20" type="curve" smooth="yes"/>
      <point x="339" y="-20"/>
      <point x="105" y="164"/>
      <point x="105" y="510" type="curve" smooth="yes"/>
      <point x="105" y="1076"/>
      <point x="549" y="1520"/>
      <point x="1025" y="1520" type="curve" smooth="yes"/>
      <point x="1281" y="1520"/>
      <point x="1455" y="1346"/>
      <point x="1459" y="1060" type="curve"/>
      <point x="1455" y="1060" type="line"/>
      <point x="1450" y="1346"/>
      <point x="1277" y="1504"/>
      <point x="1075" y="1504" type="curve" smooth="yes"/>
      <point x="667" y="1504"/>
      <point x="435" y="824"/>
      <point x="435" y="390" type="curve" smooth="yes"/>
      <point x="435" y="186"/>
      <point x="483" y="-16"/>
      <point x="661" y="-16" type="curve" smooth="yes"/>
      <point x="839" y="-16"/>
      <point x="939" y="166"/>
      <point x="989" y="250" type="curve"/>
    </contour>
    <contour>
      <point x="875" y="572" type="line"/>
      <point x="1515" y="572" type="line"/>
      <point x="1515" y="568" type="line"/>
      <point x="875" y="568" type="line"/>
    </contour>
    <contour>
      <point x="1557" y="1500" type="line"/>
      <point x="1561" y="1500" type="line"/>
      <point x="1459" y="1060" type="line"/>
      <point x="1457" y="1060" type="line"/>
      <point x="1453" y="1116" type="line"/>
      <point x="1446" y="1197"/>
      <point x="1412" y="1302"/>
      <point x="1352" y="1374" type="curve"/>
    </contour>
  </outline>
</glyph>
<glyph name="H" format="2">
  <advance width="1554"/>
  <unicode hex="0048"/>
  <outline>
    <contour>
      <point x="765" y="4" type="line"/>
      <point x="1415" y="4" type="line"/>
      <point x="1415" y="0" type="line"/>
      <point x="765" y="0" type="line"/>
    </contour>
    <contour>
      <point x="1095" y="1500" type="line"/>
      <point x="1745" y="1500" type="line"/>
      <point x="1745" y="1496" type="line"/>
      <point x="1095" y="1496" type="line"/>
    </contour>
    <contour>
      <point x="1265" y="1500" type="line"/>
      <point x="1575" y="1500" type="line"/>
      <point x="1235" y="0" type="line"/>
      <point x="925" y="0" type="line"/>
    </contour>
    <contour>
      <point x="-85" y="4" type="line"/>
      <point x="565" y="4" type="line"/>
      <point x="565" y="0" type="line"/>
      <point x="-85" y="0" type="line"/>
    </contour>
    <contour>
      <point x="245" y="1500" type="line"/>
      <point x="895" y="1500" type="line"/>
      <point x="895" y="1496" type="line"/>
      <point x="245" y="1496" type="line"/>
    </contour>
    <contour>
      <point x="425" y="1500" type="line"/>
      <point x="735" y="1500" type="line"/>
      <point x="395" y="0" type="line"/>
      <point x="85" y="0" type="line"/>
    </contour>
    <contour>
      <point x="439" y="742" type="line"/>
      <point x="1159" y="742" type="line"/>
      <point x="1159" y="738" type="line"/>
      <point x="439" y="738" type="line"/>
    </contour>
  </outline>
</glyph>
<glyph name="J" format="2">
  <advance width="1046"/>
  <unicode hex="004A"/>
  <outline>
    <contour>
      <point x="457" y="1500" type="line"/>
      <point x="1237" y="1500" type="line"/>
      <point x="1237" y="1496" type="line"/>
      <point x="457" y="1496" type="line"/>
    </contour>
    <contour>
      <point x="-55" y="169" type="curve"/>
      <point x="-40" y="61"/>
      <point x="70" y="-52"/>
      <point x="217" y="-52" type="curve" smooth="yes"/>
      <point x="339" y="-52"/>
      <point x="409" y="100"/>
      <point x="473" y="380" type="curve" smooth="yes"/>
      <point x="727" y="1500" type="line"/>
      <point x="1037" y="1500" type="line"/>
      <point x="775" y="338" type="line"/>
      <point x="645" y="148"/>
      <point x="489" y="-60"/>
      <point x="247" y="-60" type="curve" smooth="yes"/>
      <point x="53" y="-60"/>
      <point x="-64" y="70"/>
      <point x="-64" y="210" type="curve" smooth="yes"/>
      <point x="-64" y="314"/>
      <point x="9" y="400"/>
      <point x="119" y="400" type="curve" smooth="yes"/>
      <point x="209" y="400"/>
      <point x="291" y="334"/>
      <point x="291" y="222" type="curve" smooth="yes"/>
      <point x="291" y="115"/>
      <point x="205" y="46"/>
      <point x="115" y="46" type="curve" smooth="yes"/>
      <point x="39" y="46"/>
      <point x="-37" y="101"/>
    </contour>
  </outline>
</glyph>
<glyph name="K" format="2">
  <advance width="1518"/>
  <unicode hex="004B"/>
  <outline>
    <contour>
      <point x="-85" y="4" type="line"/>
      <point x="565" y="4" type="line"/>
      <point x="565" y="0" type="line"/>
      <point x="-85" y="0" type="line"/>
    </contour>
    <contour>
      <point x="245" y="1500" type="line"/>
      <point x="915" y="1500" type="line"/>
      <point x="915" y="1496" type="line"/>
      <point x="245" y="1496" type="line"/>
    </contour>
    <contour>
      <point x="425" y="1500" type="line"/>
      <point x="735" y="1500" type="line"/>
      <point x="395" y="0" type="line"/>
      <point x="85" y="0" type="line"/>
    </contour>
    <contour>
      <point x="302" y="434" type="line"/>
      <point x="295" y="434" type="line"/>
      <point x="1426" y="1498" type="line"/>
      <point x="1434" y="1498" type="line"/>
    </contour>
    <contour>
      <point x="679" y="4" type="line"/>
      <point x="1395" y="4" type="line"/>
      <point x="1395" y="0" type="line"/>
      <point x="679" y="0" type="line"/>
    </contour>
    <contour>
      <point x="1639" y="1496" type="line"/>
      <point x="1159" y="1496" type="line"/>
      <point x="1159" y="1500" type="line"/>
      <point x="1639" y="1500" type="line"/>
    </contour>
    <contour>
      <point x="1229" y="0" type="line"/>
      <point x="886" y="0" type="line"/>
      <point x="635" y="753" type="line"/>
      <point x="891" y="981" type="line"/>
    </contour>
  </outline>
</glyph>
<glyph name="L" format="1">
  <advance width="2485"/>
  <unicode hex="004C"/>
  <outline>
    <contour>
      <point x="866" y="3072" type="line"/>
      <point x="1502" y="3072" type="line"/>
      <point x="788" y="0" type="line"/>
      <point x="154" y="0" type="line"/>
    </contour>
    <contour>
      <point x="498" y="3072" type="line"/>
      <point x="1870" y="3072" type="line"/>
      <point x="1870" y="3064" type="line"/>
      <point x="498" y="3064" type="line"/>
    </contour>
    <contour>
      <point x="2150" y="0" type="line"/>
      <point x="-194" y="0" type="line"/>
      <point x="-194" y="8" type="line"/>
      <point x="1208" y="8" type="line" smooth="yes"/>
      <point x="1852" y="8"/>
      <point x="2175" y="402"/>
      <point x="2355" y="922" type="curve"/>
      <point x="2364" y="922" type="line"/>
    </contour>
  </outline>
</glyph>
<glyph name="M" format="2">
  <advance width="1784"/>
  <unicode hex="004D"/>
  <outline>
    <contour>
      <point x="1035" y="4" type="line"/>
      <point x="1645" y="4" type="line"/>
      <point x="1645" y="0" type="line"/>
      <point x="1035" y="0" type="line"/>
    </contour>
    <contour>
      <point x="1801" y="1496" type="line"/>
      <point x="1485" y="0" type="line"/>
      <point x="1175" y="0" type="line"/>
      <point x="1495" y="1500" type="line"/>
      <point x="1925" y="1500" type="line"/>
      <point x="1925" y="1496" type="line"/>
    </contour>
    <contour>
      <point x="889" y="424" type="line"/>
      <point x="1493" y="1500" type="line"/>
      <point x="1497" y="1500" type="line"/>
      <point x="645" y="-20" type="line"/>
      <point x="637" y="-20" type="line"/>
      <point x="401" y="1500" type="line"/>
      <point x="713" y="1500" type="line"/>
    </contour>
    <contour>
      <point x="399" y="1496" type="line"/>
      <point x="245" y="1496" type="line"/>
      <point x="245" y="1500" type="line"/>
      <point x="404" y="1500" type="line"/>
      <point x="86" y="0" type="line"/>
      <point x="82" y="0" type="line"/>
    </contour>
    <contour>
      <point x="-55" y="4" type="line"/>
      <point x="259" y="4" type="line"/>
      <point x="259" y="0" type="line"/>
      <point x="-55" y="0" type="line"/>
    </contour>
  </outline>
</glyph>
<glyph name="N" format="2">
  <advance width="1484"/>
  <unicode hex="004E"/>
  <outline>
    <contour>
      <point x="1461" y="1500" type="line"/>
      <point x="1465" y="1500" type="line"/>
      <point x="1119" y="-20" type="line"/>
      <point x="1102" y="-20" type="line"/>
      <point x="445" y="1500" type="line"/>
      <point x="815" y="1500" type="line"/>
      <point x="1237" y="516" type="line"/>
    </contour>
    <contour>
      <point x="1221" y="1500" type="line"/>
      <point x="1675" y="1500" type="line"/>
      <point x="1675" y="1496" type="line"/>
      <point x="1221" y="1496" type="line"/>
    </contour>
    <contour>
      <point x="-75" y="4" type="line"/>
      <point x="359" y="4" type="line"/>
      <point x="359" y="0" type="line"/>
      <point x="-75" y="0" type="line"/>
    </contour>
    <contour>
      <point x="445" y="1496" type="line"/>
      <point x="245" y="1496" type="line"/>
      <point x="245" y="1500" type="line"/>
      <point x="450" y="1500" type="line"/>
      <point x="117" y="0" type="line"/>
      <point x="113" y="0" type="line"/>
    </contour>
  </outline>
</glyph>
<glyph name="P" format="2">
  <advance width="2744"/>
  <unicode hex="0050"/>
  <outline>
    <contour>
      <point x="870" y="3072" type="line"/>
      <point x="1506" y="3072" type="line"/>
      <point x="788" y="0" type="line"/>
      <point x="154" y="0" type="line"/>
    </contour>
    <contour>
      <point x="-174" y="8" type="line"/>
      <point x="1198" y="8" type="line"/>
      <point x="1198" y="0" type="line"/>
      <point x="-174" y="0" type="line"/>
    </contour>
    <contour>
      <point x="1506" y="1388" type="curve" smooth="yes"/>
      <point x="1055" y="1388" type="line"/>
      <point x="1055" y="1396" type="line"/>
      <point x="1403" y="1396" type="line" smooth="yes"/>
      <point x="1919" y="1396"/>
      <point x="2175" y="2052"/>
      <point x="2175" y="2498" type="curve" smooth="yes"/>
      <point x="2175" y="2740"/>
      <point x="2104" y="3064"/>
      <point x="1813" y="3064" type="curve" smooth="yes"/>
      <point x="502" y="3064" type="line"/>
      <point x="502" y="3072" type="line"/>
      <point x="1915" y="3072" type="line" smooth="yes"/>
      <point x="2451" y="3072"/>
      <point x="2866" y="2888"/>
      <point x="2866" y="2396" type="curve" smooth="yes"/>
      <point x="2866" y="1782"/>
      <point x="2330" y="1388"/>
    </contour>
  </outline>
</glyph>
<glyph name="Q" format="2">
  <advance width="1474"/>
  <unicode hex="0051"/>
  <outline>
    <contour>
      <point x="955" y="-496" type="curve"/>
      <point x="955" y="-500" type="line"/>
      <point x="509" y="-500"/>
      <point x="365" y="-337"/>
      <point x="465" y="9" type="curve"/>
      <point x="576" y="-27"/>
      <point x="698" y="-26"/>
      <point x="815" y="9" type="curve"/>
      <point x="715" y="-355"/>
      <point x="777" y="-496"/>
    </contour>
    <contour>
      <point x="975" y="1516" type="curve" smooth="yes"/>
      <point x="667" y="1516"/>
      <point x="425" y="794"/>
      <point x="425" y="330" type="curve" smooth="yes"/>
      <point x="425" y="126"/>
      <point x="477" y="-16"/>
      <point x="635" y="-16" type="curve" smooth="yes"/>
      <point x="963" y="-16"/>
      <point x="1185" y="706"/>
      <point x="1185" y="1170" type="curve" smooth="yes"/>
      <point x="1185" y="1334"/>
      <point x="1133" y="1516"/>
    </contour>
    <contour>
      <point x="635" y="-20" type="curve" smooth="yes"/>
      <point x="299" y="-20"/>
      <point x="105" y="184"/>
      <point x="105" y="510" type="curve" smooth="yes"/>
      <point x="105" y="1096"/>
      <point x="549" y="1520"/>
      <point x="975" y="1520" type="curve" smooth="yes"/>
      <point x="1291" y="1520"/>
      <point x="1505" y="1316"/>
      <point x="1505" y="990" type="curve" smooth="yes"/>
      <point x="1505" y="404"/>
      <point x="1081" y="-20"/>
    </contour>
  </outline>
</glyph>
<glyph name="R" format="1">
  <advance width="3143"/>
  <unicode hex="0052"/>
  <outline>
    <contour>
      <point x="2836" y="50" type="line"/>
      <point x="2688" y="-8"/>
      <point x="2554" y="-30"/>
      <point x="2366" y="-30" type="curve" smooth="yes"/>
      <point x="1228" y="-30"/>
      <point x="2452" y="1572"/>
      <point x="1444" y="1572" type="curve" smooth="yes"/>
      <point x="1116" y="1572" type="line"/>
      <point x="1116" y="1582" type="line"/>
      <point x="1628" y="1582" type="line" smooth="yes"/>
      <point x="3135" y="1582"/>
      <point x="2163" y="8"/>
      <point x="2626" y="8" type="curve" smooth="yes"/>
      <point x="2692" y="8"/>
      <point x="2762" y="30"/>
      <point x="2832" y="56" type="curve"/>
    </contour>
    <contour>
      <point x="952" y="3072" type="line"/>
      <point x="1588" y="3072" type="line"/>
      <point x="870" y="0" type="line"/>
      <point x="236" y="0" type="line"/>
    </contour>
    <contour>
      <point x="-154" y="8" type="line"/>
      <point x="1321" y="8" type="line"/>
      <point x="1321" y="0" type="line"/>
      <point x="-154" y="0" type="line"/>
    </contour>
    <contour>
      <point x="1628" y="1572" type="curve" smooth="yes"/>
      <point x="1116" y="1572" type="line"/>
      <point x="1116" y="1582" type="line"/>
      <point x="1526" y="1582" type="line" smooth="yes"/>
      <point x="2104" y="1582"/>
      <point x="2314" y="2195"/>
      <point x="2314" y="2560" type="curve" smooth="yes"/>
      <point x="2314" y="2760"/>
      <point x="2255" y="3064"/>
      <point x="1894" y="3064" type="curve" smooth="yes"/>
      <point x="522" y="3064" type="line"/>
      <point x="522" y="3072" type="line"/>
      <point x="2038" y="3072" type="line" smooth="yes"/>
      <point x="2574" y="3072"/>
      <point x="2980" y="2908"/>
      <point x="2980" y="2458" type="curve" smooth="yes"/>
      <point x="2980" y="1884"/>
      <point x="2452" y="1572"/>
    </contour>
  </outline>
</glyph>
<glyph name="S" format="2">
  <advance width="1186"/>
  <unicode hex="0053"/>
  <outline>
    <contour>
      <point x="1147" y="1120" type="line"/>
      <point x="1124" y="1215"/>
      <point x="1103" y="1300"/>
      <point x="1032" y="1393" type="curve"/>
      <point x="1253" y="1520" type="line"/>
      <point x="1257" y="1520" type="line"/>
      <point x="1155" y="1070" type="line"/>
      <point x="1151" y="1070" type="line"/>
    </contour>
    <contour>
      <point x="1155" y="1070" type="curve"/>
      <point x="1151" y="1070" type="line"/>
      <point x="1120" y="1330"/>
      <point x="998" y="1513"/>
      <point x="755" y="1513" type="curve" smooth="yes"/>
      <point x="613" y="1513"/>
      <point x="471" y="1417"/>
      <point x="471" y="1260" type="curve" smooth="yes"/>
      <point x="471" y="920"/>
      <point x="1096" y="1010"/>
      <point x="1096" y="500" type="curve" smooth="yes"/>
      <point x="1096" y="220"/>
      <point x="833" y="-30"/>
      <point x="511" y="-30" type="curve" smooth="yes"/>
      <point x="199" y="-30"/>
      <point x="95" y="210"/>
      <point x="61" y="450" type="curve"/>
      <point x="64" y="450" type="line"/>
      <point x="94" y="226"/>
      <point x="198" y="-23"/>
      <point x="501" y="-23" type="curve" smooth="yes"/>
      <point x="703" y="-23"/>
      <point x="841" y="102"/>
      <point x="841" y="280" type="curve" smooth="yes"/>
      <point x="841" y="680"/>
      <point x="221" y="560"/>
      <point x="221" y="1030" type="curve" smooth="yes"/>
      <point x="221" y="1350"/>
      <point x="523" y="1520"/>
      <point x="745" y="1520" type="curve" smooth="yes"/>
      <point x="1001" y="1520"/>
      <point x="1125" y="1332"/>
    </contour>
    <contour>
      <point x="-41" y="-20" type="line"/>
      <point x="-45" y="-20" type="line"/>
      <point x="61" y="450" type="line"/>
      <point x="64" y="450" type="line"/>
      <point x="74" y="377" type="line"/>
      <point x="100" y="272"/>
      <point x="135" y="184"/>
      <point x="189" y="117" type="curve"/>
    </contour>
  </outline>
</glyph>
<glyph name="T" format="1">
  <advance width="2751"/>
  <unicode hex="0054"/>
  <outline>
    <contour>
      <point x="380" y="8" type="line"/>
      <point x="1918" y="8" type="line"/>
      <point x="1918" y="0" type="line"/>
      <point x="380" y="0" type="line"/>
    </contour>
    <contour>
      <point x="1524" y="3072" type="line"/>
      <point x="2159" y="3072" type="line"/>
      <point x="1446" y="0" type="line"/>
      <point x="812" y="0" type="line"/>
    </contour>
    <contour>
      <point x="2404" y="3064" type="curve" smooth="yes"/>
      <point x="1237" y="3064" type="line" smooth="yes"/>
      <point x="799" y="3064"/>
      <point x="486" y="2605"/>
      <point x="306" y="2089" type="curve"/>
      <point x="298" y="2089" type="line"/>
      <point x="520" y="3072" type="line"/>
      <point x="3162" y="3072" type="line"/>
      <point x="2938" y="2089" type="line"/>
      <point x="2930" y="2089" type="line"/>
      <point x="2987" y="2609"/>
      <point x="2842" y="3064"/>
    </contour>
  </outline>
</glyph>
<glyph name="U" format="2">
  <advance width="1420"/>
  <unicode hex="0055"/>
  <outline>
    <contour>
      <point x="1221" y="1500" type="line"/>
      <point x="1611" y="1500" type="line"/>
      <point x="1611" y="1496" type="line"/>
      <point x="1221" y="1496" type="line"/>
    </contour>
    <contour>
      <point x="241" y="1500" type="line"/>
      <point x="931" y="1500" type="line"/>
      <point x="931" y="1496" type="line"/>
      <point x="241" y="1496" type="line"/>
    </contour>
    <contour>
      <point x="1429" y="1500" type="line"/>
      <point x="1433" y="1500" type="line"/>
      <point x="1193" y="460" type="line" smooth="yes"/>
      <point x="1121" y="146"/>
      <point x="957" y="-30"/>
      <point x="641" y="-30" type="curve" smooth="yes"/>
      <point x="315" y="-30"/>
      <point x="115" y="132"/>
      <point x="191" y="460" type="curve" smooth="yes"/>
      <point x="431" y="1500" type="line"/>
      <point x="741" y="1500" type="line"/>
      <point x="501" y="480" type="line" smooth="yes"/>
      <point x="443" y="230"/>
      <point x="456" y="-10"/>
      <point x="704" y="-10" type="curve" smooth="yes"/>
      <point x="962" y="-10"/>
      <point x="1119" y="153"/>
      <point x="1189" y="460" type="curve" smooth="yes"/>
    </contour>
  </outline>
</glyph>
<glyph name="V" format="2">
  <advance width="1534"/>
  <unicode hex="0056"/>
  <outline>
    <contour>
      <point x="1735" y="1496" type="line"/>
      <point x="1295" y="1496" type="line"/>
      <point x="1295" y="1500" type="line"/>
      <point x="1735" y="1500" type="line"/>
    </contour>
    <contour>
      <point x="935" y="1496" type="line"/>
      <point x="235" y="1496" type="line"/>
      <point x="235" y="1500" type="line"/>
      <point x="935" y="1500" type="line"/>
    </contour>
    <contour>
      <point x="831" y="278" type="line"/>
      <point x="1540" y="1500" type="line"/>
      <point x="1545" y="1500" type="line"/>
      <point x="667" y="-15" type="line"/>
      <point x="565" y="-15" type="line"/>
      <point x="375" y="1500" type="line"/>
      <point x="705" y="1500" type="line"/>
    </contour>
  </outline>
</glyph>
<glyph name="W" format="1">
  <advance width="4486"/>
  <unicode hex="0057"/>
  <outline>
    <contour>
      <point x="1819" y="688" type="line"/>
      <point x="2489" y="1831" type="line"/>
      <point x="2497" y="1831" type="line"/>
      <point x="1399" y="-40" type="line"/>
      <point x="1220" y="-40" type="line"/>
      <point x="817" y="3072" type="line"/>
      <point x="1528" y="3072" type="line"/>
    </contour>
    <contour>
      <point x="2720" y="1708" type="line"/>
      <point x="2711" y="1708" type="line"/>
      <point x="3521" y="3072" type="line"/>
      <point x="3529" y="3072" type="line"/>
    </contour>
    <contour>
      <point x="4896" y="3064" type="line"/>
      <point x="4098" y="3064" type="line"/>
      <point x="4098" y="3072" type="line"/>
      <point x="4896" y="3072" type="line"/>
    </contour>
    <contour>
      <point x="3922" y="3064" type="line"/>
      <point x="482" y="3064" type="line"/>
      <point x="482" y="3072" type="line"/>
      <point x="3922" y="3072" type="line"/>
    </contour>
    <contour>
      <point x="3078" y="690" type="line"/>
      <point x="4489" y="3072" type="line"/>
      <point x="4497" y="3072" type="line"/>
      <point x="2652" y="-40" type="line"/>
      <point x="2535" y="-40" type="line"/>
      <point x="2132" y="3072" type="line"/>
      <point x="2777" y="3072" type="line"/>
    </contour>
  </outline>
</glyph>
<glyph name="X" format="2">
  <advance width="1554"/>
  <unicode hex="0058"/>
  <outline>
    <contour>
      <point x="844" y="754" type="line"/>
      <point x="837" y="754" type="line"/>
      <point x="1456" y="1496" type="line"/>
      <point x="1462" y="1496" type="line"/>
    </contour>
    <contour>
      <point x="115" y="0" type="line"/>
      <point x="109" y="0" type="line"/>
      <point x="828" y="834" type="line"/>
      <point x="834" y="834" type="line"/>
    </contour>
    <contour>
      <point x="755" y="4" type="line"/>
      <point x="1435" y="4" type="line"/>
      <point x="1435" y="0" type="line"/>
      <point x="755" y="0" type="line"/>
    </contour>
    <contour>
      <point x="-104" y="4" type="line"/>
      <point x="375" y="4" type="line"/>
      <point x="375" y="0" type="line"/>
      <point x="-104" y="0" type="line"/>
    </contour>
    <contour>
      <point x="985" y="1496" type="line"/>
      <point x="305" y="1496" type="line"/>
      <point x="305" y="1500" type="line"/>
      <point x="985" y="1500" type="line"/>
    </contour>
    <contour>
      <point x="1675" y="1496" type="line"/>
      <point x="1235" y="1496" type="line"/>
      <point x="1235" y="1500" type="line"/>
      <point x="1675" y="1500" type="line"/>
    </contour>
    <contour>
      <point x="1297" y="0" type="line"/>
      <point x="947" y="0" type="line"/>
      <point x="445" y="1500" type="line"/>
      <point x="787" y="1500" type="line"/>
    </contour>
  </outline>
</glyph>
<glyph name="Y" format="2">
  <advance width="1504"/>
  <unicode hex="0059"/>
  <outline>
    <contour>
      <point x="1705" y="1496" type="line"/>
      <point x="1285" y="1496" type="line"/>
      <point x="1285" y="1500" type="line"/>
      <point x="1705" y="1500" type="line"/>
    </contour>
    <contour>
      <point x="925" y="1496" type="line"/>
      <point x="235" y="1496" type="line"/>
      <point x="235" y="1500" type="line"/>
      <point x="925" y="1500" type="line"/>
    </contour>
    <contour>
      <point x="305" y="4" type="line"/>
      <point x="995" y="4" type="line"/>
      <point x="995" y="0" type="line"/>
      <point x="305" y="0" type="line"/>
    </contour>
    <contour>
      <point x="961" y="778" type="line"/>
      <point x="1531" y="1496" type="line"/>
      <point x="1536" y="1496" type="line"/>
      <point x="963" y="772" type="line"/>
      <point x="795" y="0" type="line"/>
      <point x="485" y="0" type="line"/>
      <point x="655" y="754" type="line"/>
      <point x="375" y="1500" type="line"/>
      <point x="715" y="1500" type="line"/>
    </contour>
  </outline>
</glyph>
<glyph name="Z" format="2">
  <advance width="1212"/>
  <unicode hex="005A"/>
  <outline>
    <contour>
      <point x="958" y="1496" type="line"/>
      <point x="683" y="1496" type="line" smooth="yes"/>
      <point x="409" y="1496"/>
      <point x="280" y="1344"/>
      <point x="190" y="1130" type="curve"/>
      <point x="186" y="1130" type="line"/>
      <point x="273" y="1500" type="line"/>
      <point x="1343" y="1500" type="line"/>
      <point x="1343" y="1496" type="line"/>
      <point x="280" y="4" type="line"/>
      <point x="615" y="4" type="line" smooth="yes"/>
      <point x="889" y="4"/>
      <point x="1008" y="158"/>
      <point x="1116" y="410" type="curve"/>
      <point x="1120" y="410" type="line"/>
      <point x="1025" y="0" type="line"/>
      <point x="-104" y="0" type="line"/>
      <point x="-104" y="4" type="line"/>
    </contour>
  </outline>
</glyph>
<glyph name="bracketleft" format="1">
  <advance width="1515"/>
  <unicode hex="005B"/>
  <outline>
    <contour>
      <point x="820" y="3194" type="line"/>
      <point x="1946" y="3194" type="line"/>
      <point x="1946" y="3186" type="line"/>
      <point x="1388" y="3186" type="line"/>
      <point x="536" y="-606" type="line"/>
      <point x="1086" y="-606" type="line"/>
      <point x="1086" y="-614" type="line"/>
      <point x="-40" y="-614" type="line"/>
    </contour>
  </outline>
</glyph>
<glyph name="grave" format="2">
  <advance width="809"/>
  <unicode hex="0060"/>
  <outline>
    <contour>
      <point x="508" y="1401" type="line" smooth="yes"/>
      <point x="441" y="1390"/>
      <point x="378" y="1442"/>
      <point x="378" y="1510" type="curve" smooth="yes"/>
      <point x="378" y="1578"/>
      <point x="451" y="1647"/>
      <point x="528" y="1616" type="curve" smooth="yes"/>
      <point x="971" y="1452" type="line"/>
      <point x="969" y="1448" type="line"/>
    </contour>
  </outline>
</glyph>
<glyph name="a" format="2">
  <advance width="1279"/>
  <unicode hex="0061"/>
  <outline>
    <contour>
      <point x="755" y="628" type="curve" smooth="yes"/>
      <point x="755" y="754"/>
      <point x="723" y="877"/>
      <point x="641" y="877" type="curve" smooth="yes"/>
      <point x="503" y="877"/>
      <point x="338" y="518"/>
      <point x="338" y="250" type="curve" smooth="yes"/>
      <point x="338" y="122"/>
      <point x="376" y="38"/>
      <point x="448" y="38" type="curve" smooth="yes"/>
      <point x="623" y="38"/>
      <point x="755" y="410"/>
    </contour>
    <contour>
      <point x="759" y="628" type="curve" smooth="yes"/>
      <point x="759" y="412"/>
      <point x="630" y="-20"/>
      <point x="348" y="-20" type="curve" smooth="yes"/>
      <point x="210" y="-20"/>
      <point x="30" y="60"/>
      <point x="30" y="320" type="curve" smooth="yes"/>
      <point x="30" y="720"/>
      <point x="344" y="939"/>
      <point x="552" y="939" type="curve" smooth="yes"/>
      <point x="704" y="939"/>
      <point x="759" y="812"/>
    </contour>
    <contour>
      <point x="1240" y="326" type="line"/>
      <point x="1164" y="126"/>
      <point x="1026" y="-20"/>
      <point x="834" y="-20" type="curve" smooth="yes"/>
      <point x="710" y="-20"/>
      <point x="662" y="35"/>
      <point x="662" y="136" type="curve" smooth="yes"/>
      <point x="662" y="146"/>
      <point x="664" y="174"/>
      <point x="668" y="190" type="curve" smooth="yes"/>
      <point x="712" y="360" type="line"/>
      <point x="745" y="493" type="line"/>
      <point x="756" y="584" type="line"/>
      <point x="843" y="920" type="line"/>
      <point x="1116" y="920" type="line"/>
      <point x="903" y="92" type="line" smooth="yes"/>
      <point x="901" y="80"/>
      <point x="899" y="66"/>
      <point x="899" y="56" type="curve" smooth="yes"/>
      <point x="899" y="34"/>
      <point x="910" y="15"/>
      <point x="936" y="15" type="curve" smooth="yes"/>
      <point x="1050" y="15"/>
      <point x="1174" y="159"/>
      <point x="1237" y="328" type="curve"/>
    </contour>
  </outline>
</glyph>
<glyph name="c" format="2">
  <advance width="987"/>
  <unicode hex="0063"/>
  <outline>
    <contour>
      <point x="946" y="733" type="curve"/>
      <point x="928" y="841"/>
      <point x="825" y="928"/>
      <point x="681" y="928" type="curve" smooth="yes"/>
      <point x="453" y="928"/>
      <point x="338" y="518"/>
      <point x="338" y="270" type="curve" smooth="yes"/>
      <point x="338" y="102"/>
      <point x="370" y="8"/>
      <point x="458" y="8" type="curve" smooth="yes"/>
      <point x="578" y="8"/>
      <point x="731" y="92"/>
      <point x="844" y="286" type="curve"/>
      <point x="848" y="286" type="line"/>
      <point x="736" y="92"/>
      <point x="570" y="-20"/>
      <point x="368" y="-20" type="curve" smooth="yes"/>
      <point x="206" y="-20"/>
      <point x="30" y="60"/>
      <point x="30" y="310" type="curve" smooth="yes"/>
      <point x="30" y="690"/>
      <point x="334" y="940"/>
      <point x="636" y="940" type="curve" smooth="yes"/>
      <point x="820" y="940"/>
      <point x="958" y="841"/>
      <point x="958" y="687" type="curve" smooth="yes"/>
      <point x="958" y="575"/>
      <point x="884" y="508"/>
      <point x="794" y="508" type="curve" smooth="yes"/>
      <point x="714" y="508"/>
      <point x="630" y="560"/>
      <point x="630" y="660" type="curve" smooth="yes"/>
      <point x="630" y="760"/>
      <point x="723" y="816"/>
      <point x="791" y="816" type="curve" smooth="yes"/>
      <point x="878" y="816"/>
      <point x="925" y="781"/>
    </contour>
  </outline>
</glyph>
<glyph name="d" format="2">
  <advance width="1299"/>
  <unicode hex="0064"/>
  <outline>
    <contour>
      <point x="1260" y="326" type="line"/>
      <point x="1184" y="126"/>
      <point x="1046" y="-20"/>
      <point x="854" y="-20" type="curve" smooth="yes"/>
      <point x="730" y="-20"/>
      <point x="666" y="26"/>
      <point x="666" y="146" type="curve" smooth="yes"/>
      <point x="666" y="156"/>
      <point x="669" y="178"/>
      <point x="671" y="190" type="curve" smooth="yes"/>
      <point x="713" y="363" type="line"/>
      <point x="746" y="501" type="line"/>
      <point x="756" y="579" type="line"/>
      <point x="965" y="1496" type="line"/>
      <point x="779" y="1496" type="line"/>
      <point x="779" y="1500" type="line"/>
      <point x="1245" y="1500" type="line"/>
      <point x="924" y="92" type="line" smooth="yes"/>
      <point x="922" y="80"/>
      <point x="920" y="66"/>
      <point x="920" y="56" type="curve" smooth="yes"/>
      <point x="920" y="34"/>
      <point x="928" y="13"/>
      <point x="956" y="13" type="curve" smooth="yes"/>
      <point x="1066" y="13"/>
      <point x="1195" y="156"/>
      <point x="1257" y="328" type="curve"/>
    </contour>
    <contour>
      <point x="755" y="628" type="curve" smooth="yes"/>
      <point x="755" y="754"/>
      <point x="723" y="877"/>
      <point x="641" y="877" type="curve" smooth="yes"/>
      <point x="503" y="877"/>
      <point x="338" y="518"/>
      <point x="338" y="250" type="curve" smooth="yes"/>
      <point x="338" y="122"/>
      <point x="376" y="38"/>
      <point x="448" y="38" type="curve" smooth="yes"/>
      <point x="623" y="38"/>
      <point x="755" y="410"/>
    </contour>
    <contour>
      <point x="759" y="628" type="curve" smooth="yes"/>
      <point x="759" y="412"/>
      <point x="630" y="-20"/>
      <point x="348" y="-20" type="curve" smooth="yes"/>
      <point x="210" y="-20"/>
      <point x="30" y="60"/>
      <point x="30" y="320" type="curve" smooth="yes"/>
      <point x="30" y="720"/>
      <point x="344" y="939"/>
      <point x="552" y="939" type="curve" smooth="yes"/>
      <point x="704" y="939"/>
      <point x="759" y="812"/>
    </contour>
  </outline>
</glyph>
<glyph name="e" format="1">
  <advance width="2084"/>
  <unicode hex="0065"/>
  <outline>
    <contour>
      <point x="692" y="474" type="curve" smooth="yes"/>
      <point x="692" y="232"/>
      <point x="757" y="2"/>
      <point x="958" y="2" type="curve" smooth="yes"/>
      <point x="1282" y="2"/>
      <point x="1626" y="276"/>
      <point x="1810" y="586" type="curve"/>
      <point x="1818" y="586" type="line"/>
      <point x="1638" y="270"/>
      <point x="1269" y="-40"/>
      <point x="815" y="-40" type="curve" smooth="yes"/>
      <point x="421" y="-40"/>
      <point x="62" y="143"/>
      <point x="62" y="635" type="curve" smooth="yes"/>
      <point x="62" y="1405"/>
      <point x="716" y="1926"/>
      <point x="1314" y="1926" type="curve" smooth="yes"/>
      <point x="1711" y="1926"/>
      <point x="2024" y="1798"/>
      <point x="2024" y="1504" type="curve" smooth="yes"/>
      <point x="2024" y="929"/>
      <point x="1089" y="871"/>
      <point x="635" y="871" type="curve"/>
      <point x="635" y="875" type="line"/>
      <point x="938" y="875"/>
      <point x="1487" y="1017"/>
      <point x="1487" y="1586" type="curve" smooth="yes"/>
      <point x="1487" y="1738"/>
      <point x="1459" y="1916"/>
      <point x="1344" y="1916" type="curve" smooth="yes"/>
      <point x="1062" y="1916"/>
      <point x="692" y="1105"/>
    </contour>
  </outline>
</glyph>
<glyph name="f" format="2">
  <advance width="829"/>
  <unicode hex="0066"/>
  <outline>
    <contour>
      <point x="138" y="920" type="line"/>
      <point x="868" y="920" type="line"/>
      <point x="868" y="916" type="line"/>
      <point x="138" y="916" type="line"/>
    </contour>
    <contour>
      <point x="1135" y="1345" type="curve"/>
      <point x="1115" y="1425"/>
      <point x="1016" y="1514"/>
      <point x="883" y="1514" type="curve" smooth="yes"/>
      <point x="743" y="1514"/>
      <point x="651" y="1324"/>
      <point x="608" y="1080" type="curve" smooth="yes"/>
      <point x="411" y="-24" type="line" smooth="yes"/>
      <point x="354" y="-344"/>
      <point x="135" y="-520"/>
      <point x="-125" y="-520" type="curve" smooth="yes"/>
      <point x="-317" y="-520"/>
      <point x="-415" y="-396"/>
      <point x="-415" y="-292" type="curve" smooth="yes"/>
      <point x="-415" y="-190"/>
      <point x="-352" y="-128"/>
      <point x="-262" y="-128" type="curve" smooth="yes"/>
      <point x="-182" y="-128"/>
      <point x="-99" y="-176"/>
      <point x="-99" y="-276" type="curve" smooth="yes"/>
      <point x="-99" y="-376"/>
      <point x="-172" y="-431"/>
      <point x="-260" y="-431" type="curve" smooth="yes"/>
      <point x="-325" y="-431"/>
      <point x="-380" y="-394"/>
      <point x="-400" y="-345" type="curve"/>
      <point x="-380" y="-425"/>
      <point x="-281" y="-514"/>
      <point x="-148" y="-514" type="curve" smooth="yes"/>
      <point x="-8" y="-514"/>
      <point x="84" y="-324"/>
      <point x="127" y="-80" type="curve" smooth="yes"/>
      <point x="324" y="1024" type="line" smooth="yes"/>
      <point x="381" y="1344"/>
      <point x="600" y="1520"/>
      <point x="860" y="1520" type="curve" smooth="yes"/>
      <point x="1052" y="1520"/>
      <point x="1150" y="1396"/>
      <point x="1150" y="1292" type="curve" smooth="yes"/>
      <point x="1150" y="1190"/>
      <point x="1087" y="1128"/>
      <point x="997" y="1128" type="curve" smooth="yes"/>
      <point x="917" y="1128"/>
      <point x="834" y="1176"/>
      <point x="834" y="1276" type="curve" smooth="yes"/>
      <point x="834" y="1376"/>
      <point x="907" y="1431"/>
      <point x="995" y="1431" type="curve" smooth="yes"/>
      <point x="1059" y="1431"/>
      <point x="1114" y="1394"/>
    </contour>
  </outline>
</glyph>
<glyph name="g" format="2">
  <advance width="1261"/>
  <unicode hex="0067"/>
  <outline>
    <contour>
      <point x="282" y="-61" type="line"/>
      <point x="212" y="-81"/>
      <point x="153" y="-170"/>
      <point x="153" y="-284" type="curve" smooth="yes"/>
      <point x="153" y="-410"/>
      <point x="214" y="-515"/>
      <point x="386" y="-515" type="curve" smooth="yes"/>
      <point x="564" y="-515"/>
      <point x="847" y="-431"/>
      <point x="847" y="-214" type="curve" smooth="yes"/>
      <point x="847" y="-106"/>
      <point x="783" y="-68"/>
      <point x="673" y="-68" type="curve" smooth="yes"/>
      <point x="631" y="-68"/>
      <point x="439" y="-68"/>
      <point x="395" y="-68" type="curve" smooth="yes"/>
      <point x="215" y="-68"/>
      <point x="69" y="-16"/>
      <point x="69" y="108" type="curve" smooth="yes"/>
      <point x="69" y="266"/>
      <point x="321" y="324"/>
      <point x="481" y="324" type="curve"/>
      <point x="481" y="320" type="line"/>
      <point x="415" y="320"/>
      <point x="260" y="306"/>
      <point x="260" y="232" type="curve" smooth="yes"/>
      <point x="260" y="188"/>
      <point x="347" y="168"/>
      <point x="457" y="168" type="curve" smooth="yes"/>
      <point x="527" y="168"/>
      <point x="613" y="170"/>
      <point x="669" y="170" type="curve" smooth="yes"/>
      <point x="849" y="170"/>
      <point x="940" y="88"/>
      <point x="940" y="-84" type="curve" smooth="yes"/>
      <point x="940" y="-366"/>
      <point x="653" y="-520"/>
      <point x="383" y="-520" type="curve" smooth="yes"/>
      <point x="147" y="-520"/>
      <point x="-90" y="-470"/>
      <point x="-90" y="-310" type="curve" smooth="yes"/>
      <point x="-90" y="-118"/>
      <point x="181" y="-61"/>
      <point x="271" y="-61" type="curve" smooth="yes"/>
    </contour>
    <contour>
      <point x="1302" y="766" type="curve" smooth="yes"/>
      <point x="1302" y="656"/>
      <point x="1235" y="618"/>
      <point x="1175" y="618" type="curve" smooth="yes"/>
      <point x="1115" y="618"/>
      <point x="1050" y="657"/>
      <point x="1050" y="743" type="curve" smooth="yes"/>
      <point x="1050" y="809"/>
      <point x="1110" y="862"/>
      <point x="1181" y="862" type="curve" smooth="yes"/>
      <point x="1247" y="862"/>
      <point x="1294" y="814"/>
      <point x="1300" y="770" type="curve"/>
      <point x="1291" y="876"/>
      <point x="1221" y="926"/>
      <point x="1129" y="926" type="curve" smooth="yes"/>
      <point x="1038" y="926"/>
      <point x="918" y="859"/>
      <point x="827" y="692" type="curve"/>
      <point x="824" y="694" type="line"/>
      <point x="914" y="866"/>
      <point x="1039" y="930"/>
      <point x="1129" y="930" type="curve" smooth="yes"/>
      <point x="1247" y="930"/>
      <point x="1302" y="849"/>
    </contour>
    <contour>
      <point x="486" y="324" type="curve" smooth="yes"/>
      <point x="604" y="324"/>
      <point x="694" y="612"/>
      <point x="694" y="780" type="curve" smooth="yes"/>
      <point x="694" y="848"/>
      <point x="674" y="936"/>
      <point x="616" y="936" type="curve" smooth="yes"/>
      <point x="498" y="936"/>
      <point x="408" y="648"/>
      <point x="408" y="480" type="curve" smooth="yes"/>
      <point x="408" y="412"/>
      <point x="428" y="324"/>
    </contour>
    <contour>
      <point x="481" y="320" type="curve" smooth="yes"/>
      <point x="289" y="320"/>
      <point x="135" y="390"/>
      <point x="135" y="570" type="curve" smooth="yes"/>
      <point x="135" y="790"/>
      <point x="369" y="940"/>
      <point x="621" y="940" type="curve" smooth="yes"/>
      <point x="813" y="940"/>
      <point x="967" y="870"/>
      <point x="967" y="690" type="curve" smooth="yes"/>
      <point x="967" y="470"/>
      <point x="733" y="320"/>
    </contour>
  </outline>
</glyph>
<glyph name="h" format="2">
  <advance width="1239"/>
  <unicode hex="0068"/>
  <outline>
    <contour>
      <point x="754" y="613" type="line" smooth="yes"/>
      <point x="806" y="766"/>
      <point x="825" y="914"/>
      <point x="753" y="914" type="curve" smooth="yes"/>
      <point x="596" y="914"/>
      <point x="468" y="652"/>
      <point x="395" y="346" type="curve"/>
      <point x="391" y="346" type="line"/>
      <point x="470" y="657"/>
      <point x="580" y="940"/>
      <point x="816" y="940" type="curve" smooth="yes"/>
      <point x="1020" y="940"/>
      <point x="1104" y="803"/>
      <point x="1042" y="616" type="curve" smooth="yes"/>
      <point x="862" y="78" type="line" smooth="yes"/>
      <point x="858" y="66"/>
      <point x="856" y="52"/>
      <point x="856" y="42" type="curve" smooth="yes"/>
      <point x="856" y="20"/>
      <point x="868" y="6"/>
      <point x="894" y="6" type="curve" smooth="yes"/>
      <point x="1007" y="6"/>
      <point x="1127" y="136"/>
      <point x="1197" y="327" type="curve"/>
      <point x="1200" y="326" type="line"/>
      <point x="1124" y="126"/>
      <point x="1006" y="-20"/>
      <point x="814" y="-20" type="curve" smooth="yes"/>
      <point x="680" y="-20"/>
      <point x="608" y="36"/>
      <point x="608" y="142" type="curve" smooth="yes"/>
      <point x="608" y="172"/>
      <point x="613" y="196"/>
      <point x="618" y="214" type="curve" smooth="yes"/>
    </contour>
    <contour>
      <point x="383" y="1496" type="line"/>
      <point x="245" y="1496" type="line"/>
      <point x="245" y="1500" type="line"/>
      <point x="665" y="1500" type="line"/>
      <point x="315" y="0" type="line"/>
      <point x="35" y="0" type="line"/>
    </contour>
  </outline>
</glyph>
<glyph name="i" format="2">
  <advance width="732"/>
  <unicode hex="0069"/>
  <outline>
    <contour>
      <point x="297" y="1350" type="curve" smooth="yes"/>
      <point x="297" y="1446"/>
      <point x="371" y="1520"/>
      <point x="467" y="1520" type="curve" smooth="yes"/>
      <point x="563" y="1520"/>
      <point x="637" y="1446"/>
      <point x="637" y="1350" type="curve" smooth="yes"/>
      <point x="637" y="1254"/>
      <point x="563" y="1180"/>
      <point x="467" y="1180" type="curve" smooth="yes"/>
      <point x="371" y="1180"/>
      <point x="297" y="1254"/>
    </contour>
    <contour>
      <point x="693" y="326" type="line"/>
      <point x="617" y="126"/>
      <point x="479" y="-20"/>
      <point x="287" y="-20" type="curve" smooth="yes"/>
      <point x="163" y="-20"/>
      <point x="100" y="26"/>
      <point x="100" y="146" type="curve" smooth="yes"/>
      <point x="100" y="156"/>
      <point x="101" y="178"/>
      <point x="104" y="190" type="curve" smooth="yes"/>
      <point x="278" y="916" type="line"/>
      <point x="125" y="916" type="line"/>
      <point x="125" y="920" type="line"/>
      <point x="559" y="920" type="line"/>
      <point x="358" y="92" type="line" smooth="yes"/>
      <point x="356" y="80"/>
      <point x="354" y="66"/>
      <point x="354" y="56" type="curve" smooth="yes"/>
      <point x="354" y="34"/>
      <point x="364" y="13"/>
      <point x="390" y="13" type="curve" smooth="yes"/>
      <point x="495" y="13"/>
      <point x="621" y="140"/>
      <point x="691" y="328" type="curve"/>
    </contour>
  </outline>
</glyph>
<glyph name="j" format="2">
  <advance width="598"/>
  <unicode hex="006A"/>
  <outline>
    <contour>
      <point x="309" y="1350" type="curve" smooth="yes"/>
      <point x="309" y="1446"/>
      <point x="383" y="1520"/>
      <point x="479" y="1520" type="curve" smooth="yes"/>
      <point x="575" y="1520"/>
      <point x="649" y="1446"/>
      <point x="649" y="1350" type="curve" smooth="yes"/>
      <point x="649" y="1254"/>
      <point x="575" y="1180"/>
      <point x="479" y="1180" type="curve" smooth="yes"/>
      <point x="383" y="1180"/>
      <point x="309" y="1254"/>
    </contour>
    <contour>
      <point x="-393" y="-338" type="curve"/>
      <point x="-370" y="-425"/>
      <point x="-268" y="-514"/>
      <point x="-144" y="-514" type="curve" smooth="yes"/>
      <point x="46" y="-514"/>
      <point x="34" y="-200"/>
      <point x="90" y="40" type="curve" smooth="yes"/>
      <point x="294" y="916" type="line"/>
      <point x="106" y="916" type="line"/>
      <point x="106" y="920" type="line"/>
      <point x="571" y="920" type="line"/>
      <point x="375" y="-24" type="line" smooth="yes"/>
      <point x="323" y="-274"/>
      <point x="126" y="-520"/>
      <point x="-134" y="-520" type="curve" smooth="yes"/>
      <point x="-296" y="-520"/>
      <point x="-410" y="-396"/>
      <point x="-410" y="-292" type="curve" smooth="yes"/>
      <point x="-410" y="-190"/>
      <point x="-326" y="-118"/>
      <point x="-236" y="-118" type="curve" smooth="yes"/>
      <point x="-156" y="-118"/>
      <point x="-84" y="-176"/>
      <point x="-84" y="-260" type="curve" smooth="yes"/>
      <point x="-84" y="-354"/>
      <point x="-164" y="-419"/>
      <point x="-257" y="-419" type="curve" smooth="yes"/>
      <point x="-328" y="-419"/>
      <point x="-370" y="-379"/>
    </contour>
  </outline>
</glyph>
<glyph name="k" format="2">
  <advance width="1228"/>
  <unicode hex="006B"/>
  <outline>
    <contour>
      <point x="1185" y="326" type="line"/>
      <point x="1109" y="126"/>
      <point x="980" y="-20"/>
      <point x="798" y="-20" type="curve" smooth="yes"/>
      <point x="674" y="-20"/>
      <point x="597" y="26"/>
      <point x="597" y="146" type="curve" smooth="yes"/>
      <point x="597" y="156"/>
      <point x="599" y="178"/>
      <point x="601" y="190" type="curve" smooth="yes"/>
      <point x="620" y="280" type="line" smooth="yes"/>
      <point x="645" y="396"/>
      <point x="718" y="563"/>
      <point x="610" y="563" type="curve" smooth="yes"/>
      <point x="508" y="563"/>
      <point x="475" y="458"/>
      <point x="458" y="380" type="curve"/>
      <point x="454" y="380" type="line"/>
      <point x="492" y="550"/>
      <point x="560" y="583"/>
      <point x="672" y="583" type="curve" smooth="yes"/>
      <point x="810" y="583"/>
      <point x="944" y="502"/>
      <point x="884" y="242" type="curve" smooth="yes"/>
      <point x="845" y="60" type="line" smooth="yes"/>
      <point x="845" y="56"/>
      <point x="843" y="46"/>
      <point x="843" y="42" type="curve" smooth="yes"/>
      <point x="843" y="20"/>
      <point x="857" y="10"/>
      <point x="883" y="10" type="curve" smooth="yes"/>
      <point x="996" y="10"/>
      <point x="1117" y="152"/>
      <point x="1182" y="328" type="curve"/>
    </contour>
    <contour>
      <point x="499" y="498" type="curve"/>
      <point x="501" y="501" type="line"/>
      <point x="510" y="495"/>
      <point x="526" y="488"/>
      <point x="548" y="488" type="curve" smooth="yes"/>
      <point x="627" y="488"/>
      <point x="673" y="594"/>
      <point x="725" y="722" type="curve" smooth="yes"/>
      <point x="781" y="858"/>
      <point x="864" y="940"/>
      <point x="974" y="940" type="curve" smooth="yes"/>
      <point x="1084" y="940"/>
      <point x="1179" y="862"/>
      <point x="1179" y="738" type="curve" smooth="yes"/>
      <point x="1179" y="638"/>
      <point x="1112" y="578"/>
      <point x="1032" y="578" type="curve" smooth="yes"/>
      <point x="952" y="578"/>
      <point x="892" y="642"/>
      <point x="892" y="718" type="curve" smooth="yes"/>
      <point x="892" y="794"/>
      <point x="957" y="852"/>
      <point x="1033" y="852" type="curve" smooth="yes"/>
      <point x="1105" y="852"/>
      <point x="1157" y="808"/>
      <point x="1174" y="755" type="curve"/>
      <point x="1164" y="861"/>
      <point x="1083" y="936"/>
      <point x="974" y="936" type="curve" smooth="yes"/>
      <point x="870" y="936"/>
      <point x="786" y="860"/>
      <point x="728" y="718" type="curve" smooth="yes"/>
      <point x="673" y="582"/>
      <point x="628" y="484"/>
      <point x="548" y="484" type="curve" smooth="yes"/>
      <point x="526" y="484"/>
      <point x="509" y="491"/>
    </contour>
    <contour>
      <point x="436" y="1496" type="line"/>
      <point x="258" y="1496" type="line"/>
      <point x="258" y="1500" type="line"/>
      <point x="718" y="1500" type="line"/>
      <point x="370" y="0" type="line"/>
      <point x="90" y="0" type="line"/>
    </contour>
  </outline>
</glyph>
<glyph name="l" format="2">
  <advance width="1459"/>
  <unicode hex="006C"/>
  <outline>
    <contour>
      <point x="1378" y="668" type="line"/>
      <point x="1222" y="258"/>
      <point x="940" y="-40"/>
      <point x="546" y="-40" type="curve" smooth="yes"/>
      <point x="292" y="-40"/>
      <point x="164" y="53"/>
      <point x="164" y="299" type="curve" smooth="yes"/>
      <point x="164" y="319"/>
      <point x="168" y="365"/>
      <point x="172" y="389" type="curve" smooth="yes"/>
      <point x="784" y="3064" type="line"/>
      <point x="404" y="3064" type="line"/>
      <point x="404" y="3072" type="line"/>
      <point x="1358" y="3072" type="line"/>
      <point x="692" y="188" type="line" smooth="yes"/>
      <point x="688" y="164"/>
      <point x="684" y="135"/>
      <point x="684" y="115" type="curve" smooth="yes"/>
      <point x="684" y="69"/>
      <point x="704" y="26"/>
      <point x="758" y="26" type="curve" smooth="yes"/>
      <point x="971" y="26"/>
      <point x="1236" y="300"/>
      <point x="1374" y="672" type="curve"/>
    </contour>
  </outline>
</glyph>
<glyph name="m" format="2">
  <advance width="1799"/>
  <unicode hex="006D"/>
  <outline>
    <contour>
      <point x="1314" y="613" type="line" smooth="yes"/>
      <point x="1366" y="766"/>
      <point x="1382" y="904"/>
      <point x="1310" y="904" type="curve" smooth="yes"/>
      <point x="1171" y="904"/>
      <point x="1042" y="679"/>
      <point x="964" y="346" type="curve"/>
      <point x="960" y="346" type="line"/>
      <point x="1035" y="650"/>
      <point x="1152" y="940"/>
      <point x="1382" y="940" type="curve" smooth="yes"/>
      <point x="1586" y="940"/>
      <point x="1664" y="803"/>
      <point x="1602" y="616" type="curve" smooth="yes"/>
      <point x="1423" y="78" type="line" smooth="yes"/>
      <point x="1419" y="66"/>
      <point x="1417" y="52"/>
      <point x="1417" y="42" type="curve" smooth="yes"/>
      <point x="1417" y="20"/>
      <point x="1429" y="5"/>
      <point x="1455" y="5" type="curve" smooth="yes"/>
      <point x="1569" y="5"/>
      <point x="1688" y="137"/>
      <point x="1758" y="328" type="curve"/>
      <point x="1760" y="326" type="line"/>
      <point x="1684" y="126"/>
      <point x="1566" y="-20"/>
      <point x="1374" y="-20" type="curve" smooth="yes"/>
      <point x="1240" y="-20"/>
      <point x="1168" y="36"/>
      <point x="1168" y="142" type="curve" smooth="yes"/>
      <point x="1168" y="172"/>
      <point x="1173" y="196"/>
      <point x="1178" y="214" type="curve" smooth="yes"/>
    </contour>
    <contour>
      <point x="880" y="0" type="line"/>
      <point x="600" y="0" type="line"/>
      <point x="750" y="616" type="line" smooth="yes"/>
      <point x="788" y="774"/>
      <point x="820" y="904"/>
      <point x="748" y="904" type="curve" smooth="yes"/>
      <point x="601" y="904"/>
      <point x="473" y="659"/>
      <point x="402" y="346" type="curve"/>
      <point x="398" y="346" type="line"/>
      <point x="470" y="648"/>
      <point x="585" y="940"/>
      <point x="821" y="940" type="curve" smooth="yes"/>
      <point x="1025" y="940"/>
      <point x="1080" y="817"/>
      <point x="1036" y="638" type="curve" smooth="yes"/>
    </contour>
    <contour>
      <point x="258" y="916" type="line"/>
      <point x="120" y="916" type="line"/>
      <point x="120" y="920" type="line"/>
      <point x="540" y="920" type="line"/>
      <point x="320" y="0" type="line"/>
      <point x="40" y="0" type="line"/>
    </contour>
  </outline>
</glyph>
<glyph name="n" format="2">
  <advance width="1249"/>
  <unicode hex="006E"/>
  <outline>
    <contour>
      <point x="254" y="916" type="line"/>
      <point x="116" y="916" type="line"/>
      <point x="116" y="920" type="line"/>
      <point x="536" y="920" type="line"/>
      <point x="315" y="0" type="line"/>
      <point x="35" y="0" type="line"/>
    </contour>
    <contour>
      <point x="754" y="613" type="line" smooth="yes"/>
      <point x="806" y="766"/>
      <point x="825" y="914"/>
      <point x="753" y="914" type="curve" smooth="yes"/>
      <point x="596" y="914"/>
      <point x="470" y="652"/>
      <point x="397" y="346" type="curve"/>
      <point x="393" y="346" type="line"/>
      <point x="472" y="657"/>
      <point x="580" y="940"/>
      <point x="816" y="940" type="curve" smooth="yes"/>
      <point x="1020" y="940"/>
      <point x="1104" y="803"/>
      <point x="1042" y="616" type="curve" smooth="yes"/>
      <point x="862" y="78" type="line" smooth="yes"/>
      <point x="858" y="66"/>
      <point x="856" y="52"/>
      <point x="856" y="42" type="curve" smooth="yes"/>
      <point x="856" y="20"/>
      <point x="868" y="6"/>
      <point x="894" y="6" type="curve" smooth="yes"/>
      <point x="1007" y="6"/>
      <point x="1132" y="136"/>
      <point x="1202" y="327" type="curve"/>
      <point x="1205" y="326" type="line"/>
      <point x="1129" y="126"/>
      <point x="1006" y="-20"/>
      <point x="814" y="-20" type="curve" smooth="yes"/>
      <point x="680" y="-20"/>
      <point x="608" y="36"/>
      <point x="608" y="142" type="curve" smooth="yes"/>
      <point x="608" y="172"/>
      <point x="613" y="196"/>
      <point x="618" y="214" type="curve" smooth="yes"/>
    </contour>
  </outline>
</glyph>
<glyph name="o" format="1">
  <advance width="2260"/>
  <unicode hex="006F"/>
  <outline>
    <contour>
      <point x="876" y="-40" type="curve" smooth="yes"/>
      <point x="483" y="-40"/>
      <point x="62" y="164"/>
      <point x="62" y="676" type="curve" smooth="yes"/>
      <point x="62" y="1454"/>
      <point x="685" y="1926"/>
      <point x="1323" y="1926" type="curve" smooth="yes"/>
      <point x="1716" y="1926"/>
      <point x="2138" y="1720"/>
      <point x="2138" y="1208" type="curve" smooth="yes"/>
      <point x="2138" y="430"/>
      <point x="1514" y="-40"/>
    </contour>
    <contour>
      <point x="876" y="-30" type="curve" smooth="yes"/>
      <point x="1282" y="-30"/>
      <point x="1548" y="946"/>
      <point x="1548" y="1454" type="curve" smooth="yes"/>
      <point x="1548" y="1736"/>
      <point x="1483" y="1914"/>
      <point x="1323" y="1914" type="curve" smooth="yes"/>
      <point x="917" y="1914"/>
      <point x="652" y="938"/>
      <point x="652" y="430" type="curve" smooth="yes"/>
      <point x="652" y="148"/>
      <point x="716" y="-30"/>
    </contour>
  </outline>
</glyph>
<glyph name="p" format="2">
  <advance width="1199"/>
  <unicode hex="0070"/>
  <outline>
    <contour>
      <point x="422" y="291" type="curve" smooth="yes"/>
      <point x="422" y="165"/>
      <point x="454" y="42"/>
      <point x="536" y="42" type="curve" smooth="yes"/>
      <point x="674" y="42"/>
      <point x="842" y="401"/>
      <point x="842" y="669" type="curve" smooth="yes"/>
      <point x="842" y="797"/>
      <point x="801" y="881"/>
      <point x="729" y="881" type="curve" smooth="yes"/>
      <point x="554" y="881"/>
      <point x="422" y="509"/>
    </contour>
    <contour>
      <point x="418" y="291" type="curve" smooth="yes"/>
      <point x="418" y="507"/>
      <point x="547" y="939"/>
      <point x="829" y="939" type="curve" smooth="yes"/>
      <point x="967" y="939"/>
      <point x="1150" y="859"/>
      <point x="1150" y="599" type="curve" smooth="yes"/>
      <point x="1150" y="199"/>
      <point x="833" y="-20"/>
      <point x="625" y="-20" type="curve" smooth="yes"/>
      <point x="473" y="-20"/>
      <point x="418" y="107"/>
    </contour>
    <contour>
      <point x="-190" y="-496" type="line"/>
      <point x="360" y="-496" type="line"/>
      <point x="360" y="-500" type="line"/>
      <point x="-190" y="-500" type="line"/>
    </contour>
    <contour>
      <point x="266" y="916" type="line"/>
      <point x="124" y="916" type="line"/>
      <point x="124" y="920" type="line"/>
      <point x="548" y="920" type="line"/>
      <point x="463" y="557" type="line"/>
      <point x="439" y="459" type="line"/>
      <point x="427" y="386" type="line"/>
      <point x="220" y="-500" type="line"/>
      <point x="-60" y="-500" type="line"/>
    </contour>
  </outline>
</glyph>
<glyph name="q" format="2">
  <advance width="1169"/>
  <unicode hex="0071"/>
  <outline>
    <contour>
      <point x="908" y="-496" type="line"/>
      <point x="908" y="-500" type="line"/>
      <point x="378" y="-500" type="line"/>
      <point x="378" y="-496" type="line"/>
    </contour>
    <contour>
      <point x="769" y="-500" type="line"/>
      <point x="508" y="-500" type="line"/>
      <point x="703" y="334" type="line"/>
      <point x="719" y="385"/>
      <point x="734" y="440"/>
      <point x="745" y="502" type="curve"/>
      <point x="756" y="582" type="line"/>
      <point x="832" y="900" type="line"/>
      <point x="1100" y="940" type="line"/>
    </contour>
    <contour>
      <point x="755" y="628" type="curve" smooth="yes"/>
      <point x="755" y="754"/>
      <point x="723" y="877"/>
      <point x="641" y="877" type="curve" smooth="yes"/>
      <point x="503" y="877"/>
      <point x="338" y="518"/>
      <point x="338" y="250" type="curve" smooth="yes"/>
      <point x="338" y="122"/>
      <point x="376" y="38"/>
      <point x="448" y="38" type="curve" smooth="yes"/>
      <point x="623" y="38"/>
      <point x="755" y="410"/>
    </contour>
    <contour>
      <point x="759" y="628" type="curve" smooth="yes"/>
      <point x="759" y="412"/>
      <point x="630" y="-20"/>
      <point x="348" y="-20" type="curve" smooth="yes"/>
      <point x="210" y="-20"/>
      <point x="30" y="60"/>
      <point x="30" y="320" type="curve" smooth="yes"/>
      <point x="30" y="720"/>
      <point x="344" y="939"/>
      <point x="552" y="939" type="curve" smooth="yes"/>
      <point x="704" y="939"/>
      <point x="759" y="812"/>
    </contour>
  </outline>
</glyph>
<glyph name="r" format="2">
  <advance width="951"/>
  <unicode hex="0072"/>
  <outline>
    <contour>
      <point x="1002" y="729" type="curve" smooth="yes"/>
      <point x="1002" y="636"/>
      <point x="942" y="556"/>
      <point x="836" y="556" type="curve" smooth="yes"/>
      <point x="740" y="556"/>
      <point x="668" y="617"/>
      <point x="668" y="716" type="curve" smooth="yes"/>
      <point x="668" y="806"/>
      <point x="737" y="880"/>
      <point x="835" y="880" type="curve" smooth="yes"/>
      <point x="913" y="880"/>
      <point x="970" y="833"/>
      <point x="991" y="779" type="curve"/>
      <point x="965" y="878"/>
      <point x="870" y="936"/>
      <point x="778" y="936" type="curve" smooth="yes"/>
      <point x="546" y="936"/>
      <point x="455" y="542"/>
      <point x="408" y="346" type="curve"/>
      <point x="404" y="346" type="line"/>
      <point x="454" y="558"/>
      <point x="544" y="940"/>
      <point x="778" y="940" type="curve" smooth="yes"/>
      <point x="891" y="940"/>
      <point x="1002" y="857"/>
    </contour>
    <contour>
      <point x="268" y="916" type="line"/>
      <point x="120" y="916" type="line"/>
      <point x="120" y="920" type="line"/>
      <point x="540" y="920" type="line"/>
      <point x="330" y="0" type="line"/>
      <point x="50" y="0" type="line"/>
    </contour>
  </outline>
</glyph>
<glyph name="s" format="1">
  <advance width="1850"/>
  <unicode hex="0073"/>
  <outline>
    <contour>
      <point x="1649" y="1570" type="curve"/>
      <point x="1607" y="1754"/>
      <point x="1374" y="1912"/>
      <point x="1020" y="1912" type="curve" smooth="yes"/>
      <point x="782" y="1912"/>
      <point x="644" y="1773"/>
      <point x="644" y="1626" type="curve" smooth="yes"/>
      <point x="644" y="1216"/>
      <point x="1564" y="1167"/>
      <point x="1564" y="623" type="curve" smooth="yes"/>
      <point x="1564" y="237"/>
      <point x="1176" y="-50"/>
      <point x="717" y="-50" type="curve" smooth="yes"/>
      <point x="189" y="-50"/>
      <point x="-20" y="224"/>
      <point x="-20" y="450" type="curve" smooth="yes"/>
      <point x="-20" y="638"/>
      <point x="127" y="746"/>
      <point x="270" y="746" type="curve" smooth="yes"/>
      <point x="392" y="746"/>
      <point x="548" y="659"/>
      <point x="548" y="475" type="curve" smooth="yes"/>
      <point x="548" y="311"/>
      <point x="413" y="209"/>
      <point x="274" y="209" type="curve" smooth="yes"/>
      <point x="130" y="209"/>
      <point x="14" y="303"/>
      <point x="-2" y="389" type="curve"/>
      <point x="35" y="174"/>
      <point x="259" y="-40"/>
      <point x="717" y="-40" type="curve" smooth="yes"/>
      <point x="1003" y="-40"/>
      <point x="1184" y="111"/>
      <point x="1184" y="299" type="curve" smooth="yes"/>
      <point x="1184" y="675"/>
      <point x="250" y="700"/>
      <point x="250" y="1298" type="curve" smooth="yes"/>
      <point x="250" y="1704"/>
      <point x="659" y="1922"/>
      <point x="1020" y="1922" type="curve" smooth="yes"/>
      <point x="1422" y="1922"/>
      <point x="1668" y="1718"/>
      <point x="1668" y="1506" type="curve" smooth="yes"/>
      <point x="1668" y="1338"/>
      <point x="1554" y="1241"/>
      <point x="1411" y="1241" type="curve" smooth="yes"/>
      <point x="1289" y="1241"/>
      <point x="1148" y="1327"/>
      <point x="1148" y="1491" type="curve" smooth="yes"/>
      <point x="1148" y="1634"/>
      <point x="1266" y="1736"/>
      <point x="1401" y="1736" type="curve" smooth="yes"/>
      <point x="1525" y="1736"/>
      <point x="1607" y="1674"/>
    </contour>
  </outline>
</glyph>
<glyph name="t" format="2">
  <advance width="730"/>
  <unicode hex="0074"/>
  <outline>
    <contour>
      <point x="91" y="920" type="line"/>
      <point x="731" y="920" type="line"/>
      <point x="731" y="916" type="line"/>
      <point x="91" y="916" type="line"/>
    </contour>
    <contour>
      <point x="687" y="326" type="line"/>
      <point x="611" y="126"/>
      <point x="473" y="-20"/>
      <point x="281" y="-20" type="curve" smooth="yes"/>
      <point x="157" y="-20"/>
      <point x="91" y="26"/>
      <point x="91" y="146" type="curve" smooth="yes"/>
      <point x="91" y="156"/>
      <point x="93" y="178"/>
      <point x="96" y="190" type="curve" smooth="yes"/>
      <point x="309" y="1120" type="line"/>
      <point x="587" y="1120" type="line"/>
      <point x="351" y="92" type="line" smooth="yes"/>
      <point x="349" y="80"/>
      <point x="347" y="66"/>
      <point x="347" y="56" type="curve" smooth="yes"/>
      <point x="347" y="34"/>
      <point x="357" y="18"/>
      <point x="383" y="18" type="curve" smooth="yes"/>
      <point x="506" y="18"/>
      <point x="623" y="166"/>
      <point x="685" y="328" type="curve"/>
    </contour>
  </outline>
</glyph>
<glyph name="u" format="1">
  <advance width="2684"/>
  <unicode hex="0075"/>
  <outline>
    <contour>
      <point x="1120" y="1884" type="line"/>
      <point x="815" y="582" type="line" smooth="yes"/>
      <point x="741" y="258"/>
      <point x="723" y="47"/>
      <point x="883" y="47" type="curve" smooth="yes"/>
      <point x="1143" y="47"/>
      <point x="1416" y="526"/>
      <point x="1576" y="1176" type="curve"/>
      <point x="1584" y="1176" type="line"/>
      <point x="1410" y="517"/>
      <point x="1174" y="-40"/>
      <point x="702" y="-40" type="curve" smooth="yes"/>
      <point x="304" y="-40"/>
      <point x="174" y="242"/>
      <point x="248" y="578" type="curve" smooth="yes"/>
      <point x="538" y="1876" type="line"/>
      <point x="252" y="1876" type="line"/>
      <point x="252" y="1884" type="line"/>
    </contour>
    <contour>
      <point x="2603" y="668" type="line"/>
      <point x="2447" y="258"/>
      <point x="2166" y="-40"/>
      <point x="1772" y="-40" type="curve" smooth="yes"/>
      <point x="1518" y="-40"/>
      <point x="1384" y="53"/>
      <point x="1384" y="299" type="curve" smooth="yes"/>
      <point x="1384" y="319"/>
      <point x="1388" y="365"/>
      <point x="1392" y="389" type="curve" smooth="yes"/>
      <point x="1730" y="1884" type="line"/>
      <point x="2308" y="1884" type="line"/>
      <point x="1913" y="188" type="line" smooth="yes"/>
      <point x="1909" y="164"/>
      <point x="1905" y="135"/>
      <point x="1905" y="115" type="curve" smooth="yes"/>
      <point x="1905" y="69"/>
      <point x="1924" y="37"/>
      <point x="1978" y="37" type="curve" smooth="yes"/>
      <point x="2228" y="37"/>
      <point x="2473" y="336"/>
      <point x="2599" y="672" type="curve"/>
    </contour>
  </outline>
</glyph>
<glyph name="v" format="1">
  <advance width="2461"/>
  <unicode hex="0076"/>
  <outline>
    <contour>
      <point x="1100" y="541" type="line" smooth="yes"/>
      <point x="1046" y="217"/>
      <point x="997" y="4"/>
      <point x="1227" y="4" type="curve" smooth="yes"/>
      <point x="1671" y="4"/>
      <point x="2392" y="728"/>
      <point x="2392" y="1410" type="curve" smooth="yes"/>
      <point x="2392" y="1510"/>
      <point x="2374" y="1569"/>
      <point x="2358" y="1602" type="curve"/>
      <point x="2354" y="1462"/>
      <point x="2205" y="1249"/>
      <point x="1978" y="1249" type="curve" smooth="yes"/>
      <point x="1742" y="1249"/>
      <point x="1626" y="1422"/>
      <point x="1626" y="1586" type="curve" smooth="yes"/>
      <point x="1626" y="1770"/>
      <point x="1776" y="1922"/>
      <point x="1989" y="1922" type="curve" smooth="yes"/>
      <point x="2267" y="1922"/>
      <point x="2400" y="1680"/>
      <point x="2400" y="1410" type="curve" smooth="yes"/>
      <point x="2400" y="726"/>
      <point x="1680" y="-40"/>
      <point x="1094" y="-40" type="curve" smooth="yes"/>
      <point x="635" y="-40"/>
      <point x="460" y="223"/>
      <point x="530" y="598" type="curve" smooth="yes"/>
      <point x="732" y="1696" type="line" smooth="yes"/>
      <point x="736" y="1720"/>
      <point x="740" y="1750"/>
      <point x="740" y="1770" type="curve" smooth="yes"/>
      <point x="740" y="1816"/>
      <point x="714" y="1847"/>
      <point x="652" y="1847" type="curve" smooth="yes"/>
      <point x="384" y="1847"/>
      <point x="176" y="1521"/>
      <point x="48" y="1212" type="curve"/>
      <point x="40" y="1216" type="line"/>
      <point x="216" y="1626"/>
      <point x="438" y="1926"/>
      <point x="872" y="1926" type="curve" smooth="yes"/>
      <point x="1146" y="1926"/>
      <point x="1260" y="1812"/>
      <point x="1260" y="1616" type="curve" smooth="yes"/>
      <point x="1260" y="1554"/>
      <point x="1253" y="1515"/>
      <point x="1245" y="1466" type="curve" smooth="yes"/>
    </contour>
  </outline>
</glyph>
<glyph name="w" format="1">
  <advance width="3681"/>
  <unicode hex="0077"/>
  <outline>
    <contour>
      <point x="940" y="600" type="line" smooth="yes"/>
      <point x="834" y="284"/>
      <point x="836" y="20"/>
      <point x="1024" y="20" type="curve" smooth="yes"/>
      <point x="1376" y="20"/>
      <point x="1652" y="562"/>
      <point x="1798" y="1176" type="curve"/>
      <point x="1806" y="1176" type="line"/>
      <point x="1650" y="594"/>
      <point x="1426" y="-40"/>
      <point x="868" y="-40" type="curve" smooth="yes"/>
      <point x="430" y="-40"/>
      <point x="248" y="214"/>
      <point x="368" y="578" type="curve" smooth="yes"/>
      <point x="742" y="1696" type="line" smooth="yes"/>
      <point x="750" y="1720"/>
      <point x="754" y="1750"/>
      <point x="754" y="1770" type="curve" smooth="yes"/>
      <point x="754" y="1816"/>
      <point x="726" y="1847"/>
      <point x="666" y="1847" type="curve" smooth="yes"/>
      <point x="400" y="1847"/>
      <point x="202" y="1568"/>
      <point x="48" y="1212" type="curve"/>
      <point x="40" y="1216" type="line"/>
      <point x="216" y="1626"/>
      <point x="438" y="1926"/>
      <point x="872" y="1926" type="curve" smooth="yes"/>
      <point x="1126" y="1926"/>
      <point x="1264" y="1823"/>
      <point x="1264" y="1606" type="curve" smooth="yes"/>
      <point x="1264" y="1544"/>
      <point x="1251" y="1494"/>
      <point x="1243" y="1466" type="curve" smooth="yes"/>
    </contour>
    <contour>
      <point x="1966" y="1884" type="line"/>
      <point x="2540" y="1884" type="line"/>
      <point x="2268" y="733" type="line" smooth="yes"/>
      <point x="2186" y="389"/>
      <point x="2201" y="2"/>
      <point x="2525" y="2" type="curve" smooth="yes"/>
      <point x="3165" y="2"/>
      <point x="3613" y="918"/>
      <point x="3613" y="1410" type="curve" smooth="yes"/>
      <point x="3613" y="1486"/>
      <point x="3598" y="1549"/>
      <point x="3588" y="1575" type="curve"/>
      <point x="3572" y="1387"/>
      <point x="3419" y="1249"/>
      <point x="3191" y="1249" type="curve" smooth="yes"/>
      <point x="2965" y="1249"/>
      <point x="2842" y="1422"/>
      <point x="2842" y="1586" type="curve" smooth="yes"/>
      <point x="2842" y="1770"/>
      <point x="3003" y="1922"/>
      <point x="3206" y="1922" type="curve" smooth="yes"/>
      <point x="3444" y="1922"/>
      <point x="3621" y="1722"/>
      <point x="3621" y="1410" type="curve" smooth="yes"/>
      <point x="3621" y="960"/>
      <point x="3211" y="-40"/>
      <point x="2412" y="-40" type="curve" smooth="yes"/>
      <point x="2027" y="-40"/>
      <point x="1529" y="136"/>
      <point x="1720" y="874" type="curve"/>
    </contour>
  </outline>
</glyph>
<glyph name="x" format="2">
  <advance width="1222"/>
  <unicode hex="0078"/>
  <outline>
    <contour>
      <point x="646" y="483" type="line"/>
      <point x="766" y="679"/>
      <point x="863" y="940"/>
      <point x="1051" y="940" type="curve" smooth="yes"/>
      <point x="1193" y="940"/>
      <point x="1253" y="832"/>
      <point x="1253" y="748" type="curve" smooth="yes"/>
      <point x="1253" y="656"/>
      <point x="1193" y="588"/>
      <point x="1097" y="588" type="curve" smooth="yes"/>
      <point x="997" y="588"/>
      <point x="947" y="672"/>
      <point x="947" y="742" type="curve" smooth="yes"/>
      <point x="947" y="816"/>
      <point x="1009" y="892"/>
      <point x="1102" y="892" type="curve" smooth="yes"/>
      <point x="1166" y="892"/>
      <point x="1221" y="848"/>
      <point x="1243" y="791" type="curve"/>
      <point x="1224" y="871"/>
      <point x="1155" y="936"/>
      <point x="1052" y="936" type="curve" smooth="yes"/>
      <point x="868" y="936"/>
      <point x="775" y="686"/>
      <point x="651" y="481" type="curve"/>
    </contour>
    <contour>
      <point x="602" y="497" type="line"/>
      <point x="460" y="261"/>
      <point x="350" y="-20"/>
      <point x="162" y="-20" type="curve" smooth="yes"/>
      <point x="20" y="-20"/>
      <point x="-40" y="88"/>
      <point x="-40" y="172" type="curve" smooth="yes"/>
      <point x="-40" y="264"/>
      <point x="20" y="332"/>
      <point x="116" y="332" type="curve" smooth="yes"/>
      <point x="216" y="332"/>
      <point x="266" y="248"/>
      <point x="266" y="178" type="curve" smooth="yes"/>
      <point x="266" y="104"/>
      <point x="205" y="28"/>
      <point x="109" y="28" type="curve" smooth="yes"/>
      <point x="32" y="28"/>
      <point x="-19" y="86"/>
      <point x="-34" y="144" type="curve"/>
      <point x="-16" y="45"/>
      <point x="59" y="-16"/>
      <point x="162" y="-16" type="curve" smooth="yes"/>
      <point x="346" y="-16"/>
      <point x="461" y="270"/>
      <point x="600" y="499" type="curve"/>
    </contour>
    <contour>
      <point x="1131" y="218" type="line"/>
      <point x="1066" y="48"/>
      <point x="965" y="-20"/>
      <point x="821" y="-20" type="curve" smooth="yes"/>
      <point x="667" y="-20"/>
      <point x="605" y="50"/>
      <point x="564" y="166" type="curve" smooth="yes"/>
      <point x="507" y="335"/>
      <point x="410" y="709"/>
      <point x="358" y="853" type="curve" smooth="yes"/>
      <point x="350" y="875"/>
      <point x="335" y="901"/>
      <point x="296" y="901" type="curve" smooth="yes"/>
      <point x="234" y="901"/>
      <point x="168" y="825"/>
      <point x="118" y="697" type="curve"/>
      <point x="115" y="698" type="line"/>
      <point x="179" y="868"/>
      <point x="267" y="944"/>
      <point x="431" y="944" type="curve" smooth="yes"/>
      <point x="585" y="944"/>
      <point x="639" y="874"/>
      <point x="680" y="758" type="curve" smooth="yes"/>
      <point x="739" y="581"/>
      <point x="820" y="267"/>
      <point x="890" y="73" type="curve" smooth="yes"/>
      <point x="898" y="51"/>
      <point x="922" y="24"/>
      <point x="953" y="24" type="curve" smooth="yes"/>
      <point x="1009" y="24"/>
      <point x="1081" y="96"/>
      <point x="1128" y="219" type="curve"/>
    </contour>
  </outline>
</glyph>
<glyph name="y" format="2">
  <advance width="2583"/>
  <unicode hex="0079"/>
  <outline>
    <contour>
      <point x="1414" y="-420" type="curve"/>
      <point x="1068" y="168"/>
      <point x="746" y="1443"/>
      <point x="636" y="1737" type="curve" smooth="yes"/>
      <point x="620" y="1783"/>
      <point x="590" y="1839"/>
      <point x="516" y="1839" type="curve" smooth="yes"/>
      <point x="395" y="1839"/>
      <point x="226" y="1662"/>
      <point x="142" y="1418" type="curve"/>
      <point x="136" y="1422" type="line"/>
      <point x="272" y="1790"/>
      <point x="508" y="1926"/>
      <point x="803" y="1926" type="curve" smooth="yes"/>
      <point x="1084" y="1926"/>
      <point x="1224" y="1778"/>
      <point x="1296" y="1540" type="curve" smooth="yes"/>
      <point x="1408" y="1172"/>
      <point x="1557" y="490"/>
      <point x="1833" y="84" type="curve"/>
      <point x="1702" y="-97"/>
      <point x="1560" y="-263"/>
    </contour>
    <contour>
      <point x="450" y="-1064" type="curve" smooth="yes"/>
      <point x="94" y="-1064"/>
      <point x="-82" y="-803"/>
      <point x="-82" y="-557" type="curve" smooth="yes"/>
      <point x="-82" y="-360"/>
      <point x="57" y="-184"/>
      <point x="254" y="-184" type="curve" smooth="yes"/>
      <point x="418" y="-184"/>
      <point x="565" y="-291"/>
      <point x="565" y="-488" type="curve" smooth="yes"/>
      <point x="565" y="-664"/>
      <point x="432" y="-790"/>
      <point x="258" y="-790" type="curve" smooth="yes"/>
      <point x="86" y="-790"/>
      <point x="-40" y="-696"/>
      <point x="-72" y="-578" type="curve"/>
      <point x="-66" y="-814"/>
      <point x="110" y="-1056"/>
      <point x="450" y="-1056" type="curve" smooth="yes"/>
      <point x="1220" y="-1056"/>
      <point x="2525" y="949"/>
      <point x="2525" y="1479" type="curve" smooth="yes"/>
      <point x="2525" y="1553"/>
      <point x="2503" y="1611"/>
      <point x="2478" y="1648" type="curve"/>
      <point x="2486" y="1398"/>
      <point x="2318" y="1294"/>
      <point x="2150" y="1294" type="curve" smooth="yes"/>
      <point x="1924" y="1294"/>
      <point x="1802" y="1467"/>
      <point x="1802" y="1610" type="curve" smooth="yes"/>
      <point x="1802" y="1774"/>
      <point x="1931" y="1926"/>
      <point x="2144" y="1926" type="curve" smooth="yes"/>
      <point x="2414" y="1926"/>
      <point x="2533" y="1688"/>
      <point x="2533" y="1479" type="curve" smooth="yes"/>
      <point x="2533" y="947"/>
      <point x="1228" y="-1064"/>
    </contour>
  </outline>
</glyph>
<glyph name="z" format="2">
  <advance width="906"/>
  <unicode hex="007A"/>
  <outline>
    <contour>
      <point x="50" y="479" type="line"/>
      <point x="158" y="939" type="line"/>
      <point x="266" y="879"/>
      <point x="386" y="861"/>
      <point x="508" y="861" type="curve" smooth="yes"/>
      <point x="624" y="861"/>
      <point x="802" y="879"/>
      <point x="876" y="939" type="curve"/>
      <point x="879" y="937" type="line"/>
      <point x="711" y="797"/>
      <point x="504" y="610"/>
      <point x="344" y="610" type="curve" smooth="yes"/>
      <point x="256" y="610"/>
      <point x="156" y="641"/>
      <point x="104" y="686" type="curve"/>
      <point x="54" y="479" type="line"/>
    </contour>
    <contour>
      <point x="-33" y="-3" type="line"/>
      <point x="-55" y="-18" type="line"/>
      <point x="872" y="936" type="line"/>
      <point x="879" y="937" type="line"/>
    </contour>
    <contour>
      <point x="884" y="358" type="curve"/>
      <point x="864" y="294"/>
      <point x="813" y="242"/>
      <point x="733" y="242" type="curve" smooth="yes"/>
      <point x="664" y="242"/>
      <point x="594" y="302"/>
      <point x="594" y="382" type="curve" smooth="yes"/>
      <point x="594" y="472"/>
      <point x="668" y="523"/>
      <point x="738" y="523" type="curve" smooth="yes"/>
      <point x="818" y="523"/>
      <point x="888" y="467"/>
      <point x="888" y="365" type="curve" smooth="yes"/>
      <point x="888" y="245"/>
      <point x="758" y="-20"/>
      <point x="534" y="-20" type="curve" smooth="yes"/>
      <point x="392" y="-20"/>
      <point x="326" y="78"/>
      <point x="194" y="78" type="curve" smooth="yes"/>
      <point x="98" y="78"/>
      <point x="12" y="44"/>
      <point x="-52" y="-20" type="curve"/>
      <point x="-54" y="-18" type="line"/>
      <point x="81" y="102"/>
      <point x="274" y="271"/>
      <point x="414" y="271" type="curve" smooth="yes"/>
      <point x="552" y="271"/>
      <point x="566" y="154"/>
      <point x="720" y="154" type="curve" smooth="yes"/>
      <point x="820" y="154"/>
      <point x="874" y="250"/>
    </contour>
  </outline>
</glyph>
<glyph name="braceleft" format="2">
  <advance width="643"/>
  <unicode hex="007B"/>
  <outline>
    <contour>
      <point x="864" y="1560" type="curve"/>
      <point x="864" y="1538" type="line"/>
      <point x="710" y="1538"/>
      <point x="595" y="1410"/>
      <point x="595" y="1234" type="curve" smooth="yes"/>
      <point x="595" y="1122"/>
      <point x="618" y="1062"/>
      <point x="618" y="922" type="curve" smooth="yes"/>
      <point x="618" y="726"/>
      <point x="348" y="645"/>
      <point x="170" y="625" type="curve"/>
      <point x="170" y="642" type="line"/>
      <point x="230" y="662"/>
      <point x="350" y="712"/>
      <point x="350" y="814" type="curve" smooth="yes"/>
      <point x="350" y="930"/>
      <point x="304" y="968"/>
      <point x="304" y="1142" type="curve" smooth="yes"/>
      <point x="304" y="1400"/>
      <point x="534" y="1560"/>
    </contour>
    <contour>
      <point x="444" y="-300" type="line"/>
      <point x="154" y="-300"/>
      <point x="10" y="-238"/>
      <point x="10" y="-50" type="curve" smooth="yes"/>
      <point x="10" y="194"/>
      <point x="270" y="364"/>
      <point x="270" y="490" type="curve" smooth="yes"/>
      <point x="270" y="572"/>
      <point x="230" y="599"/>
      <point x="170" y="619" type="curve"/>
      <point x="170" y="636" type="line"/>
      <point x="348" y="616"/>
      <point x="484" y="576"/>
      <point x="484" y="420" type="curve" smooth="yes"/>
      <point x="484" y="220"/>
      <point x="296" y="60"/>
      <point x="296" y="-92" type="curve" smooth="yes"/>
      <point x="296" y="-188"/>
      <point x="320" y="-278"/>
      <point x="444" y="-278" type="curve"/>
    </contour>
  </outline>
</glyph>
<glyph name="asciitilde" format="2">
  <advance width="2818"/>
  <unicode hex="007E"/>
  <outline>
    <contour>
      <point x="1098" y="1728" type="curve" smooth="yes"/>
      <point x="860" y="1728"/>
      <point x="731" y="1637"/>
      <point x="659" y="1404" type="curve"/>
      <point x="614" y="1404" type="line"/>
      <point x="716" y="1876"/>
      <point x="921" y="2150"/>
      <point x="1286" y="2150" type="curve" smooth="yes"/>
      <point x="1736" y="2150"/>
      <point x="1776" y="1766"/>
      <point x="2170" y="1766" type="curve" smooth="yes"/>
      <point x="2449" y="1766"/>
      <point x="2578" y="1855"/>
      <point x="2650" y="2088" type="curve"/>
      <point x="2696" y="2088" type="line"/>
      <point x="2594" y="1616"/>
      <point x="2389" y="1343"/>
      <point x="2024" y="1343" type="curve" smooth="yes"/>
      <point x="1524" y="1343"/>
      <point x="1479" y="1728"/>
    </contour>
  </outline>
</glyph>
<glyph name="sterling" format="2">
  <advance width="1250"/>
  <unicode hex="00A3"/>
  <outline>
    <contour>
      <point x="1284" y="435" type="line"/>
      <point x="1244" y="135"/>
      <point x="1062" y="-60"/>
      <point x="824" y="-60" type="curve" smooth="yes"/>
      <point x="550" y="-60"/>
      <point x="403" y="60"/>
      <point x="277" y="60" type="curve" smooth="yes"/>
      <point x="185" y="60"/>
      <point x="100" y="20"/>
      <point x="70" y="-40" type="curve"/>
      <point x="66" y="-40" type="line"/>
      <point x="136" y="148"/>
      <point x="338" y="314"/>
      <point x="534" y="314" type="curve" smooth="yes"/>
      <point x="734" y="314"/>
      <point x="774" y="246"/>
      <point x="956" y="246" type="curve" smooth="yes"/>
      <point x="1112" y="246"/>
      <point x="1240" y="271"/>
      <point x="1280" y="435" type="curve"/>
    </contour>
    <contour>
      <point x="1130" y="810" type="line"/>
      <point x="1130" y="806" type="line"/>
      <point x="130" y="806" type="line"/>
      <point x="130" y="810" type="line"/>
    </contour>
    <contour>
      <point x="356" y="1030" type="curve" smooth="yes"/>
      <point x="356" y="1330"/>
      <point x="667" y="1520"/>
      <point x="1029" y="1520" type="curve" smooth="yes"/>
      <point x="1323" y="1520"/>
      <point x="1449" y="1356"/>
      <point x="1449" y="1172" type="curve" smooth="yes"/>
      <point x="1449" y="1060"/>
      <point x="1366" y="988"/>
      <point x="1276" y="988" type="curve" smooth="yes"/>
      <point x="1186" y="988"/>
      <point x="1102" y="1050"/>
      <point x="1102" y="1160" type="curve" smooth="yes"/>
      <point x="1102" y="1260"/>
      <point x="1188" y="1320"/>
      <point x="1276" y="1320" type="curve" smooth="yes"/>
      <point x="1368" y="1320"/>
      <point x="1433" y="1252"/>
      <point x="1445" y="1190" type="curve"/>
      <point x="1439" y="1371"/>
      <point x="1297" y="1509"/>
      <point x="1079" y="1509" type="curve" smooth="yes"/>
      <point x="841" y="1509"/>
      <point x="718" y="1278"/>
      <point x="718" y="1130" type="curve" smooth="yes"/>
      <point x="718" y="1002"/>
      <point x="760" y="940"/>
      <point x="760" y="780" type="curve" smooth="yes"/>
      <point x="760" y="380"/>
      <point x="52" y="330"/>
      <point x="68" y="-40" type="curve"/>
      <point x="64" y="-40" type="line"/>
      <point x="36" y="238"/>
      <point x="418" y="384"/>
      <point x="418" y="622" type="curve" smooth="yes"/>
      <point x="418" y="740"/>
      <point x="356" y="860"/>
    </contour>
  </outline>
</glyph>
<glyph name="brokenbar" format="1">
  <advance width="900"/>
  <unicode hex="00A6"/>
  <outline>
    <contour>
      <point x="440" y="680" type="line"/>
      <point x="448" y="680" type="line"/>
      <point x="56" y="-1024" type="line"/>
      <point x="48" y="-1024" type="line"/>
    </contour>
    <contour>
      <point x="1022" y="3194" type="line"/>
      <point x="1030" y="3194" type="line"/>
      <point x="678" y="1676" type="line"/>
      <point x="670" y="1676" type="line"/>
    </contour>
  </outline>
</glyph>
<glyph name="section" format="2">
  <advance width="947"/>
  <unicode hex="00A7"/>
  <outline>
    <contour>
      <point x="452" y="1288" type="curve" smooth="yes"/>
      <point x="452" y="1066"/>
      <point x="946" y="1116"/>
      <point x="946" y="820" type="curve" smooth="yes"/>
      <point x="946" y="666"/>
      <point x="766" y="585"/>
      <point x="662" y="518" type="curve"/>
      <point x="660" y="518" type="line"/>
      <point x="728" y="562"/>
      <point x="774" y="606"/>
      <point x="774" y="686" type="curve" smooth="yes"/>
      <point x="774" y="898"/>
      <point x="281" y="817"/>
      <point x="281" y="1161" type="curve" smooth="yes"/>
      <point x="281" y="1369"/>
      <point x="506" y="1520"/>
      <point x="716" y="1520" type="curve" smooth="yes"/>
      <point x="912" y="1520"/>
      <point x="1037" y="1394"/>
      <point x="1037" y="1262" type="curve" smooth="yes"/>
      <point x="1037" y="1140"/>
      <point x="974" y="1080"/>
      <point x="884" y="1080" type="curve" smooth="yes"/>
      <point x="804" y="1080"/>
      <point x="746" y="1130"/>
      <point x="746" y="1222" type="curve" smooth="yes"/>
      <point x="746" y="1296"/>
      <point x="811" y="1352"/>
      <point x="890" y="1352" type="curve" smooth="yes"/>
      <point x="972" y="1352"/>
      <point x="1019" y="1302"/>
      <point x="1033" y="1272" type="curve"/>
      <point x="1024" y="1389"/>
      <point x="919" y="1515"/>
      <point x="716" y="1515" type="curve" smooth="yes"/>
      <point x="570" y="1515"/>
      <point x="452" y="1412"/>
    </contour>
    <contour>
      <point x="840" y="354" type="curve" smooth="yes"/>
      <point x="840" y="146"/>
      <point x="610" y="-20"/>
      <point x="360" y="-20" type="curve" smooth="yes"/>
      <point x="184" y="-20"/>
      <point x="-8" y="63"/>
      <point x="-8" y="255" type="curve" smooth="yes"/>
      <point x="-8" y="347"/>
      <point x="60" y="429"/>
      <point x="160" y="429" type="curve" smooth="yes"/>
      <point x="240" y="429"/>
      <point x="300" y="382"/>
      <point x="300" y="300" type="curve" smooth="yes"/>
      <point x="300" y="216"/>
      <point x="234" y="157"/>
      <point x="146" y="157" type="curve" smooth="yes"/>
      <point x="74" y="157"/>
      <point x="15" y="196"/>
      <point x="-3" y="251" type="curve"/>
      <point x="3" y="62"/>
      <point x="186" y="-15"/>
      <point x="360" y="-15" type="curve" smooth="yes"/>
      <point x="566" y="-15"/>
      <point x="662" y="118"/>
      <point x="662" y="212" type="curve" smooth="yes"/>
      <point x="662" y="434"/>
      <point x="138" y="384"/>
      <point x="138" y="670" type="curve" smooth="yes"/>
      <point x="138" y="814"/>
      <point x="306" y="948"/>
      <point x="404" y="990" type="curve"/>
      <point x="407" y="990" type="line"/>
      <point x="369" y="966"/>
      <point x="329" y="928"/>
      <point x="329" y="844" type="curve" smooth="yes"/>
      <point x="329" y="612"/>
      <point x="840" y="678"/>
    </contour>
  </outline>
</glyph>
<glyph name="acute" format="1">
  <advance width="1657"/>
  <unicode hex="00B4"/>
  <outline>
    <contour>
      <point x="1884" y="2849" type="curve" smooth="yes"/>
      <point x="940" y="2946" type="line"/>
      <point x="936" y="2954" type="line"/>
      <point x="1843" y="3290" type="line" smooth="yes"/>
      <point x="2001" y="3353"/>
      <point x="2150" y="3212"/>
      <point x="2150" y="3072" type="curve" smooth="yes"/>
      <point x="2150" y="2932"/>
      <point x="2022" y="2827"/>
    </contour>
  </outline>
</glyph>
<glyph name="mu" format="2">
  <advance width="1310"/>
  <unicode hex="00B5"/>
  <outline>
    <contour>
      <point x="20" y="-182" type="line" smooth="yes"/>
      <point x="-24" y="-372"/>
      <point x="12" y="-514"/>
      <point x="190" y="-516" type="curve"/>
      <point x="250" y="-512" type="line"/>
      <point x="196" y="-506"/>
      <point x="126" y="-474"/>
      <point x="126" y="-382" type="curve" smooth="yes"/>
      <point x="126" y="-308"/>
      <point x="188" y="-252"/>
      <point x="254" y="-252" type="curve" smooth="yes"/>
      <point x="320" y="-252"/>
      <point x="384" y="-304"/>
      <point x="384" y="-380" type="curve" smooth="yes"/>
      <point x="384" y="-458"/>
      <point x="336" y="-520"/>
      <point x="190" y="-520" type="curve" smooth="yes"/>
      <point x="10" y="-520"/>
      <point x="-28" y="-372"/>
      <point x="16" y="-182" type="curve" smooth="yes"/>
      <point x="206" y="642" type="line"/>
      <point x="210" y="642" type="line"/>
    </contour>
    <component base="u"/>
  </outline>
</glyph>
<glyph name="AE" format="1">
  <advance width="4218"/>
  <unicode hex="00C6"/>
  <outline>
    <contour>
      <point x="2925" y="3072" type="line"/>
      <point x="4604" y="3072" type="line"/>
      <point x="4407" y="2232" type="line"/>
      <point x="4399" y="2232" type="line"/>
      <point x="4440" y="2670"/>
      <point x="4224" y="3064"/>
      <point x="3744" y="3064" type="curve" smooth="yes"/>
      <point x="2925" y="3064" type="line"/>
    </contour>
    <contour>
      <point x="3084" y="1586" type="curve" smooth="yes"/>
      <point x="2814" y="1586" type="line"/>
      <point x="2814" y="1594" type="line"/>
      <point x="3084" y="1594" type="line" smooth="yes"/>
      <point x="3318" y="1594"/>
      <point x="3606" y="1807"/>
      <point x="3729" y="2081" type="curve"/>
      <point x="3737" y="2081" type="line"/>
      <point x="3506" y="1077" type="line"/>
      <point x="3498" y="1077" type="line"/>
      <point x="3498" y="1351"/>
      <point x="3318" y="1586"/>
    </contour>
    <contour>
      <point x="3932" y="0" type="line"/>
      <point x="1638" y="0" type="line"/>
      <point x="1638" y="8" type="line"/>
      <point x="3032" y="8" type="line" smooth="yes"/>
      <point x="3594" y="8"/>
      <point x="3957" y="402"/>
      <point x="4137" y="922" type="curve"/>
      <point x="4145" y="922" type="line"/>
    </contour>
    <contour>
      <point x="2700" y="3072" type="line"/>
      <point x="3334" y="3072" type="line"/>
      <point x="2622" y="0" type="line"/>
      <point x="1986" y="0" type="line"/>
    </contour>
    <contour>
      <point x="1086" y="1008" type="line"/>
      <point x="2274" y="1008" type="line"/>
      <point x="2274" y="1000" type="line"/>
      <point x="1086" y="1000" type="line"/>
    </contour>
    <contour>
      <point x="2692" y="3072" type="line"/>
      <point x="2704" y="3072" type="line"/>
      <point x="308" y="0" type="line"/>
      <point x="294" y="0" type="line"/>
    </contour>
    <contour>
      <point x="-102" y="8" type="line"/>
      <point x="798" y="8" type="line"/>
      <point x="798" y="0" type="line"/>
      <point x="-102" y="0" type="line"/>
    </contour>
  </outline>
</glyph>
<glyph name="Eth" format="2">
  <advance width="1514"/>
  <unicode hex="00D0"/>
  <outline>
    <contour>
      <point x="167" y="752" type="line"/>
      <point x="809" y="752" type="line"/>
      <point x="809" y="748" type="line"/>
      <point x="167" y="748" type="line"/>
    </contour>
    <contour>
      <point x="473" y="1500" type="line"/>
      <point x="783" y="1500" type="line"/>
      <point x="442" y="0" type="line"/>
      <point x="133" y="0" type="line"/>
    </contour>
    <contour>
      <point x="653" y="0" type="curve" smooth="yes"/>
      <point x="-47" y="0" type="line"/>
      <point x="-47" y="4" type="line"/>
      <point x="597" y="4" type="line" smooth="yes"/>
      <point x="991" y="4"/>
      <point x="1206" y="687"/>
      <point x="1206" y="1111" type="curve" smooth="yes"/>
      <point x="1206" y="1295"/>
      <point x="1160" y="1496"/>
      <point x="912" y="1496" type="curve" smooth="yes"/>
      <point x="273" y="1496" type="line"/>
      <point x="273" y="1500" type="line"/>
      <point x="993" y="1500" type="line" smooth="yes"/>
      <point x="1319" y="1500"/>
      <point x="1543" y="1299"/>
      <point x="1543" y="973" type="curve" smooth="yes"/>
      <point x="1543" y="427"/>
      <point x="1139" y="0"/>
    </contour>
  </outline>
</glyph>
<glyph name="Thorn" format="1">
  <advance width="2744"/>
  <unicode hex="00DE"/>
  <outline>
    <contour>
      <point x="1382" y="738" type="curve" smooth="yes"/>
      <point x="932" y="738" type="line"/>
      <point x="932" y="746" type="line"/>
      <point x="1280" y="746" type="line" smooth="yes"/>
      <point x="1796" y="746"/>
      <point x="2052" y="1438"/>
      <point x="2052" y="1884" type="curve" smooth="yes"/>
      <point x="2052" y="2126"/>
      <point x="1981" y="2450"/>
      <point x="1690" y="2450" type="curve" smooth="yes"/>
      <point x="1054" y="2450" type="line"/>
      <point x="1054" y="2458" type="line"/>
      <point x="1792" y="2458" type="line" smooth="yes"/>
      <point x="2328" y="2458"/>
      <point x="2744" y="2274"/>
      <point x="2744" y="1782" type="curve" smooth="yes"/>
      <point x="2744" y="1168"/>
      <point x="2206" y="738"/>
    </contour>
    <contour>
      <point x="-143" y="8" type="line"/>
      <point x="1229" y="8" type="line"/>
      <point x="1229" y="0" type="line"/>
      <point x="-143" y="0" type="line"/>
    </contour>
    <contour>
      <point x="559" y="3072" type="line"/>
      <point x="1931" y="3072" type="line"/>
      <point x="1931" y="3064" type="line"/>
      <point x="559" y="3064" type="line"/>
    </contour>
    <contour>
      <point x="917" y="3072" type="line"/>
      <point x="1552" y="3072" type="line"/>
      <point x="840" y="0" type="line"/>
      <point x="204" y="0" type="line"/>
    </contour>
  </outline>
</glyph>
<glyph name="germandbls" format="2">
  <advance width="1531"/>
  <unicode hex="00DF"/>
  <outline>
    <contour>
      <point x="1472" y="430" type="curve" smooth="yes"/>
      <point x="1472" y="100"/>
      <point x="1174" y="-20"/>
      <point x="942" y="-20" type="curve" smooth="yes"/>
      <point x="744" y="-20"/>
      <point x="656" y="118"/>
      <point x="656" y="272" type="curve" smooth="yes"/>
      <point x="656" y="394"/>
      <point x="730" y="482"/>
      <point x="830" y="482" type="curve" smooth="yes"/>
      <point x="920" y="482"/>
      <point x="988" y="422"/>
      <point x="988" y="330" type="curve" smooth="yes"/>
      <point x="988" y="246"/>
      <point x="896" y="180"/>
      <point x="818" y="180" type="curve" smooth="yes"/>
      <point x="736" y="180"/>
      <point x="677" y="231"/>
      <point x="661" y="291" type="curve"/>
      <point x="649" y="124"/>
      <point x="748" y="-12"/>
      <point x="922" y="-12" type="curve" smooth="yes"/>
      <point x="1100" y="-12"/>
      <point x="1160" y="252"/>
      <point x="1160" y="440" type="curve" smooth="yes"/>
      <point x="1160" y="628"/>
      <point x="1084" y="808"/>
      <point x="906" y="808" type="curve"/>
      <point x="906" y="812" type="line"/>
      <point x="1268" y="812"/>
      <point x="1472" y="690"/>
    </contour>
    <contour>
      <point x="-50" y="4" type="line"/>
      <point x="610" y="4" type="line"/>
      <point x="610" y="0" type="line"/>
      <point x="-50" y="0" type="line"/>
    </contour>
    <contour>
      <point x="906" y="810" type="curve"/>
      <point x="906" y="814" type="line"/>
      <point x="1164" y="814"/>
      <point x="1280" y="1064"/>
      <point x="1280" y="1232" type="curve" smooth="yes"/>
      <point x="1280" y="1376"/>
      <point x="1224" y="1516"/>
      <point x="1076" y="1516" type="curve" smooth="yes"/>
      <point x="788" y="1516"/>
      <point x="712" y="1232"/>
      <point x="650" y="962" type="curve" smooth="yes"/>
      <point x="430" y="0" type="line"/>
      <point x="130" y="0" type="line"/>
      <point x="354" y="982" type="line" smooth="yes"/>
      <point x="434" y="1339"/>
      <point x="690" y="1520"/>
      <point x="1086" y="1520" type="curve" smooth="yes"/>
      <point x="1352" y="1520"/>
      <point x="1597" y="1428"/>
      <point x="1597" y="1202" type="curve" smooth="yes"/>
      <point x="1597" y="962"/>
      <point x="1308" y="810"/>
    </contour>
  </outline>
</glyph>
<glyph name="ae" format="2">
  <advance width="1675"/>
  <unicode hex="00E6"/>
  <outline>
    <contour>
      <point x="548" y="504" type="curve" smooth="yes"/>
      <point x="716" y="504" type="line"/>
      <point x="716" y="500" type="line"/>
      <point x="608" y="500" type="line" smooth="yes"/>
      <point x="466" y="500"/>
      <point x="333" y="340"/>
      <point x="333" y="156" type="curve" smooth="yes"/>
      <point x="333" y="52"/>
      <point x="370" y="-12"/>
      <point x="420" y="-12" type="curve" smooth="yes"/>
      <point x="524" y="-12"/>
      <point x="612" y="166"/>
      <point x="656" y="362" type="curve" smooth="yes"/>
      <point x="712" y="610" type="line" smooth="yes"/>
      <point x="740" y="738"/>
      <point x="736" y="931"/>
      <point x="586" y="931" type="curve" smooth="yes"/>
      <point x="478" y="931"/>
      <point x="344" y="891"/>
      <point x="282" y="817" type="curve"/>
      <point x="418" y="896"/>
      <point x="548" y="830"/>
      <point x="548" y="736" type="curve" smooth="yes"/>
      <point x="548" y="646"/>
      <point x="470" y="582"/>
      <point x="380" y="582" type="curve" smooth="yes"/>
      <point x="280" y="582"/>
      <point x="226" y="630"/>
      <point x="226" y="712" type="curve" smooth="yes"/>
      <point x="226" y="836"/>
      <point x="404" y="936"/>
      <point x="606" y="936" type="curve" smooth="yes"/>
      <point x="866" y="936"/>
      <point x="974" y="822"/>
      <point x="942" y="610" type="curve"/>
      <point x="866" y="362" type="line"/>
      <point x="820" y="114"/>
      <point x="602" y="-20"/>
      <point x="360" y="-20" type="curve" smooth="yes"/>
      <point x="182" y="-20"/>
      <point x="36" y="38"/>
      <point x="36" y="186" type="curve" smooth="yes"/>
      <point x="36" y="374"/>
      <point x="224" y="504"/>
    </contour>
    <contour>
      <point x="1396" y="764" type="curve" smooth="yes"/>
      <point x="1396" y="848"/>
      <point x="1379" y="935"/>
      <point x="1322" y="935" type="curve" smooth="yes"/>
      <point x="1194" y="935"/>
      <point x="1008" y="588"/>
      <point x="1008" y="260" type="curve" smooth="yes"/>
      <point x="1008" y="122"/>
      <point x="1050" y="3"/>
      <point x="1158" y="3" type="curve" smooth="yes"/>
      <point x="1304" y="3"/>
      <point x="1475" y="128"/>
      <point x="1564" y="286" type="curve"/>
      <point x="1568" y="286" type="line"/>
      <point x="1480" y="132"/>
      <point x="1310" y="-20"/>
      <point x="1058" y="-20" type="curve" smooth="yes"/>
      <point x="896" y="-20"/>
      <point x="750" y="80"/>
      <point x="750" y="320" type="curve"/>
      <point x="790" y="310" type="line"/>
      <point x="794" y="690"/>
      <point x="1052" y="940"/>
      <point x="1342" y="940" type="curve" smooth="yes"/>
      <point x="1506" y="940"/>
      <point x="1668" y="888"/>
      <point x="1668" y="734" type="curve" smooth="yes"/>
      <point x="1668" y="434"/>
      <point x="1132" y="432"/>
      <point x="990" y="432" type="curve"/>
      <point x="990" y="434" type="line"/>
      <point x="1128" y="434"/>
      <point x="1396" y="496"/>
    </contour>
  </outline>
</glyph>
<glyph name="eth" format="2">
  <advance width="1219"/>
  <unicode hex="00F0"/>
  <outline>
    <contour>
      <point x="470" y="1260" type="line"/>
      <point x="1350" y="1260" type="line"/>
      <point x="1350" y="1256" type="line"/>
      <point x="470" y="1256" type="line"/>
    </contour>
    <contour>
      <point x="1214" y="780" type="curve" smooth="yes"/>
      <point x="1214" y="360"/>
      <point x="873" y="-20"/>
      <point x="521" y="-20" type="curve" smooth="yes"/>
      <point x="249" y="-20"/>
      <point x="80" y="100"/>
      <point x="80" y="360" type="curve" smooth="yes"/>
      <point x="80" y="760"/>
      <point x="436" y="980"/>
      <point x="678" y="980" type="curve" smooth="yes"/>
      <point x="851" y="980"/>
      <point x="882" y="869"/>
      <point x="872" y="635" type="curve"/>
      <point x="868" y="740" type="line"/>
      <point x="868" y="850"/>
      <point x="832" y="959"/>
      <point x="742" y="959" type="curve" smooth="yes"/>
      <point x="554" y="959"/>
      <point x="387" y="518"/>
      <point x="387" y="240" type="curve" smooth="yes"/>
      <point x="387" y="102"/>
      <point x="411" y="-16"/>
      <point x="519" y="-16" type="curve" smooth="yes"/>
      <point x="687" y="-16"/>
      <point x="868" y="462"/>
      <point x="868" y="740" type="curve"/>
      <point x="868" y="740" type="line"/>
      <point x="878" y="1184"/>
      <point x="868" y="1516"/>
      <point x="480" y="1516" type="curve"/>
      <point x="480" y="1520" type="line"/>
      <point x="976" y="1520"/>
      <point x="1214" y="1196"/>
    </contour>
  </outline>
</glyph>
<glyph name="divide" format="1">
  <advance width="2395"/>
  <unicode hex="00F7"/>
  <outline>
    <contour>
      <point x="386" y="1622" type="line"/>
      <point x="2476" y="1622" type="line"/>
      <point x="2476" y="1614" type="line"/>
      <point x="386" y="1614" type="line"/>
    </contour>
    <contour>
      <point x="900" y="820" type="curve" smooth="yes"/>
      <point x="900" y="1023"/>
      <point x="1066" y="1188"/>
      <point x="1269" y="1188" type="curve" smooth="yes"/>
      <point x="1472" y="1188"/>
      <point x="1638" y="1023"/>
      <point x="1638" y="820" type="curve" smooth="yes"/>
      <point x="1638" y="617"/>
      <point x="1472" y="452"/>
      <point x="1269" y="452" type="curve" smooth="yes"/>
      <point x="1066" y="452"/>
      <point x="900" y="617"/>
    </contour>
    <contour>
      <point x="1228" y="2376" type="curve" smooth="yes"/>
      <point x="1228" y="2579"/>
      <point x="1394" y="2744"/>
      <point x="1597" y="2744" type="curve" smooth="yes"/>
      <point x="1800" y="2744"/>
      <point x="1966" y="2579"/>
      <point x="1966" y="2376" type="curve" smooth="yes"/>
      <point x="1966" y="2173"/>
      <point x="1800" y="2008"/>
      <point x="1597" y="2008" type="curve" smooth="yes"/>
      <point x="1394" y="2008"/>
      <point x="1228" y="2173"/>
    </contour>
  </outline>
</glyph>
<glyph name="thorn" format="2">
  <advance width="1222"/>
  <unicode hex="00FE"/>
  <outline>
    <contour>
      <point x="439" y="291" type="curve" smooth="yes"/>
      <point x="439" y="165"/>
      <point x="471" y="42"/>
      <point x="553" y="42" type="curve" smooth="yes"/>
      <point x="691" y="42"/>
      <point x="859" y="401"/>
      <point x="859" y="669" type="curve" smooth="yes"/>
      <point x="859" y="797"/>
      <point x="818" y="881"/>
      <point x="746" y="881" type="curve" smooth="yes"/>
      <point x="571" y="881"/>
      <point x="439" y="509"/>
    </contour>
    <contour>
      <point x="435" y="291" type="curve" smooth="yes"/>
      <point x="435" y="507"/>
      <point x="564" y="940"/>
      <point x="846" y="940" type="curve" smooth="yes"/>
      <point x="984" y="940"/>
      <point x="1167" y="859"/>
      <point x="1167" y="599" type="curve" smooth="yes"/>
      <point x="1167" y="199"/>
      <point x="850" y="-20"/>
      <point x="642" y="-20" type="curve" smooth="yes"/>
      <point x="490" y="-20"/>
      <point x="435" y="107"/>
    </contour>
    <contour>
      <point x="-170" y="-496" type="line"/>
      <point x="380" y="-496" type="line"/>
      <point x="380" y="-500" type="line"/>
      <point x="-170" y="-500" type="line"/>
    </contour>
    <contour>
      <point x="418" y="1496" type="line"/>
      <point x="276" y="1496" type="line"/>
      <point x="276" y="1500" type="line"/>
      <point x="700" y="1500" type="line"/>
      <point x="488" y="575" type="line"/>
      <point x="454" y="449" type="line"/>
      <point x="438" y="349" type="line"/>
      <point x="240" y="-500" type="line"/>
      <point x="-40" y="-500" type="line"/>
    </contour>
  </outline>
</glyph>
<glyph name="kgreenlandic" format="2">
  <advance width="2516"/>
  <unicode hex="0138"/>
  <outline>
    <contour>
      <point x="2426" y="668" type="line"/>
      <point x="2270" y="258"/>
      <point x="2007" y="-40"/>
      <point x="1634" y="-40" type="curve" smooth="yes"/>
      <point x="1380" y="-40"/>
      <point x="1223" y="53"/>
      <point x="1223" y="299" type="curve" smooth="yes"/>
      <point x="1223" y="319"/>
      <point x="1227" y="365"/>
      <point x="1231" y="389" type="curve" smooth="yes"/>
      <point x="1270" y="574" type="line" smooth="yes"/>
      <point x="1322" y="812"/>
      <point x="1471" y="1153"/>
      <point x="1249" y="1153" type="curve" smooth="yes"/>
      <point x="1041" y="1153"/>
      <point x="972" y="938"/>
      <point x="938" y="778" type="curve"/>
      <point x="930" y="778" type="line"/>
      <point x="1008" y="1126"/>
      <point x="1146" y="1194"/>
      <point x="1376" y="1194" type="curve" smooth="yes"/>
      <point x="1658" y="1194"/>
      <point x="1932" y="1028"/>
      <point x="1810" y="496" type="curve" smooth="yes"/>
      <point x="1730" y="122" type="line" smooth="yes"/>
      <point x="1730" y="114"/>
      <point x="1726" y="94"/>
      <point x="1726" y="86" type="curve" smooth="yes"/>
      <point x="1726" y="40"/>
      <point x="1754" y="20"/>
      <point x="1808" y="20" type="curve" smooth="yes"/>
      <point x="2040" y="20"/>
      <point x="2286" y="311"/>
      <point x="2420" y="672" type="curve"/>
    </contour>
    <contour>
      <point x="1021" y="1020" type="curve"/>
      <point x="1026" y="1027" type="line"/>
      <point x="1044" y="1014"/>
      <point x="1076" y="1000"/>
      <point x="1122" y="1000" type="curve" smooth="yes"/>
      <point x="1284" y="1000"/>
      <point x="1378" y="1216"/>
      <point x="1485" y="1478" type="curve" smooth="yes"/>
      <point x="1599" y="1756"/>
      <point x="1769" y="1926"/>
      <point x="1994" y="1926" type="curve" smooth="yes"/>
      <point x="2219" y="1926"/>
      <point x="2415" y="1766"/>
      <point x="2415" y="1512" type="curve" smooth="yes"/>
      <point x="2415" y="1308"/>
      <point x="2277" y="1184"/>
      <point x="2113" y="1184" type="curve" smooth="yes"/>
      <point x="1949" y="1184"/>
      <point x="1827" y="1314"/>
      <point x="1827" y="1470" type="curve" smooth="yes"/>
      <point x="1827" y="1626"/>
      <point x="1960" y="1744"/>
      <point x="2116" y="1744" type="curve" smooth="yes"/>
      <point x="2263" y="1744"/>
      <point x="2370" y="1654"/>
      <point x="2404" y="1546" type="curve"/>
      <point x="2384" y="1763"/>
      <point x="2217" y="1916"/>
      <point x="1994" y="1916" type="curve" smooth="yes"/>
      <point x="1782" y="1916"/>
      <point x="1609" y="1760"/>
      <point x="1491" y="1470" type="curve" smooth="yes"/>
      <point x="1378" y="1192"/>
      <point x="1286" y="992"/>
      <point x="1122" y="992" type="curve" smooth="yes"/>
      <point x="1076" y="992"/>
      <point x="1041" y="1006"/>
    </contour>
    <contour>
      <point x="618" y="1876" type="line"/>
      <point x="254" y="1876" type="line"/>
      <point x="254" y="1884" type="line"/>
      <point x="1196" y="1884" type="line"/>
      <point x="758" y="0" type="line"/>
      <point x="184" y="0" type="line"/>
    </contour>
  </outline>
</glyph>
<glyph name="lslash" format="2">
  <advance width="712"/>
  <unicode hex="0142"/>
  <outline>
    <contour>
      <point x="60" y="760" type="line"/>
      <point x="750" y="1160" type="line"/>
      <point x="750" y="1156" type="line"/>
      <point x="60" y="756" type="line"/>
    </contour>
    <component base="l"/>
  </outline>
</glyph>
<glyph name="uni0212" format="2">
  <advance width="3143"/>
  <unicode hex="0212"/>
  <outline>
    <contour>
      <point x="2460" y="3358" type="line"/>
      <point x="2490" y="3534"/>
      <point x="2280" y="3621"/>
      <point x="2058" y="3621" type="curve" smooth="yes"/>
      <point x="1836" y="3621"/>
      <point x="1545" y="3558"/>
      <point x="1492" y="3358" type="curve"/>
      <point x="1484" y="3358" type="line"/>
      <point x="1524" y="3608"/>
      <point x="1669" y="4010"/>
      <point x="2099" y="4010" type="curve" smooth="yes"/>
      <point x="2509" y="4010"/>
      <point x="2508" y="3608"/>
      <point x="2468" y="3358" type="curve"/>
    </contour>
    <component base="R"/>
  </outline>
</glyph>
<glyph name="uni0213" format="1">
  <advance width="1948"/>
  <unicode hex="0213"/>
  <outline>
    <contour>
      <point x="1760" y="2191" type="line"/>
      <point x="1790" y="2367"/>
      <point x="1580" y="2454"/>
      <point x="1358" y="2454" type="curve" smooth="yes"/>
      <point x="1136" y="2454"/>
      <point x="845" y="2391"/>
      <point x="792" y="2191" type="curve"/>
      <point x="784" y="2191" type="line"/>
      <point x="824" y="2441"/>
      <point x="969" y="2843"/>
      <point x="1399" y="2843" type="curve" smooth="yes"/>
      <point x="1809" y="2843"/>
      <point x="1808" y="2441"/>
      <point x="1768" y="2191" type="curve"/>
    </contour>
    <component base="r"/>
  </outline>
</glyph>
<glyph name="uni0237" format="1">
  <advance width="1226"/>
  <unicode hex="0237"/>
  <outline>
    <contour>
      <point x="-804" y="-692" type="curve"/>
      <point x="-757" y="-870"/>
      <point x="-549" y="-1052"/>
      <point x="-295" y="-1052" type="curve" smooth="yes"/>
      <point x="94" y="-1052"/>
      <point x="70" y="-410"/>
      <point x="184" y="82" type="curve" smooth="yes"/>
      <point x="602" y="1876" type="line"/>
      <point x="218" y="1876" type="line"/>
      <point x="218" y="1884" type="line"/>
      <point x="1169" y="1884" type="line"/>
      <point x="768" y="-50" type="line" smooth="yes"/>
      <point x="662" y="-562"/>
      <point x="258" y="-1064"/>
      <point x="-274" y="-1064" type="curve" smooth="yes"/>
      <point x="-606" y="-1064"/>
      <point x="-840" y="-811"/>
      <point x="-840" y="-598" type="curve" smooth="yes"/>
      <point x="-840" y="-389"/>
      <point x="-667" y="-242"/>
      <point x="-483" y="-242" type="curve" smooth="yes"/>
      <point x="-319" y="-242"/>
      <point x="-172" y="-360"/>
      <point x="-172" y="-532" type="curve" smooth="yes"/>
      <point x="-172" y="-724"/>
      <point x="-336" y="-858"/>
      <point x="-526" y="-858" type="curve" smooth="yes"/>
      <point x="-671" y="-858"/>
      <point x="-757" y="-776"/>
    </contour>
  </outline>
</glyph>
<glyph name="circumflex" format="2">
  <advance width="1781"/>
  <unicode hex="02C6"/>
  <outline>
    <contour>
      <point x="1421" y="2868" type="line"/>
      <point x="660" y="2597" type="line"/>
      <point x="656" y="2602" type="line"/>
      <point x="1258" y="3154" type="line"/>
      <point x="1606" y="3154" type="line"/>
      <point x="2027" y="2602" type="line"/>
      <point x="2023" y="2597" type="line"/>
    </contour>
  </outline>
</glyph>
<glyph name="ring" format="1">
  <advance width="1310"/>
  <unicode hex="02DA"/>
  <outline>
    <contour>
      <point x="727" y="2786" type="curve" smooth="yes"/>
      <point x="727" y="2994"/>
      <point x="896" y="3154"/>
      <point x="1146" y="3154" type="curve" smooth="yes"/>
      <point x="1396" y="3154"/>
      <point x="1567" y="2994"/>
      <point x="1567" y="2786" type="curve" smooth="yes"/>
      <point x="1567" y="2578"/>
      <point x="1396" y="2416"/>
      <point x="1146" y="2416" type="curve" smooth="yes"/>
      <point x="896" y="2416"/>
      <point x="727" y="2578"/>
    </contour>
    <contour>
      <point x="969" y="2632" type="curve" smooth="yes"/>
      <point x="969" y="2522"/>
      <point x="995" y="2426"/>
      <point x="1106" y="2426" type="curve" smooth="yes"/>
      <point x="1238" y="2426"/>
      <point x="1325" y="2788"/>
      <point x="1325" y="2940" type="curve" smooth="yes"/>
      <point x="1325" y="3050"/>
      <point x="1299" y="3144"/>
      <point x="1188" y="3144" type="curve" smooth="yes"/>
      <point x="1056" y="3144"/>
      <point x="969" y="2784"/>
    </contour>
  </outline>
</glyph>
<glyph name="ogonek" format="1">
  <advance width="2252"/>
  <unicode hex="02DB"/>
  <outline>
    <contour>
      <point x="1446" y="-462" type="line"/>
      <point x="1384" y="-576"/>
      <point x="1224" y="-803"/>
      <point x="872" y="-803" type="curve" smooth="yes"/>
      <point x="622" y="-803"/>
      <point x="406" y="-720"/>
      <point x="406" y="-494" type="curve" smooth="yes"/>
      <point x="406" y="-166"/>
      <point x="934" y="74"/>
      <point x="1266" y="176" type="curve"/>
      <point x="1270" y="170" type="line"/>
      <point x="1144" y="92"/>
      <point x="964" y="-151"/>
      <point x="964" y="-450" type="curve" smooth="yes"/>
      <point x="964" y="-622"/>
      <point x="1020" y="-724"/>
      <point x="1108" y="-724" type="curve" smooth="yes"/>
      <point x="1262" y="-724"/>
      <point x="1388" y="-554"/>
      <point x="1440" y="-458" type="curve"/>
    </contour>
  </outline>
</glyph>
<glyph name="tilde" format="2">
  <advance width="895"/>
  <unicode hex="02DC"/>
  <outline>
    <contour>
      <point x="446" y="1308" type="curve" smooth="yes"/>
      <point x="380" y="1308"/>
      <point x="334" y="1284"/>
      <point x="294" y="1200" type="curve"/>
      <point x="290" y="1200" type="line"/>
      <point x="330" y="1370"/>
      <point x="420" y="1484"/>
      <point x="548" y="1484" type="curve" smooth="yes"/>
      <point x="688" y="1484"/>
      <point x="778" y="1326"/>
      <point x="890" y="1326" type="curve" smooth="yes"/>
      <point x="956" y="1326"/>
      <point x="1002" y="1350"/>
      <point x="1042" y="1434" type="curve"/>
      <point x="1046" y="1434" type="line"/>
      <point x="1006" y="1244"/>
      <point x="936" y="1150"/>
      <point x="808" y="1150" type="curve" smooth="yes"/>
      <point x="654" y="1150"/>
      <point x="572" y="1308"/>
    </contour>
  </outline>
</glyph>
<glyph name="uni1E9E" format="2">
  <advance width="1711"/>
  <unicode hex="1E9E"/>
  <outline>
    <contour>
      <point x="673" y="292" type="curve" smooth="yes"/>
      <point x="673" y="399"/>
      <point x="740" y="482"/>
      <point x="840" y="482" type="curve" smooth="yes"/>
      <point x="930" y="482"/>
      <point x="998" y="422"/>
      <point x="998" y="330" type="curve" smooth="yes"/>
      <point x="998" y="246"/>
      <point x="912" y="180"/>
      <point x="834" y="180" type="curve" smooth="yes"/>
      <point x="742" y="180"/>
      <point x="700" y="235"/>
      <point x="679" y="278" type="curve"/>
      <point x="684" y="110"/>
      <point x="805" y="-10"/>
      <point x="1007" y="-10" type="curve" smooth="yes"/>
      <point x="1236" y="-10"/>
      <point x="1335" y="272"/>
      <point x="1335" y="480" type="curve" smooth="yes"/>
      <point x="1335" y="648"/>
      <point x="1274" y="808"/>
      <point x="1086" y="808" type="curve"/>
      <point x="1086" y="812" type="line"/>
      <point x="1468" y="812"/>
      <point x="1652" y="710"/>
      <point x="1652" y="470" type="curve" smooth="yes"/>
      <point x="1652" y="130"/>
      <point x="1339" y="-20"/>
      <point x="1037" y="-20" type="curve" smooth="yes"/>
      <point x="771" y="-20"/>
      <point x="673" y="130"/>
    </contour>
    <contour>
      <point x="-50" y="4" type="line"/>
      <point x="620" y="4" type="line"/>
      <point x="620" y="0" type="line"/>
      <point x="-50" y="0" type="line"/>
    </contour>
    <contour>
      <point x="1086" y="810" type="curve"/>
      <point x="1086" y="814" type="line"/>
      <point x="1394" y="814"/>
      <point x="1455" y="1104"/>
      <point x="1455" y="1252" type="curve" smooth="yes"/>
      <point x="1455" y="1376"/>
      <point x="1394" y="1516"/>
      <point x="1186" y="1516" type="curve" smooth="yes"/>
      <point x="848" y="1516"/>
      <point x="719" y="1210"/>
      <point x="650" y="912" type="curve" smooth="yes"/>
      <point x="440" y="0" type="line"/>
      <point x="130" y="0" type="line"/>
      <point x="345" y="932" type="line" smooth="yes"/>
      <point x="432" y="1317"/>
      <point x="740" y="1520"/>
      <point x="1196" y="1520" type="curve" smooth="yes"/>
      <point x="1552" y="1520"/>
      <point x="1777" y="1418"/>
      <point x="1777" y="1212" type="curve" smooth="yes"/>
      <point x="1777" y="1002"/>
      <point x="1538" y="810"/>
    </contour>
  </outline>
</glyph>
<glyph name="perthousand" format="2">
  <advance width="6122"/>
  <unicode hex="2030"/>
  <outline>
    <contour>
      <point x="5018" y="-40" type="curve" smooth="yes"/>
      <point x="4596" y="-40"/>
      <point x="4300" y="152"/>
      <point x="4300" y="574" type="curve" smooth="yes"/>
      <point x="4300" y="1242"/>
      <point x="4800" y="1762"/>
      <point x="5386" y="1762" type="curve" smooth="yes"/>
      <point x="5808" y="1762"/>
      <point x="6103" y="1568"/>
      <point x="6103" y="1146" type="curve" smooth="yes"/>
      <point x="6103" y="478"/>
      <point x="5604" y="-40"/>
    </contour>
    <contour>
      <point x="5407" y="1756" type="curve" smooth="yes"/>
      <point x="5165" y="1756"/>
      <point x="4854" y="756"/>
      <point x="4854" y="318" type="curve" smooth="yes"/>
      <point x="4854" y="126"/>
      <point x="4900" y="-32"/>
      <point x="4998" y="-32" type="curve" smooth="yes"/>
      <point x="5240" y="-32"/>
      <point x="5540" y="938"/>
      <point x="5540" y="1376" type="curve" smooth="yes"/>
      <point x="5540" y="1568"/>
      <point x="5505" y="1756"/>
    </contour>
    <contour>
      <point x="2990" y="-40" type="curve" smooth="yes"/>
      <point x="2568" y="-40"/>
      <point x="2274" y="152"/>
      <point x="2274" y="574" type="curve" smooth="yes"/>
      <point x="2274" y="1242"/>
      <point x="2772" y="1762"/>
      <point x="3358" y="1762" type="curve" smooth="yes"/>
      <point x="3780" y="1762"/>
      <point x="4076" y="1568"/>
      <point x="4076" y="1146" type="curve" smooth="yes"/>
      <point x="4076" y="478"/>
      <point x="3576" y="-40"/>
    </contour>
    <contour>
      <point x="3379" y="1756" type="curve" smooth="yes"/>
      <point x="3137" y="1756"/>
      <point x="2826" y="756"/>
      <point x="2826" y="318" type="curve" smooth="yes"/>
      <point x="2826" y="126"/>
      <point x="2872" y="-32"/>
      <point x="2970" y="-32" type="curve" smooth="yes"/>
      <point x="3212" y="-32"/>
      <point x="3512" y="938"/>
      <point x="3512" y="1376" type="curve" smooth="yes"/>
      <point x="3512" y="1568"/>
      <point x="3477" y="1756"/>
    </contour>
    <contour>
      <point x="3658" y="3072" type="line"/>
      <point x="3666" y="3072" type="line"/>
      <point x="798" y="0" type="line"/>
      <point x="790" y="0" type="line"/>
    </contour>
    <contour>
      <point x="1126" y="1310" type="curve" smooth="yes"/>
      <point x="704" y="1310"/>
      <point x="410" y="1504"/>
      <point x="410" y="1926" type="curve" smooth="yes"/>
      <point x="410" y="2594"/>
      <point x="910" y="3112"/>
      <point x="1496" y="3112" type="curve" smooth="yes"/>
      <point x="1918" y="3112"/>
      <point x="2212" y="2920"/>
      <point x="2212" y="2498" type="curve" smooth="yes"/>
      <point x="2212" y="1830"/>
      <point x="1712" y="1310"/>
    </contour>
    <contour>
      <point x="1516" y="3104" type="curve" smooth="yes"/>
      <point x="1274" y="3104"/>
      <point x="963" y="2108"/>
      <point x="963" y="1670" type="curve" smooth="yes"/>
      <point x="963" y="1478"/>
      <point x="1008" y="1318"/>
      <point x="1106" y="1318" type="curve" smooth="yes"/>
      <point x="1348" y="1318"/>
      <point x="1648" y="2326"/>
      <point x="1648" y="2764" type="curve" smooth="yes"/>
      <point x="1648" y="2956"/>
      <point x="1614" y="3104"/>
    </contour>
  </outline>
</glyph>
<glyph name="uni2031" format="2">
  <advance width="3989"/>
  <unicode hex="2031"/>
  <outline>
    <contour>
      <point x="3450" y="-20" type="curve" smooth="yes"/>
      <point x="3244" y="-20"/>
      <point x="3100" y="74"/>
      <point x="3100" y="280" type="curve" smooth="yes"/>
      <point x="3100" y="606"/>
      <point x="3344" y="860"/>
      <point x="3630" y="860" type="curve" smooth="yes"/>
      <point x="3836" y="860"/>
      <point x="3980" y="766"/>
      <point x="3980" y="560" type="curve" smooth="yes"/>
      <point x="3980" y="234"/>
      <point x="3736" y="-20"/>
    </contour>
    <contour>
      <point x="3640" y="857" type="curve" smooth="yes"/>
      <point x="3522" y="857"/>
      <point x="3370" y="369"/>
      <point x="3370" y="155" type="curve" smooth="yes"/>
      <point x="3370" y="61"/>
      <point x="3392" y="-16"/>
      <point x="3440" y="-16" type="curve" smooth="yes"/>
      <point x="3558" y="-16"/>
      <point x="3705" y="458"/>
      <point x="3705" y="672" type="curve" smooth="yes"/>
      <point x="3705" y="766"/>
      <point x="3688" y="857"/>
    </contour>
    <contour>
      <point x="2450" y="-20" type="curve" smooth="yes"/>
      <point x="2244" y="-20"/>
      <point x="2100" y="74"/>
      <point x="2100" y="280" type="curve" smooth="yes"/>
      <point x="2100" y="606"/>
      <point x="2344" y="860"/>
      <point x="2630" y="860" type="curve" smooth="yes"/>
      <point x="2836" y="860"/>
      <point x="2980" y="766"/>
      <point x="2980" y="560" type="curve" smooth="yes"/>
      <point x="2980" y="234"/>
      <point x="2736" y="-20"/>
    </contour>
    <contour>
      <point x="2640" y="857" type="curve" smooth="yes"/>
      <point x="2522" y="857"/>
      <point x="2370" y="369"/>
      <point x="2370" y="155" type="curve" smooth="yes"/>
      <point x="2370" y="61"/>
      <point x="2392" y="-16"/>
      <point x="2440" y="-16" type="curve" smooth="yes"/>
      <point x="2558" y="-16"/>
      <point x="2705" y="458"/>
      <point x="2705" y="672" type="curve" smooth="yes"/>
      <point x="2705" y="766"/>
      <point x="2688" y="857"/>
    </contour>
    <contour>
      <point x="1460" y="-20" type="curve" smooth="yes"/>
      <point x="1254" y="-20"/>
      <point x="1110" y="74"/>
      <point x="1110" y="280" type="curve" smooth="yes"/>
      <point x="1110" y="606"/>
      <point x="1354" y="860"/>
      <point x="1640" y="860" type="curve" smooth="yes"/>
      <point x="1846" y="860"/>
      <point x="1990" y="766"/>
      <point x="1990" y="560" type="curve" smooth="yes"/>
      <point x="1990" y="234"/>
      <point x="1746" y="-20"/>
    </contour>
    <contour>
      <point x="1650" y="857" type="curve" smooth="yes"/>
      <point x="1532" y="857"/>
      <point x="1380" y="369"/>
      <point x="1380" y="155" type="curve" smooth="yes"/>
      <point x="1380" y="61"/>
      <point x="1402" y="-16"/>
      <point x="1450" y="-16" type="curve" smooth="yes"/>
      <point x="1568" y="-16"/>
      <point x="1715" y="458"/>
      <point x="1715" y="672" type="curve" smooth="yes"/>
      <point x="1715" y="766"/>
      <point x="1698" y="857"/>
    </contour>
    <contour>
      <point x="1786" y="1500" type="line"/>
      <point x="1790" y="1500" type="line"/>
      <point x="390" y="0" type="line"/>
      <point x="386" y="0" type="line"/>
    </contour>
    <contour>
      <point x="550" y="640" type="curve" smooth="yes"/>
      <point x="344" y="640"/>
      <point x="200" y="734"/>
      <point x="200" y="940" type="curve" smooth="yes"/>
      <point x="200" y="1266"/>
      <point x="444" y="1520"/>
      <point x="730" y="1520" type="curve" smooth="yes"/>
      <point x="936" y="1520"/>
      <point x="1080" y="1426"/>
      <point x="1080" y="1220" type="curve" smooth="yes"/>
      <point x="1080" y="894"/>
      <point x="836" y="640"/>
    </contour>
    <contour>
      <point x="740" y="1516" type="curve" smooth="yes"/>
      <point x="622" y="1516"/>
      <point x="470" y="1029"/>
      <point x="470" y="815" type="curve" smooth="yes"/>
      <point x="470" y="721"/>
      <point x="492" y="644"/>
      <point x="540" y="644" type="curve" smooth="yes"/>
      <point x="658" y="644"/>
      <point x="805" y="1136"/>
      <point x="805" y="1350" type="curve" smooth="yes"/>
      <point x="805" y="1444"/>
      <point x="788" y="1516"/>
    </contour>
  </outline>
</glyph>
<glyph name="uni203D" format="2">
  <advance width="1199"/>
  <unicode hex="203D"/>
  <outline>
    <contour>
      <point x="876" y="1088" type="curve" smooth="yes"/>
      <point x="840" y="875"/>
      <point x="640" y="786"/>
      <point x="560" y="486" type="curve"/>
      <point x="556" y="486" type="line"/>
      <point x="616" y="786"/>
      <point x="580" y="866"/>
      <point x="580" y="1018" type="curve" smooth="yes"/>
      <point x="580" y="1150"/>
      <point x="620" y="1246"/>
      <point x="738" y="1246" type="curve" smooth="yes"/>
      <point x="828" y="1246"/>
      <point x="892" y="1180"/>
    </contour>
    <contour>
      <point x="1008" y="1220" type="curve" smooth="yes"/>
      <point x="1008" y="1368"/>
      <point x="950" y="1513"/>
      <point x="762" y="1513" type="curve" smooth="yes"/>
      <point x="524" y="1513"/>
      <point x="296" y="1349"/>
      <point x="253" y="1209" type="curve"/>
      <point x="276" y="1237"/>
      <point x="332" y="1282"/>
      <point x="394" y="1282" type="curve" smooth="yes"/>
      <point x="462" y="1282"/>
      <point x="538" y="1230"/>
      <point x="538" y="1135" type="curve" smooth="yes"/>
      <point x="538" y="1025"/>
      <point x="444" y="978"/>
      <point x="374" y="978" type="curve" smooth="yes"/>
      <point x="294" y="978"/>
      <point x="230" y="1040"/>
      <point x="230" y="1142" type="curve" smooth="yes"/>
      <point x="230" y="1326"/>
      <point x="498" y="1520"/>
      <point x="782" y="1520" type="curve" smooth="yes"/>
      <point x="1044" y="1520"/>
      <point x="1290" y="1430"/>
      <point x="1290" y="1180" type="curve" smooth="yes"/>
      <point x="1290" y="880"/>
      <point x="934" y="670"/>
      <point x="622" y="670" type="curve"/>
      <point x="622" y="672" type="line"/>
      <point x="826" y="734"/>
      <point x="1008" y="974"/>
    </contour>
    <component base="period" xOffset="268"/>
  </outline>
</glyph>
<glyph name="Euro" format="1">
  <advance width="3133"/>
  <unicode hex="20AC"/>
  <outline>
    <contour>
      <point x="3248" y="2576" type="curve"/>
      <point x="3200" y="2789"/>
      <point x="2904" y="3096"/>
      <point x="2478" y="3096" type="curve" smooth="yes"/>
      <point x="1704" y="3096"/>
      <point x="1266" y="1778"/>
      <point x="1266" y="840" type="curve" smooth="yes"/>
      <point x="1266" y="374"/>
      <point x="1458" y="-16"/>
      <point x="1822" y="-16" type="curve" smooth="yes"/>
      <point x="2215" y="-16"/>
      <point x="2682" y="330"/>
      <point x="2830" y="730" type="curve"/>
      <point x="2838" y="730" type="line"/>
      <point x="2690" y="332"/>
      <point x="2228" y="-40"/>
      <point x="1732" y="-40" type="curve" smooth="yes"/>
      <point x="1195" y="-40"/>
      <point x="590" y="286"/>
      <point x="590" y="1126" type="curve" smooth="yes"/>
      <point x="590" y="2252"/>
      <point x="1445" y="3112"/>
      <point x="2433" y="3112" type="curve" smooth="yes"/>
      <point x="2933" y="3112"/>
      <point x="3276" y="2736"/>
      <point x="3276" y="2462" type="curve" smooth="yes"/>
      <point x="3276" y="2232"/>
      <point x="3106" y="2106"/>
      <point x="2942" y="2106" type="curve" smooth="yes"/>
      <point x="2799" y="2106"/>
      <point x="2606" y="2211"/>
      <point x="2606" y="2437" type="curve" smooth="yes"/>
      <point x="2606" y="2642"/>
      <point x="2796" y="2765"/>
      <point x="2956" y="2765" type="curve" smooth="yes"/>
      <point x="3097" y="2765"/>
      <point x="3205" y="2662"/>
    </contour>
    <component base="equal" xOffset="-122" yOffset="-286"/>
  </outline>
</glyph>
<glyph name="uni2116" format="2">
  <advance width="2291"/>
  <unicode hex="2116"/>
  <outline>
    <contour>
      <point x="1668" y="632" type="line"/>
      <point x="2178" y="632" type="line"/>
      <point x="2176" y="628" type="line"/>
      <point x="1666" y="628" type="line"/>
    </contour>
    <contour>
      <point x="2127" y="1520" type="curve" smooth="yes"/>
      <point x="2304" y="1520"/>
      <point x="2422" y="1430"/>
      <point x="2422" y="1254" type="curve" smooth="yes"/>
      <point x="2422" y="941"/>
      <point x="2186" y="760"/>
      <point x="1952" y="760" type="curve" smooth="yes"/>
      <point x="1775" y="760"/>
      <point x="1657" y="850"/>
      <point x="1657" y="1026" type="curve" smooth="yes"/>
      <point x="1657" y="1339"/>
      <point x="1893" y="1520"/>
    </contour>
    <contour>
      <point x="1870" y="920" type="curve" smooth="yes"/>
      <point x="1870" y="803"/>
      <point x="1900" y="764"/>
      <point x="1961" y="764" type="curve" smooth="yes"/>
      <point x="2085" y="764"/>
      <point x="2209" y="1130"/>
      <point x="2209" y="1360" type="curve" smooth="yes"/>
      <point x="2209" y="1477"/>
      <point x="2179" y="1516"/>
      <point x="2118" y="1516" type="curve" smooth="yes"/>
      <point x="1994" y="1516"/>
      <point x="1870" y="1150"/>
    </contour>
    <component base="N" xOffset="52"/>
  </outline>
</glyph>
<glyph name="uniFB00" format="1">
  <advance width="2969"/>
  <unicode hex="FB00"/>
  <outline>
    <contour>
      <point x="282" y="1884" type="line"/>
      <point x="3047" y="1884" type="line"/>
      <point x="3047" y="1876" type="line"/>
      <point x="282" y="1876" type="line"/>
    </contour>
    <contour>
      <point x="3594" y="2754" type="curve"/>
      <point x="3553" y="2918"/>
      <point x="3350" y="3100"/>
      <point x="3078" y="3100" type="curve" smooth="yes"/>
      <point x="2792" y="3100"/>
      <point x="2603" y="2712"/>
      <point x="2515" y="2212" type="curve" smooth="yes"/>
      <point x="2152" y="156" type="line" smooth="yes"/>
      <point x="2036" y="-500"/>
      <point x="1587" y="-860"/>
      <point x="1034" y="-860" type="curve" smooth="yes"/>
      <point x="620" y="-860"/>
      <point x="420" y="-606"/>
      <point x="420" y="-393" type="curve" smooth="yes"/>
      <point x="420" y="-184"/>
      <point x="550" y="-57"/>
      <point x="734" y="-57" type="curve" smooth="yes"/>
      <point x="898" y="-57"/>
      <point x="1066" y="-155"/>
      <point x="1066" y="-360" type="curve" smooth="yes"/>
      <point x="1066" y="-565"/>
      <point x="917" y="-678"/>
      <point x="737" y="-678" type="curve" smooth="yes"/>
      <point x="604" y="-678"/>
      <point x="490" y="-602"/>
      <point x="450" y="-502" type="curve"/>
      <point x="491" y="-666"/>
      <point x="695" y="-848"/>
      <point x="988" y="-848" type="curve" smooth="yes"/>
      <point x="1296" y="-848"/>
      <point x="1482" y="-460"/>
      <point x="1570" y="40" type="curve" smooth="yes"/>
      <point x="1933" y="2098" type="line" smooth="yes"/>
      <point x="2049" y="2754"/>
      <point x="2499" y="3112"/>
      <point x="3031" y="3112" type="curve" smooth="yes"/>
      <point x="3425" y="3112"/>
      <point x="3624" y="2859"/>
      <point x="3624" y="2646" type="curve" smooth="yes"/>
      <point x="3624" y="2437"/>
      <point x="3496" y="2310"/>
      <point x="3312" y="2310" type="curve" smooth="yes"/>
      <point x="3148" y="2310"/>
      <point x="2978" y="2408"/>
      <point x="2978" y="2613" type="curve" smooth="yes"/>
      <point x="2978" y="2818"/>
      <point x="3128" y="2930"/>
      <point x="3308" y="2930" type="curve" smooth="yes"/>
      <point x="3440" y="2930"/>
      <point x="3552" y="2854"/>
    </contour>
    <contour>
      <point x="2324" y="2550" type="curve"/>
      <point x="2283" y="2714"/>
      <point x="2081" y="2896"/>
      <point x="1788" y="2896" type="curve" smooth="yes"/>
      <point x="1480" y="2896"/>
      <point x="1292" y="2508"/>
      <point x="1204" y="2008" type="curve" smooth="yes"/>
      <point x="842" y="-50" type="line" smooth="yes"/>
      <point x="726" y="-706"/>
      <point x="276" y="-1064"/>
      <point x="-256" y="-1064" type="curve" smooth="yes"/>
      <point x="-650" y="-1064"/>
      <point x="-850" y="-811"/>
      <point x="-850" y="-598" type="curve" smooth="yes"/>
      <point x="-850" y="-389"/>
      <point x="-720" y="-262"/>
      <point x="-536" y="-262" type="curve" smooth="yes"/>
      <point x="-372" y="-262"/>
      <point x="-203" y="-360"/>
      <point x="-203" y="-565" type="curve" smooth="yes"/>
      <point x="-203" y="-770"/>
      <point x="-353" y="-882"/>
      <point x="-533" y="-882" type="curve" smooth="yes"/>
      <point x="-666" y="-882"/>
      <point x="-780" y="-806"/>
      <point x="-820" y="-706" type="curve"/>
      <point x="-779" y="-870"/>
      <point x="-576" y="-1052"/>
      <point x="-304" y="-1052" type="curve" smooth="yes"/>
      <point x="-18" y="-1052"/>
      <point x="172" y="-664"/>
      <point x="260" y="-164" type="curve" smooth="yes"/>
      <point x="622" y="1892" type="line" smooth="yes"/>
      <point x="738" y="2548"/>
      <point x="1187" y="2908"/>
      <point x="1740" y="2908" type="curve" smooth="yes"/>
      <point x="2154" y="2908"/>
      <point x="2355" y="2654"/>
      <point x="2355" y="2441" type="curve" smooth="yes"/>
      <point x="2355" y="2232"/>
      <point x="2226" y="2105"/>
      <point x="2042" y="2105" type="curve" smooth="yes"/>
      <point x="1878" y="2105"/>
      <point x="1708" y="2203"/>
      <point x="1708" y="2408" type="curve" smooth="yes"/>
      <point x="1708" y="2613"/>
      <point x="1858" y="2726"/>
      <point x="2038" y="2726" type="curve" smooth="yes"/>
      <point x="2170" y="2726"/>
      <point x="2282" y="2650"/>
    </contour>
  </outline>
</glyph>
<glyph name="uniFB01" format="2">
  <advance width="1376"/>
  <unicode hex="FB01"/>
  <outline>
    <contour>
      <point x="1337" y="326" type="line"/>
      <point x="1261" y="126"/>
      <point x="1123" y="-20"/>
      <point x="931" y="-20" type="curve" smooth="yes"/>
      <point x="807" y="-20"/>
      <point x="744" y="26"/>
      <point x="744" y="146" type="curve" smooth="yes"/>
      <point x="744" y="156"/>
      <point x="745" y="178"/>
      <point x="748" y="190" type="curve" smooth="yes"/>
      <point x="922" y="916" type="line"/>
      <point x="139" y="916" type="line"/>
      <point x="139" y="920" type="line"/>
      <point x="1203" y="920" type="line"/>
      <point x="1002" y="92" type="line" smooth="yes"/>
      <point x="1000" y="80"/>
      <point x="998" y="66"/>
      <point x="998" y="56" type="curve" smooth="yes"/>
      <point x="998" y="34"/>
      <point x="1008" y="13"/>
      <point x="1034" y="13" type="curve" smooth="yes"/>
      <point x="1139" y="13"/>
      <point x="1265" y="140"/>
      <point x="1335" y="328" type="curve"/>
    </contour>
    <contour>
      <point x="1228" y="1345" type="curve"/>
      <point x="1203" y="1436"/>
      <point x="1096" y="1514"/>
      <point x="943" y="1514" type="curve" smooth="yes"/>
      <point x="763" y="1514"/>
      <point x="653" y="1334"/>
      <point x="608" y="1080" type="curve" smooth="yes"/>
      <point x="411" y="-24" type="line" smooth="yes"/>
      <point x="354" y="-344"/>
      <point x="135" y="-520"/>
      <point x="-125" y="-520" type="curve" smooth="yes"/>
      <point x="-317" y="-520"/>
      <point x="-415" y="-396"/>
      <point x="-415" y="-292" type="curve" smooth="yes"/>
      <point x="-415" y="-190"/>
      <point x="-352" y="-128"/>
      <point x="-262" y="-128" type="curve" smooth="yes"/>
      <point x="-182" y="-128"/>
      <point x="-99" y="-176"/>
      <point x="-99" y="-276" type="curve" smooth="yes"/>
      <point x="-99" y="-376"/>
      <point x="-172" y="-431"/>
      <point x="-260" y="-431" type="curve" smooth="yes"/>
      <point x="-325" y="-431"/>
      <point x="-380" y="-394"/>
      <point x="-400" y="-345" type="curve"/>
      <point x="-380" y="-425"/>
      <point x="-281" y="-514"/>
      <point x="-148" y="-514" type="curve" smooth="yes"/>
      <point x="-8" y="-514"/>
      <point x="84" y="-324"/>
      <point x="127" y="-80" type="curve" smooth="yes"/>
      <point x="324" y="1024" type="line" smooth="yes"/>
      <point x="381" y="1344"/>
      <point x="620" y="1520"/>
      <point x="920" y="1520" type="curve" smooth="yes"/>
      <point x="1139" y="1520"/>
      <point x="1240" y="1406"/>
      <point x="1240" y="1292" type="curve" smooth="yes"/>
      <point x="1240" y="1190"/>
      <point x="1177" y="1128"/>
      <point x="1087" y="1128" type="curve" smooth="yes"/>
      <point x="1007" y="1128"/>
      <point x="924" y="1176"/>
      <point x="924" y="1276" type="curve" smooth="yes"/>
      <point x="924" y="1376"/>
      <point x="997" y="1431"/>
      <point x="1085" y="1431" type="curve" smooth="yes"/>
      <point x="1149" y="1431"/>
      <point x="1207" y="1394"/>
    </contour>
  </outline>
</glyph>
<glyph name="uniFB02" format="2">
  <advance width="1457"/>
  <unicode hex="FB02"/>
  <outline>
    <contour>
      <point x="1418" y="326" type="line"/>
      <point x="1342" y="126"/>
      <point x="1204" y="-20"/>
      <point x="1012" y="-20" type="curve" smooth="yes"/>
      <point x="888" y="-20"/>
      <point x="825" y="26"/>
      <point x="825" y="146" type="curve" smooth="yes"/>
      <point x="825" y="156"/>
      <point x="827" y="178"/>
      <point x="829" y="190" type="curve" smooth="yes"/>
      <point x="1120" y="1460" type="line"/>
      <point x="1418" y="1540" type="line"/>
      <point x="1083" y="92" type="line" smooth="yes"/>
      <point x="1081" y="80"/>
      <point x="1079" y="66"/>
      <point x="1079" y="56" type="curve" smooth="yes"/>
      <point x="1079" y="34"/>
      <point x="1089" y="13"/>
      <point x="1115" y="13" type="curve" smooth="yes"/>
      <point x="1219" y="13"/>
      <point x="1349" y="146"/>
      <point x="1416" y="328" type="curve"/>
    </contour>
    <contour>
      <point x="138" y="920" type="line"/>
      <point x="868" y="920" type="line"/>
      <point x="868" y="916" type="line"/>
      <point x="138" y="916" type="line"/>
    </contour>
    <contour>
      <point x="1210" y="1292" type="curve" smooth="yes"/>
      <point x="1210" y="1190"/>
      <point x="1147" y="1128"/>
      <point x="1057" y="1128" type="curve" smooth="yes"/>
      <point x="977" y="1128"/>
      <point x="894" y="1176"/>
      <point x="894" y="1276" type="curve" smooth="yes"/>
      <point x="894" y="1376"/>
      <point x="967" y="1431"/>
      <point x="1055" y="1431" type="curve" smooth="yes"/>
      <point x="1120" y="1431"/>
      <point x="1175" y="1394"/>
      <point x="1195" y="1345" type="curve"/>
      <point x="1175" y="1425"/>
      <point x="1086" y="1514"/>
      <point x="943" y="1514" type="curve" smooth="yes"/>
      <point x="773" y="1514"/>
      <point x="651" y="1324"/>
      <point x="608" y="1080" type="curve" smooth="yes"/>
      <point x="411" y="-24" type="line" smooth="yes"/>
      <point x="354" y="-344"/>
      <point x="135" y="-520"/>
      <point x="-125" y="-520" type="curve" smooth="yes"/>
      <point x="-317" y="-520"/>
      <point x="-415" y="-396"/>
      <point x="-415" y="-292" type="curve" smooth="yes"/>
      <point x="-415" y="-190"/>
      <point x="-352" y="-128"/>
      <point x="-262" y="-128" type="curve" smooth="yes"/>
      <point x="-182" y="-128"/>
      <point x="-99" y="-176"/>
      <point x="-99" y="-276" type="curve" smooth="yes"/>
      <point x="-99" y="-376"/>
      <point x="-172" y="-431"/>
      <point x="-260" y="-431" type="curve" smooth="yes"/>
      <point x="-325" y="-431"/>
      <point x="-380" y="-394"/>
      <point x="-400" y="-345" type="curve"/>
      <point x="-380" y="-425"/>
      <point x="-281" y="-514"/>
      <point x="-148" y="-514" type="curve" smooth="yes"/>
      <point x="-8" y="-514"/>
      <point x="84" y="-324"/>
      <point x="127" y="-80" type="curve" smooth="yes"/>
      <point x="324" y="1024" type="line" smooth="yes"/>
      <point x="381" y="1344"/>
      <point x="630" y="1520"/>
      <point x="920" y="1520" type="curve" smooth="yes"/>
      <point x="1115" y="1520"/>
      <point x="1210" y="1403"/>
    </contour>
  </outline>
</glyph>
<glyph name="uniFB03" format="1">
  <advance width="4088"/>
  <unicode hex="FB03"/>
  <outline>
    <contour>
      <point x="4008" y="668" type="line"/>
      <point x="3852" y="258"/>
      <point x="3570" y="-40"/>
      <point x="3176" y="-40" type="curve" smooth="yes"/>
      <point x="2922" y="-40"/>
      <point x="2794" y="53"/>
      <point x="2794" y="299" type="curve" smooth="yes"/>
      <point x="2794" y="319"/>
      <point x="2796" y="365"/>
      <point x="2802" y="389" type="curve" smooth="yes"/>
      <point x="3158" y="1876" type="line"/>
      <point x="282" y="1876" type="line"/>
      <point x="282" y="1884" type="line"/>
      <point x="3733" y="1884" type="line"/>
      <point x="3322" y="188" type="line" smooth="yes"/>
      <point x="3318" y="164"/>
      <point x="3314" y="135"/>
      <point x="3314" y="115" type="curve" smooth="yes"/>
      <point x="3314" y="69"/>
      <point x="3334" y="26"/>
      <point x="3388" y="26" type="curve" smooth="yes"/>
      <point x="3603" y="26"/>
      <point x="3860" y="286"/>
      <point x="4004" y="672" type="curve"/>
    </contour>
    <contour>
      <point x="3809" y="2646" type="curve" smooth="yes"/>
      <point x="3809" y="2437"/>
      <point x="3680" y="2310"/>
      <point x="3496" y="2310" type="curve" smooth="yes"/>
      <point x="3332" y="2310"/>
      <point x="3162" y="2408"/>
      <point x="3162" y="2613" type="curve" smooth="yes"/>
      <point x="3162" y="2818"/>
      <point x="3312" y="2930"/>
      <point x="3492" y="2930" type="curve" smooth="yes"/>
      <point x="3625" y="2930"/>
      <point x="3742" y="2854"/>
      <point x="3782" y="2754" type="curve"/>
      <point x="3731" y="2940"/>
      <point x="3514" y="3100"/>
      <point x="3201" y="3100" type="curve" smooth="yes"/>
      <point x="2833" y="3100"/>
      <point x="2607" y="2732"/>
      <point x="2515" y="2212" type="curve" smooth="yes"/>
      <point x="2152" y="156" type="line" smooth="yes"/>
      <point x="2036" y="-500"/>
      <point x="1587" y="-860"/>
      <point x="1034" y="-860" type="curve" smooth="yes"/>
      <point x="620" y="-860"/>
      <point x="422" y="-606"/>
      <point x="422" y="-393" type="curve" smooth="yes"/>
      <point x="422" y="-184"/>
      <point x="552" y="-57"/>
      <point x="736" y="-57" type="curve" smooth="yes"/>
      <point x="900" y="-57"/>
      <point x="1068" y="-155"/>
      <point x="1068" y="-360" type="curve" smooth="yes"/>
      <point x="1068" y="-565"/>
      <point x="919" y="-678"/>
      <point x="739" y="-678" type="curve" smooth="yes"/>
      <point x="606" y="-678"/>
      <point x="492" y="-602"/>
      <point x="452" y="-502" type="curve"/>
      <point x="493" y="-666"/>
      <point x="697" y="-848"/>
      <point x="990" y="-848" type="curve" smooth="yes"/>
      <point x="1298" y="-848"/>
      <point x="1485" y="-460"/>
      <point x="1573" y="40" type="curve" smooth="yes"/>
      <point x="1933" y="2098" type="line" smooth="yes"/>
      <point x="2049" y="2754"/>
      <point x="2540" y="3112"/>
      <point x="3154" y="3112" type="curve" smooth="yes"/>
      <point x="3588" y="3112"/>
      <point x="3809" y="2894"/>
    </contour>
    <contour>
      <point x="2324" y="2550" type="curve"/>
      <point x="2283" y="2714"/>
      <point x="2081" y="2896"/>
      <point x="1788" y="2896" type="curve" smooth="yes"/>
      <point x="1480" y="2896"/>
      <point x="1292" y="2508"/>
      <point x="1204" y="2008" type="curve" smooth="yes"/>
      <point x="842" y="-50" type="line" smooth="yes"/>
      <point x="726" y="-706"/>
      <point x="276" y="-1064"/>
      <point x="-256" y="-1064" type="curve" smooth="yes"/>
      <point x="-650" y="-1064"/>
      <point x="-850" y="-811"/>
      <point x="-850" y="-598" type="curve" smooth="yes"/>
      <point x="-850" y="-389"/>
      <point x="-720" y="-262"/>
      <point x="-536" y="-262" type="curve" smooth="yes"/>
      <point x="-372" y="-262"/>
      <point x="-203" y="-360"/>
      <point x="-203" y="-565" type="curve" smooth="yes"/>
      <point x="-203" y="-770"/>
      <point x="-353" y="-882"/>
      <point x="-533" y="-882" type="curve" smooth="yes"/>
      <point x="-666" y="-882"/>
      <point x="-780" y="-806"/>
      <point x="-820" y="-706" type="curve"/>
      <point x="-779" y="-870"/>
      <point x="-576" y="-1052"/>
      <point x="-304" y="-1052" type="curve" smooth="yes"/>
      <point x="-18" y="-1052"/>
      <point x="172" y="-664"/>
      <point x="260" y="-164" type="curve" smooth="yes"/>
      <point x="622" y="1892" type="line" smooth="yes"/>
      <point x="738" y="2548"/>
      <point x="1187" y="2908"/>
      <point x="1740" y="2908" type="curve" smooth="yes"/>
      <point x="2154" y="2908"/>
      <point x="2355" y="2654"/>
      <point x="2355" y="2441" type="curve" smooth="yes"/>
      <point x="2355" y="2232"/>
      <point x="2226" y="2105"/>
      <point x="2042" y="2105" type="curve" smooth="yes"/>
      <point x="1878" y="2105"/>
      <point x="1708" y="2203"/>
      <point x="1708" y="2408" type="curve" smooth="yes"/>
      <point x="1708" y="2613"/>
      <point x="1858" y="2726"/>
      <point x="2038" y="2726" type="curve" smooth="yes"/>
      <point x="2171" y="2726"/>
      <point x="2284" y="2650"/>
    </contour>
  </outline>
</glyph>
<glyph name="uniFB04" format="1">
  <advance width="4255"/>
  <unicode hex="FB04"/>
  <outline>
    <contour>
      <point x="4174" y="668" type="line"/>
      <point x="4018" y="258"/>
      <point x="3736" y="-40"/>
      <point x="3342" y="-40" type="curve" smooth="yes"/>
      <point x="3088" y="-40"/>
      <point x="2959" y="53"/>
      <point x="2959" y="299" type="curve" smooth="yes"/>
      <point x="2959" y="319"/>
      <point x="2963" y="365"/>
      <point x="2967" y="389" type="curve" smooth="yes"/>
      <point x="3563" y="2990" type="line"/>
      <point x="4174" y="3154" type="line"/>
      <point x="3488" y="188" type="line" smooth="yes"/>
      <point x="3484" y="164"/>
      <point x="3480" y="135"/>
      <point x="3480" y="115" type="curve" smooth="yes"/>
      <point x="3480" y="69"/>
      <point x="3500" y="26"/>
      <point x="3554" y="26" type="curve" smooth="yes"/>
      <point x="3767" y="26"/>
      <point x="4032" y="300"/>
      <point x="4170" y="672" type="curve"/>
    </contour>
    <contour>
      <point x="282" y="1884" type="line"/>
      <point x="3047" y="1884" type="line"/>
      <point x="3047" y="1876" type="line"/>
      <point x="282" y="1876" type="line"/>
    </contour>
    <contour>
      <point x="3716" y="2754" type="curve"/>
      <point x="3675" y="2918"/>
      <point x="3494" y="3100"/>
      <point x="3201" y="3100" type="curve" smooth="yes"/>
      <point x="2853" y="3100"/>
      <point x="2603" y="2712"/>
      <point x="2515" y="2212" type="curve" smooth="yes"/>
      <point x="2152" y="156" type="line" smooth="yes"/>
      <point x="2036" y="-500"/>
      <point x="1597" y="-860"/>
      <point x="1044" y="-860" type="curve" smooth="yes"/>
      <point x="630" y="-860"/>
      <point x="430" y="-606"/>
      <point x="430" y="-393" type="curve" smooth="yes"/>
      <point x="430" y="-184"/>
      <point x="560" y="-57"/>
      <point x="744" y="-57" type="curve" smooth="yes"/>
      <point x="908" y="-57"/>
      <point x="1078" y="-155"/>
      <point x="1078" y="-360" type="curve" smooth="yes"/>
      <point x="1078" y="-565"/>
      <point x="928" y="-678"/>
      <point x="748" y="-678" type="curve" smooth="yes"/>
      <point x="615" y="-678"/>
      <point x="500" y="-602"/>
      <point x="460" y="-502" type="curve"/>
      <point x="501" y="-666"/>
      <point x="705" y="-848"/>
      <point x="998" y="-848" type="curve" smooth="yes"/>
      <point x="1306" y="-848"/>
      <point x="1492" y="-460"/>
      <point x="1580" y="40" type="curve" smooth="yes"/>
      <point x="1933" y="2098" type="line" smooth="yes"/>
      <point x="2049" y="2754"/>
      <point x="2560" y="3112"/>
      <point x="3154" y="3112" type="curve" smooth="yes"/>
      <point x="3568" y="3112"/>
      <point x="3748" y="2859"/>
      <point x="3748" y="2646" type="curve" smooth="yes"/>
      <point x="3748" y="2437"/>
      <point x="3618" y="2310"/>
      <point x="3434" y="2310" type="curve" smooth="yes"/>
      <point x="3270" y="2310"/>
      <point x="3100" y="2408"/>
      <point x="3100" y="2613" type="curve" smooth="yes"/>
      <point x="3100" y="2818"/>
      <point x="3250" y="2930"/>
      <point x="3430" y="2930" type="curve" smooth="yes"/>
      <point x="3562" y="2930"/>
      <point x="3674" y="2854"/>
    </contour>
    <contour>
      <point x="2324" y="2550" type="curve"/>
      <point x="2283" y="2714"/>
      <point x="2081" y="2896"/>
      <point x="1788" y="2896" type="curve" smooth="yes"/>
      <point x="1480" y="2896"/>
      <point x="1292" y="2508"/>
      <point x="1204" y="2008" type="curve" smooth="yes"/>
      <point x="842" y="-50" type="line" smooth="yes"/>
      <point x="726" y="-706"/>
      <point x="276" y="-1064"/>
      <point x="-256" y="-1064" type="curve" smooth="yes"/>
      <point x="-650" y="-1064"/>
      <point x="-850" y="-811"/>
      <point x="-850" y="-598" type="curve" smooth="yes"/>
      <point x="-850" y="-389"/>
      <point x="-720" y="-262"/>
      <point x="-536" y="-262" type="curve" smooth="yes"/>
      <point x="-372" y="-262"/>
      <point x="-203" y="-360"/>
      <point x="-203" y="-565" type="curve" smooth="yes"/>
      <point x="-203" y="-770"/>
      <point x="-353" y="-882"/>
      <point x="-533" y="-882" type="curve" smooth="yes"/>
      <point x="-666" y="-882"/>
      <point x="-780" y="-806"/>
      <point x="-820" y="-706" type="curve"/>
      <point x="-779" y="-870"/>
      <point x="-576" y="-1052"/>
      <point x="-304" y="-1052" type="curve" smooth="yes"/>
      <point x="-18" y="-1052"/>
      <point x="172" y="-664"/>
      <point x="260" y="-164" type="curve" smooth="yes"/>
      <point x="622" y="1892" type="line" smooth="yes"/>
      <point x="738" y="2548"/>
      <point x="1187" y="2908"/>
      <point x="1740" y="2908" type="curve" smooth="yes"/>
      <point x="2154" y="2908"/>
      <point x="2355" y="2654"/>
      <point x="2355" y="2441" type="curve" smooth="yes"/>
      <point x="2355" y="2232"/>
      <point x="2226" y="2105"/>
      <point x="2042" y="2105" type="curve" smooth="yes"/>
      <point x="1878" y="2105"/>
      <point x="1708" y="2203"/>
      <point x="1708" y="2408" type="curve" smooth="yes"/>
      <point x="1708" y="2613"/>
      <point x="1858" y="2726"/>
      <point x="2038" y="2726" type="curve" smooth="yes"/>
      <point x="2170" y="2726"/>
      <point x="2282" y="2650"/>
    </contour>
  </outline>
</glyph>
<glyph name="J.alt" format="2">
  <advance width="2573"/>
  <outline>
    <contour>
      <point x="1499" y="3072" type="line"/>
      <point x="3045" y="3072" type="line"/>
      <point x="3045" y="3064" type="line"/>
      <point x="1499" y="3064" type="line"/>
    </contour>
    <contour>
      <point x="1991" y="3072" type="line"/>
      <point x="2636" y="3072" type="line"/>
      <point x="2185" y="1146" type="line" smooth="yes"/>
      <point x="2037" y="524"/>
      <point x="1401" y="-40"/>
      <point x="741" y="-40" type="curve" smooth="yes"/>
      <point x="303" y="-40"/>
      <point x="20" y="264"/>
      <point x="20" y="653" type="curve" smooth="yes"/>
      <point x="20" y="989"/>
      <point x="213" y="1188"/>
      <point x="459" y="1188" type="curve" smooth="yes"/>
      <point x="685" y="1188"/>
      <point x="852" y="1052"/>
      <point x="852" y="802" type="curve" smooth="yes"/>
      <point x="852" y="597"/>
      <point x="680" y="422"/>
      <point x="438" y="422" type="curve" smooth="yes"/>
      <point x="224" y="422"/>
      <point x="72" y="580"/>
      <point x="36" y="686" type="curve"/>
      <point x="12" y="278"/>
      <point x="319" y="-32"/>
      <point x="741" y="-32" type="curve" smooth="yes"/>
      <point x="1237" y="-32"/>
      <point x="1420" y="476"/>
      <point x="1540" y="1024" type="curve" smooth="yes"/>
    </contour>
  </outline>
</glyph>
<glyph name="R.alt" format="1">
  <advance width="3071"/>
  <outline>
    <contour>
      <point x="2755" y="0" type="line"/>
      <point x="2689" y="0"/>
      <point x="2534" y="0"/>
      <point x="2386" y="0" type="curve" smooth="yes"/>
      <point x="1268" y="0"/>
      <point x="2410" y="1572"/>
      <point x="1444" y="1572" type="curve" smooth="yes"/>
      <point x="1096" y="1572" type="line"/>
      <point x="1096" y="1582" type="line"/>
      <point x="1628" y="1582" type="line" smooth="yes"/>
      <point x="3095" y="1582"/>
      <point x="2148" y="8"/>
      <point x="2652" y="8" type="curve" smooth="yes"/>
      <point x="2698" y="8"/>
      <point x="2755" y="8"/>
      <point x="2755" y="8" type="curve"/>
    </contour>
    <contour>
      <point x="952" y="3072" type="line"/>
      <point x="1588" y="3072" type="line"/>
      <point x="870" y="0" type="line"/>
      <point x="236" y="0" type="line"/>
    </contour>
    <contour>
      <point x="-154" y="8" type="line"/>
      <point x="1321" y="8" type="line"/>
      <point x="1321" y="0" type="line"/>
      <point x="-154" y="0" type="line"/>
    </contour>
    <contour>
      <point x="1628" y="1572" type="curve" smooth="yes"/>
      <point x="1096" y="1572" type="line"/>
      <point x="1096" y="1582" type="line"/>
      <point x="1526" y="1582" type="line" smooth="yes"/>
      <point x="2104" y="1582"/>
      <point x="2314" y="2195"/>
      <point x="2314" y="2560" type="curve" smooth="yes"/>
      <point x="2314" y="2760"/>
      <point x="2246" y="3064"/>
      <point x="1894" y="3064" type="curve" smooth="yes"/>
      <point x="522" y="3064" type="line"/>
      <point x="522" y="3072" type="line"/>
      <point x="2038" y="3072" type="line" smooth="yes"/>
      <point x="2574" y="3072"/>
      <point x="2980" y="2908"/>
      <point x="2980" y="2458" type="curve" smooth="yes"/>
      <point x="2980" y="1884"/>
      <point x="2452" y="1572"/>
    </contour>
  </outline>
</glyph>
<glyph name="fj.lig" format="2">
  <advance width="2694"/>
  <outline>
    <contour>
      <point x="1544" y="164" type="curve" smooth="yes"/>
      <point x="1900" y="1874" type="line"/>
      <point x="282" y="1876" type="line"/>
      <point x="282" y="1884" type="line"/>
      <point x="2470" y="1884" type="line"/>
      <point x="2132" y="156" type="line" smooth="yes"/>
      <point x="2032" y="-358"/>
      <point x="1569" y="-860"/>
      <point x="1016" y="-860" type="curve" smooth="yes"/>
      <point x="644" y="-860"/>
      <point x="410" y="-626"/>
      <point x="410" y="-403" type="curve" smooth="yes"/>
      <point x="410" y="-194"/>
      <point x="572" y="-57"/>
      <point x="756" y="-57" type="curve" smooth="yes"/>
      <point x="920" y="-57"/>
      <point x="1077" y="-170"/>
      <point x="1077" y="-348" type="curve" smooth="yes"/>
      <point x="1077" y="-546"/>
      <point x="913" y="-674"/>
      <point x="743" y="-674" type="curve" smooth="yes"/>
      <point x="594" y="-674"/>
      <point x="466" y="-586"/>
      <point x="446" y="-500" type="curve"/>
      <point x="499" y="-689"/>
      <point x="711" y="-850"/>
      <point x="1006" y="-850" type="curve" smooth="yes"/>
      <point x="1375" y="-850"/>
      <point x="1440" y="-330"/>
    </contour>
    <contour>
      <point x="2522" y="2734" type="curve"/>
      <point x="2478" y="2931"/>
      <point x="2267" y="3100"/>
      <point x="1931" y="3100" type="curve" smooth="yes"/>
      <point x="1583" y="3100"/>
      <point x="1334" y="2712"/>
      <point x="1246" y="2212" type="curve" smooth="yes"/>
      <point x="842" y="-50" type="line" smooth="yes"/>
      <point x="726" y="-704"/>
      <point x="286" y="-1064"/>
      <point x="-246" y="-1064" type="curve" smooth="yes"/>
      <point x="-640" y="-1064"/>
      <point x="-840" y="-811"/>
      <point x="-840" y="-598" type="curve" smooth="yes"/>
      <point x="-840" y="-389"/>
      <point x="-710" y="-262"/>
      <point x="-526" y="-262" type="curve" smooth="yes"/>
      <point x="-362" y="-262"/>
      <point x="-192" y="-360"/>
      <point x="-192" y="-565" type="curve" smooth="yes"/>
      <point x="-192" y="-770"/>
      <point x="-352" y="-882"/>
      <point x="-532" y="-882" type="curve" smooth="yes"/>
      <point x="-696" y="-882"/>
      <point x="-796" y="-747"/>
      <point x="-818" y="-686" type="curve"/>
      <point x="-786" y="-844"/>
      <point x="-598" y="-1048"/>
      <point x="-292" y="-1048" type="curve" smooth="yes"/>
      <point x="-6" y="-1048"/>
      <point x="184" y="-664"/>
      <point x="270" y="-164" type="curve" smooth="yes"/>
      <point x="664" y="2098" type="line" smooth="yes"/>
      <point x="778" y="2754"/>
      <point x="1270" y="3112"/>
      <point x="1884" y="3112" type="curve" smooth="yes"/>
      <point x="2360" y="3112"/>
      <point x="2540" y="2859"/>
      <point x="2540" y="2646" type="curve" smooth="yes"/>
      <point x="2540" y="2437"/>
      <point x="2410" y="2310"/>
      <point x="2226" y="2310" type="curve" smooth="yes"/>
      <point x="2062" y="2310"/>
      <point x="1892" y="2408"/>
      <point x="1892" y="2613" type="curve" smooth="yes"/>
      <point x="1892" y="2818"/>
      <point x="2052" y="2930"/>
      <point x="2232" y="2930" type="curve" smooth="yes"/>
      <point x="2390" y="2930"/>
      <point x="2484" y="2814"/>
    </contour>
  </outline>
</glyph>
<glyph name="four.alt" format="1">
  <advance width="2682"/>
  <outline>
    <contour>
      <point x="2376" y="2040" type="curve"/>
      <point x="1922" y="-2" type="line"/>
      <point x="1286" y="-2" type="line"/>
      <point x="1700" y="1856" type="line"/>
      <point x="1904" y="1856"/>
      <point x="2232" y="1958"/>
    </contour>
    <contour>
      <point x="2262" y="8" type="line"/>
      <point x="2262" y="0" type="line"/>
      <point x="930" y="0" type="line"/>
      <point x="930" y="8" type="line"/>
    </contour>
    <contour>
      <point x="80" y="802" type="curve"/>
      <point x="2478" y="802" type="line"/>
      <point x="2478" y="794" type="line"/>
      <point x="62" y="794" type="line"/>
      <point x="697" y="1614"/>
      <point x="1740" y="2438"/>
      <point x="1884" y="3072" type="curve"/>
      <point x="2572" y="3072" type="line"/>
      <point x="2474" y="2396"/>
      <point x="674" y="1535"/>
    </contour>
  </outline>
</glyph>
<glyph name="v.alt" format="2">
  <advance width="2174"/>
  <outline>
    <contour>
      <point x="880" y="1946" type="curve"/>
      <point x="885" y="1942" type="line"/>
      <point x="717" y="1848"/>
      <point x="676" y="1732"/>
      <point x="676" y="1589" type="curve" smooth="yes"/>
      <point x="676" y="1229"/>
      <point x="1122" y="1060"/>
      <point x="1122" y="552" type="curve" smooth="yes"/>
      <point x="1122" y="482"/>
      <point x="1102" y="254"/>
      <point x="1094" y="160" type="curve"/>
      <point x="1733" y="498"/>
      <point x="2147" y="870"/>
      <point x="2147" y="1410" type="curve" smooth="yes"/>
      <point x="2147" y="1469"/>
      <point x="2138" y="1548"/>
      <point x="2118" y="1577" type="curve"/>
      <point x="2100" y="1446"/>
      <point x="1991" y="1249"/>
      <point x="1733" y="1249" type="curve" smooth="yes"/>
      <point x="1507" y="1249"/>
      <point x="1380" y="1422"/>
      <point x="1380" y="1586" type="curve" smooth="yes"/>
      <point x="1380" y="1770"/>
      <point x="1519" y="1922"/>
      <point x="1732" y="1922" type="curve" smooth="yes"/>
      <point x="2052" y="1922"/>
      <point x="2155" y="1660"/>
      <point x="2155" y="1410" type="curve" smooth="yes"/>
      <point x="2155" y="718"/>
      <point x="1498" y="340"/>
      <point x="700" y="-50" type="curve"/>
      <point x="506" y="-12" type="line"/>
      <point x="514" y="78"/>
      <point x="545" y="352"/>
      <point x="545" y="434" type="curve" smooth="yes"/>
      <point x="545" y="750"/>
      <point x="122" y="1020"/>
      <point x="122" y="1324" type="curve" smooth="yes"/>
      <point x="122" y="1652"/>
      <point x="512" y="1828"/>
    </contour>
  </outline>
</glyph>
